<?xml version="1.0" encoding="UTF-8" standalone="no"?>
<!-- Created with Inkscape (http://www.inkscape.org/) -->

<svg
   xmlns:dc="http://purl.org/dc/elements/1.1/"
   xmlns:cc="http://creativecommons.org/ns#"
   xmlns:rdf="http://www.w3.org/1999/02/22-rdf-syntax-ns#"
   xmlns:svg="http://www.w3.org/2000/svg"
   xmlns="http://www.w3.org/2000/svg"
   xmlns:xlink="http://www.w3.org/1999/xlink"
   xmlns:sodipodi="http://sodipodi.sourceforge.net/DTD/sodipodi-0.dtd"
   xmlns:inkscape="http://www.inkscape.org/namespaces/inkscape"
   width="48"
   height="48"
   id="svg4230"
   version="1.1"
   inkscape:version="0.48.4 r9939"
   sodipodi:docname="android-studio.svg">
  <defs
     id="defs4232">
    <linearGradient
       inkscape:collect="always"
       xlink:href="#outerBackgroundGradient"
       id="linearGradient3876"
       gradientUnits="userSpaceOnUse"
       gradientTransform="translate(0,-4)"
       x1="272"
       y1="288"
       x2="272"
       y2="32" />
    <linearGradient
       id="outerBackgroundGradient">
      <stop
         style="stop-color:#202020;stop-opacity:1;"
         offset="0"
         id="stop3864-8-6" />
      <stop
         style="stop-color:#363636;stop-opacity:1;"
         offset="1"
         id="stop3866-9-1" />
    </linearGradient>
    <linearGradient
       y2="32"
       x2="272"
       y1="288"
       x1="272"
       gradientTransform="matrix(0.17818314,0,0,0.17818314,-1.6715484,1000.0224)"
       gradientUnits="userSpaceOnUse"
       id="linearGradient5087"
       xlink:href="#outerBackgroundGradient"
       inkscape:collect="always" />
  </defs>
  <sodipodi:namedview
     id="base"
     pagecolor="#ffffff"
     bordercolor="#666666"
     borderopacity="1.0"
     inkscape:pageopacity="0.0"
     inkscape:pageshadow="2"
     inkscape:zoom="6.3993466"
     inkscape:cx="22.276796"
     inkscape:cy="31.748285"
     inkscape:document-units="px"
     inkscape:current-layer="layer1"
     showgrid="false"
     inkscape:showpageshadow="false"
     borderlayer="true"
     inkscape:window-width="953"
     inkscape:window-height="747"
     inkscape:window-x="3295"
     inkscape:window-y="1276"
     inkscape:window-maximized="0" />
  <metadata
     id="metadata4235">
    <rdf:RDF>
      <cc:Work
         rdf:about="">
        <dc:format>image/svg+xml</dc:format>
        <dc:type
           rdf:resource="http://purl.org/dc/dcmitype/StillImage" />
        <dc:title />
      </cc:Work>
    </rdf:RDF>
  </metadata>
  <g
     inkscape:label="Capa 1"
     inkscape:groupmode="layer"
     id="layer1"
     transform="translate(0,-1004.3622)">
    <g
       transform="matrix(0.36107049,0,0,-0.36107049,24.938366,1037.2761)"
       id="g312"
       style="fill:#000000;fill-opacity:0.49803922" />
    <g
       transform="matrix(0.36107049,0,0,-0.36107049,36.293746,1025.92)"
       id="g316"
       style="fill:#000000;fill-opacity:0.49803922" />
    <path
       inkscape:connector-curvature="0"
       style="opacity:0.05;fill:none;stroke:#000000;stroke-width:0.227171;stroke-opacity:1;display:inline;enable-background:new"
       d="m 17.039372,1008.9181 c 0.04875,0 -0.09006,0.024 -0.13708,0.051 -0.167213,0.093 -0.229772,0.2956 -0.137081,0.4628 l 1.645032,2.9644 c -3.168285,1.6486 -5.307792,4.7841 -5.312081,8.3794 l 20.854204,0 c -0.0043,-3.5953 -2.143797,-6.7308 -5.312084,-8.3794 l 1.645034,-2.9644 c 0.09267,-0.1672 0.04726,-0.3699 -0.119945,-0.4628 -0.06271,-0.036 -0.142381,-0.056 -0.205631,-0.051 -0.105412,0.015 -0.199107,0.085 -0.257035,0.1884 l -1.662168,2.9986 c -1.364693,-0.6052 -2.891405,-0.9424 -4.506699,-0.9424 -1.615299,0 -3.15915,0.3372 -4.523837,0.9424 l -1.662167,-2.9986 c -0.05793,-0.1045 -0.151612,-0.1803 -0.257038,-0.1884 -0.0158,0 -0.03524,0 -0.0514,0 z m 1.833528,6.3744 c 0.45426,0 0.822512,0.3683 0.822512,0.8225 0,0.4544 -0.368252,0.8226 -0.822512,0.8226 -0.454268,0 -0.822518,-0.3682 -0.822518,-0.8226 0,-0.4542 0.36825,-0.8225 0.822518,-0.8225 z m 9.321843,0 c 0.454264,0 0.822512,0.3683 0.822512,0.8225 0,0.4544 -0.368248,0.8226 -0.822512,0.8226 -0.454266,0 -0.822517,-0.3682 -0.822517,-0.8226 0,-0.4542 0.368251,-0.8225 0.822517,-0.8225 z m -18.3695205,6.0319 c -1.215128,0 -2.1933743,0.9783 -2.1933743,2.1933 l 0,10.4184 c 0,1.2153 0.9782463,2.1936 2.1933743,2.1936 1.2151315,0 2.1933745,-0.9783 2.1933745,-2.1936 l 0,-10.4184 c 0,-1.215 -0.978243,-2.1933 -2.1933745,-2.1933 z m 27.4171945,0 c -1.215132,0 -2.193376,0.9783 -2.193376,2.1933 l 0,10.4184 c 0,1.2153 0.978244,2.1936 2.193376,2.1936 1.215127,0 2.193373,-0.9783 2.193373,-2.1936 l 0,-10.4184 c 0,-1.215 -0.978246,-2.1933 -2.193373,-2.1933 z m -24.12713,0.5482 0,15.3537 c 0,0 0,2.1933 2.193375,2.1933 l 1.64503,0 0,5.4835 c 0,1.3018 0.891564,2.1935 2.193379,2.1935 1.301809,0 2.193373,-0.8917 2.193373,-2.1935 l 0,-5.4835 4.386749,0 0,5.4835 c 0,1.3018 0.891567,2.1935 2.193377,2.1935 1.301809,0 2.193376,-0.8917 2.193376,-2.1935 l 0,-5.4835 1.645031,0 c 2.193378,0 2.193378,-2.1933 2.193378,-2.1933 l 0.01712,-15.3537 -20.854202,0 z m 1.627895,1.6451 1.096689,0 15.353626,0 1.096688,0 0,1.0967 0,3.29 0,8.7735 c 0,0.6076 -0.489123,1.0968 -1.096688,1.0968 l -15.353626,0 c -0.607567,0 -1.096689,-0.4892 -1.096689,-1.0968 l 0,-8.7735 0,-3.29 0,-1.0967 z m 8.773501,1.0967 c 0,0 -0.327054,0 -0.56548,0.1032 0,0 -0.07864,0.2235 -0.137081,0.8569 -0.07161,0.7748 -0.358264,1.0104 -0.719704,1.2681 -0.08547,0.033 -0.173324,0.065 -0.257034,0.1032 -0.437842,0.075 -0.806583,0.1211 -1.40513,-0.3768 -0.489241,-0.4067 -0.70257,-0.5141 -0.70257,-0.5141 -0.241504,0.094 -0.479799,0.3255 -0.479799,0.3255 0,0 -0.230353,0.2378 -0.325578,0.4797 0,0 0.107604,0.2136 0.514073,0.7027 0.497249,0.5985 0.450343,0.9674 0.376985,1.4052 -0.0379,0.084 -0.0707,0.1716 -0.102811,0.2569 -0.257453,0.3617 -0.493248,0.6482 -1.268046,0.7197 -0.633369,0.057 -0.856787,0.1369 -0.856787,0.1369 -0.103627,0.2388 -0.102811,0.5656 -0.102811,0.5656 0,0 -9.19e-4,0.327 0.102811,0.5654 0,0 0.223291,0.079 0.856787,0.1369 0.774777,0.071 1.010214,0.3585 1.268046,0.7197 0.03209,0.084 0.06489,0.1735 0.102811,0.2572 0.07369,0.4378 0.120213,0.8066 -0.376985,1.405 -0.406481,0.4894 -0.514073,0.7026 -0.514073,0.7026 0.09558,0.2421 0.325578,0.48 0.325578,0.48 0,0 0.237857,0.2302 0.479799,0.3255 0,0 0.213359,-0.1071 0.70257,-0.5141 0.598572,-0.4973 0.967379,-0.45 1.40513,-0.377 0.08376,0.037 0.171505,0.071 0.257034,0.1033 0.361694,0.2574 0.647991,0.4931 0.719704,1.268 0.05851,0.6334 0.137081,0.8568 0.137081,0.8568 0.238709,0.1045 0.56548,0.1033 0.56548,0.1033 0,0 0.327182,0 0.565479,-0.1033 0,0 0.07874,-0.2231 0.13708,-0.8568 0.07171,-0.7749 0.358597,-1.0102 0.719703,-1.268 0.0855,-0.033 0.173386,-0.065 0.257036,-0.1033 0.437795,-0.075 0.806575,-0.1211 1.405132,0.377 0.489231,0.4065 0.702563,0.5141 0.702563,0.5141 0.242052,-0.094 0.479803,-0.3255 0.479803,-0.3255 0,0 0.230409,-0.2382 0.325579,-0.48 0,0 -0.107222,-0.2132 -0.514072,-0.7026 -0.497251,-0.5984 -0.450168,-0.9675 -0.376988,-1.405 0.03801,-0.085 0.07089,-0.1715 0.10281,-0.2572 0.257505,-0.3617 0.493243,-0.6478 1.268047,-0.7197 0.633461,-0.057 0.856787,-0.1369 0.856787,-0.1369 0.10341,-0.2385 0.10281,-0.5654 0.10281,-0.5654 0,0 10e-4,-0.3269 -0.10281,-0.5656 0,0 -0.223252,-0.079 -0.856787,-0.1369 -0.774848,-0.071 -1.010275,-0.3581 -1.268047,-0.7197 -0.03199,-0.084 -0.06461,-0.1734 -0.10281,-0.2569 -0.07351,-0.4377 -0.120226,-0.8067 0.376988,-1.4052 0.4065,-0.4892 0.514072,-0.7027 0.514072,-0.7027 -0.0955,-0.2418 -0.325579,-0.4797 -0.325579,-0.4797 0,0 -0.237833,-0.2304 -0.479803,-0.3255 0,0 -0.213143,0.089 -0.702563,0.4971 -0.598527,0.4971 -0.967258,0.4673 -1.405132,0.3938 -0.08342,-0.037 -0.171478,-0.071 -0.257036,-0.1032 -0.361593,-0.2575 -0.648069,-0.4931 -0.719703,-1.2681 -0.0586,-0.6334 -0.13708,-0.8569 -0.13708,-0.8569 -0.238604,-0.1045 -0.565479,-0.1032 -0.565479,-0.1032 z m 0,3.2044 c 0.721966,0 1.436886,0.2887 1.987748,0.8396 1.101719,1.1018 1.1017,2.8739 0,3.9755 -1.101726,1.1017 -2.87378,1.1017 -3.975494,0 -1.101726,-1.1016 -1.101721,-2.8737 0,-3.9755 0.55085,-0.5509 1.26578,-0.8396 1.987746,-0.8396 z"
       id="path3916" />
    <path
       id="path3854"
       d="m 17.039372,1008.9181 c 0.04875,0 -0.09006,0.024 -0.13708,0.051 -0.167213,0.093 -0.229772,0.2956 -0.137081,0.4628 l 1.645032,2.9644 c -3.168285,1.6486 -5.307792,4.7841 -5.312081,8.3794 l 20.854204,0 c -0.0043,-3.5953 -2.143797,-6.7308 -5.312084,-8.3794 l 1.645034,-2.9644 c 0.09267,-0.1672 0.04726,-0.3699 -0.119945,-0.4628 -0.06271,-0.036 -0.142381,-0.056 -0.205631,-0.051 -0.105412,0.015 -0.199107,0.085 -0.257035,0.1884 l -1.662168,2.9986 c -1.364693,-0.6052 -2.891405,-0.9424 -4.506699,-0.9424 -1.615299,0 -3.15915,0.3372 -4.523837,0.9424 l -1.662167,-2.9986 c -0.05793,-0.1045 -0.151612,-0.1803 -0.257038,-0.1884 -0.0158,0 -0.03524,0 -0.0514,0 z m 1.833528,6.3744 c 0.45426,0 0.822512,0.3683 0.822512,0.8225 0,0.4544 -0.368252,0.8226 -0.822512,0.8226 -0.454268,0 -0.822518,-0.3682 -0.822518,-0.8226 0,-0.4542 0.36825,-0.8225 0.822518,-0.8225 z m 9.321843,0 c 0.454264,0 0.822512,0.3683 0.822512,0.8225 0,0.4544 -0.368248,0.8226 -0.822512,0.8226 -0.454266,0 -0.822517,-0.3682 -0.822517,-0.8226 0,-0.4542 0.368251,-0.8225 0.822517,-0.8225 z m -18.3695205,6.0319 c -1.215128,0 -2.1933743,0.9783 -2.1933743,2.1933 l 0,10.4184 c 0,1.2153 0.9782463,2.1936 2.1933743,2.1936 1.2151315,0 2.1933745,-0.9783 2.1933745,-2.1936 l 0,-10.4184 c 0,-1.215 -0.978243,-2.1933 -2.1933745,-2.1933 z m 27.4171945,0 c -1.215132,0 -2.193376,0.9783 -2.193376,2.1933 l 0,10.4184 c 0,1.2153 0.978244,2.1936 2.193376,2.1936 1.215127,0 2.193373,-0.9783 2.193373,-2.1936 l 0,-10.4184 c 0,-1.215 -0.978246,-2.1933 -2.193373,-2.1933 z m -24.12713,0.5482 0,15.3537 c 0,0 0,2.1933 2.193375,2.1933 l 1.64503,0 0,5.4835 c 0,1.3018 0.891564,2.1935 2.193379,2.1935 1.301809,0 2.193373,-0.8917 2.193373,-2.1935 l 0,-5.4835 4.386749,0 0,5.4835 c 0,1.3018 0.891567,2.1935 2.193377,2.1935 1.301809,0 2.193376,-0.8917 2.193376,-2.1935 l 0,-5.4835 1.645031,0 c 2.193378,0 2.193378,-2.1933 2.193378,-2.1933 l 0.01712,-15.3537 -20.854202,0 z m 1.627895,1.6451 1.096689,0 15.353626,0 1.096688,0 0,1.0967 0,3.29 0,8.7735 c 0,0.6076 -0.489123,1.0968 -1.096688,1.0968 l -15.353626,0 c -0.607567,0 -1.096689,-0.4892 -1.096689,-1.0968 l 0,-8.7735 0,-3.29 0,-1.0967 z m 8.773501,1.0967 c 0,0 -0.327054,0 -0.56548,0.1032 0,0 -0.07864,0.2235 -0.137081,0.8569 -0.07161,0.7748 -0.358264,1.0104 -0.719704,1.2681 -0.08547,0.033 -0.173324,0.065 -0.257034,0.1032 -0.437842,0.075 -0.806583,0.1211 -1.40513,-0.3768 -0.489241,-0.4067 -0.70257,-0.5141 -0.70257,-0.5141 -0.241504,0.094 -0.479799,0.3255 -0.479799,0.3255 0,0 -0.230353,0.2378 -0.325578,0.4797 0,0 0.107604,0.2136 0.514073,0.7027 0.497249,0.5985 0.450343,0.9674 0.376985,1.4052 -0.0379,0.084 -0.0707,0.1716 -0.102811,0.2569 -0.257453,0.3617 -0.493248,0.6482 -1.268046,0.7197 -0.633369,0.057 -0.856787,0.1369 -0.856787,0.1369 -0.103627,0.2388 -0.102811,0.5656 -0.102811,0.5656 0,0 -9.19e-4,0.327 0.102811,0.5654 0,0 0.223291,0.079 0.856787,0.1369 0.774777,0.071 1.010214,0.3585 1.268046,0.7197 0.03209,0.084 0.06489,0.1735 0.102811,0.2572 0.07369,0.4378 0.120213,0.8066 -0.376985,1.405 -0.406481,0.4894 -0.514073,0.7026 -0.514073,0.7026 0.09558,0.2421 0.325578,0.48 0.325578,0.48 0,0 0.237857,0.2302 0.479799,0.3255 0,0 0.213359,-0.1071 0.70257,-0.5141 0.598572,-0.4973 0.967379,-0.45 1.40513,-0.377 0.08376,0.037 0.171505,0.071 0.257034,0.1033 0.361694,0.2574 0.647991,0.4931 0.719704,1.268 0.05851,0.6334 0.137081,0.8568 0.137081,0.8568 0.238709,0.1045 0.56548,0.1033 0.56548,0.1033 0,0 0.327182,0 0.565479,-0.1033 0,0 0.07874,-0.2231 0.13708,-0.8568 0.07171,-0.7749 0.358597,-1.0102 0.719703,-1.268 0.0855,-0.033 0.173386,-0.065 0.257036,-0.1033 0.437795,-0.075 0.806575,-0.1211 1.405132,0.377 0.489231,0.4065 0.702563,0.5141 0.702563,0.5141 0.242052,-0.094 0.479803,-0.3255 0.479803,-0.3255 0,0 0.230409,-0.2382 0.325579,-0.48 0,0 -0.107222,-0.2132 -0.514072,-0.7026 -0.497251,-0.5984 -0.450168,-0.9675 -0.376988,-1.405 0.03801,-0.085 0.07089,-0.1715 0.10281,-0.2572 0.257505,-0.3617 0.493243,-0.6478 1.268047,-0.7197 0.633461,-0.057 0.856787,-0.1369 0.856787,-0.1369 0.10341,-0.2385 0.10281,-0.5654 0.10281,-0.5654 0,0 10e-4,-0.3269 -0.10281,-0.5656 0,0 -0.223252,-0.079 -0.856787,-0.1369 -0.774848,-0.071 -1.010275,-0.3581 -1.268047,-0.7197 -0.03199,-0.084 -0.06461,-0.1734 -0.10281,-0.2569 -0.07351,-0.4377 -0.120226,-0.8067 0.376988,-1.4052 0.4065,-0.4892 0.514072,-0.7027 0.514072,-0.7027 -0.0955,-0.2418 -0.325579,-0.4797 -0.325579,-0.4797 0,0 -0.237833,-0.2304 -0.479803,-0.3255 0,0 -0.213143,0.089 -0.702563,0.4971 -0.598527,0.4971 -0.967258,0.4673 -1.405132,0.3938 -0.08342,-0.037 -0.171478,-0.071 -0.257036,-0.1032 -0.361593,-0.2575 -0.648069,-0.4931 -0.719703,-1.2681 -0.0586,-0.6334 -0.13708,-0.8569 -0.13708,-0.8569 -0.238604,-0.1045 -0.565479,-0.1032 -0.565479,-0.1032 z m 0,3.2044 c 0.721966,0 1.436886,0.2887 1.987748,0.8396 1.101719,1.1018 1.1017,2.8739 0,3.9755 -1.101726,1.1017 -2.87378,1.1017 -3.975494,0 -1.101726,-1.1016 -1.101721,-2.8737 0,-3.9755 0.55085,-0.5509 1.26578,-0.8396 1.987746,-0.8396 z"
       style="fill:#27ae60;stroke:none;display:inline;enable-background:new;fill-opacity:1"
       inkscape:connector-curvature="0" />
  </g>
</svg>
