<?xml version="1.0" encoding="UTF-8" standalone="no"?>
<svg
   xmlns:dc="http://purl.org/dc/elements/1.1/"
   xmlns:cc="http://creativecommons.org/ns#"
   xmlns:rdf="http://www.w3.org/1999/02/22-rdf-syntax-ns#"
   xmlns:svg="http://www.w3.org/2000/svg"
   xmlns="http://www.w3.org/2000/svg"
   xmlns:xlink="http://www.w3.org/1999/xlink"
   xmlns:sodipodi="http://sodipodi.sourceforge.net/DTD/sodipodi-0.dtd"
   xmlns:inkscape="http://www.inkscape.org/namespaces/inkscape"
   width="48"
   viewBox="0 0 13.546667 13.546667"
   height="48"
   id="svg2"
   version="1.1"
   inkscape:version="0.48.4 r9939"
   sodipodi:docname="apache-directory-studio.svg">
  <metadata
     id="metadata60">
    <rdf:RDF>
      <cc:Work
         rdf:about="">
        <dc:format>image/svg+xml</dc:format>
        <dc:type
           rdf:resource="http://purl.org/dc/dcmitype/StillImage" />
        <dc:title />
      </cc:Work>
    </rdf:RDF>
  </metadata>
  <sodipodi:namedview
     pagecolor="#ffffff"
     bordercolor="#666666"
     borderopacity="1"
     objecttolerance="10"
     gridtolerance="10"
     guidetolerance="10"
     inkscape:pageopacity="0"
     inkscape:pageshadow="2"
     inkscape:window-width="1396"
     inkscape:window-height="817"
     id="namedview58"
     showgrid="false"
     inkscape:zoom="4.9166667"
     inkscape:cx="-34.422532"
     inkscape:cy="28.183928"
     inkscape:window-x="3131"
     inkscape:window-y="1234"
     inkscape:window-maximized="0"
     inkscape:current-layer="svg2" />
  <defs
     id="defs4">
    <linearGradient
       id="linearGradient4460">
      <stop
         offset="0"
         style="stop-color:#d38678"
         id="stop7" />
      <stop
         offset="1"
         style="stop-color:#d9b7a7"
         id="stop9" />
    </linearGradient>
    <linearGradient
       gradientTransform="matrix(1.10525 0 0 1.10525 -134.27873 -295.76212)"
       xlink:href="#linearGradient4460"
       id="linearGradient3806"
       y1="279.096"
       y2="268.33"
       gradientUnits="userSpaceOnUse"
       x2="0" />
  </defs>
  <rect
     style="fill:#2980b9;fill-opacity:1"
     id="rect3087"
     width="10.676611"
     height="10.676611"
     x="1.5498306"
     y="1.3202261" />
  <g
     transform="matrix(0.02417236,0,0,0.02417236,-0.75984994,-0.5319616)"
     id="g123"
     style="fill:#ffffff">
    <title
       id="title125">Layer 1</title>
    <g
       id="svg_117"
       style="fill:#ffffff">
      <path
         style="fill:#ffffff;fill-rule:evenodd"
         inkscape:connector-curvature="0"
         id="svg_118"
         d="m 283.35998,144.425 c 0.83301,-0.06 0.98002,0.568 1.85804,0.46401 -1.33002,1.45799 -2.50501,3.06999 -4.64603,3.71599 0.18301,-2.141 2.45801,-2.18801 2.78799,-4.18 z"
         clip-rule="evenodd" />
      <path
         style="fill:#ffffff;fill-rule:evenodd"
         inkscape:connector-curvature="0"
         id="svg_119"
         d="m 439.453,161.61301 c -3.93399,1.02099 -8.67801,1.233 -12.543,2.323 0.94501,-3.189 5.48401,-2.29601 8.362,-2.323 1.55201,-0.014 2.82099,-0.85001 4.181,0 z"
         clip-rule="evenodd" />
      <path
         style="fill:#ffffff;fill-rule:evenodd"
         inkscape:connector-curvature="0"
         id="svg_120"
         d="m 439.91699,162.54199 c 1.051,-0.86899 4.95001,-0.634 6.04001,0 -1.586,1.405 -3.98599,-0.32999 -6.04001,0 z"
         clip-rule="evenodd" />
      <path
         style="fill:#ffffff;fill-rule:evenodd"
         inkscape:connector-curvature="0"
         id="svg_121"
         d="m 424.12299,163.007 c 0.57199,0.20299 0.953,0.59499 0.92999,1.394 -9.11398,3.73999 -17.836,7.871 -19.513,19.048 -0.41299,-0.207 -0.82999,-0.408 -0.92899,-0.92901 -6.52401,8.341 -9.46402,20.26701 -13.47299,31.125 0.16498,0.61001 0.81799,0.73001 0.92999,1.39401 10.64502,-2.827 26.542,-1.13299 34.37699,-7.897 1.44501,1.778 -3.039,1.58801 -2.78699,3.716 -0.21499,1.455 0.40399,2.07401 1.858,1.858 -1.126,1.32199 -2.656,-0.46301 -4.181,-0.46499 -3.64502,-0.003 -8.918,2.858 -14.402,3.25198 -2.18702,0.15701 -4.49799,-0.22598 -6.504,0 -4.71201,0.53101 -8.065,3.39601 -11.14801,4.18102 -0.27402,-1.66701 0.54001,-2.24701 0.92898,-3.252 0.19904,-0.74901 -1.73199,-1.55901 -1.85797,-0.46401 0.32001,-3.018 0.89698,-6.024 1.85797,-8.82699 1.82102,-5.31301 5.00803,-9.73299 7.43302,-15.33101 0.30301,-0.69901 1.11099,-1.094 1.39401,-1.85801 0.23498,-0.63499 -0.27301,-1.703 0,-2.32299 2.018,-4.57001 5.87598,-8.43799 7.89697,-13.00699 5.27805,-4.323 9.70905,-9.49402 17.18903,-11.61501 z"
         clip-rule="evenodd" />
      <path
         style="fill:#ffffff;fill-rule:evenodd"
         inkscape:connector-curvature="0"
         id="svg_122"
         d="m 185.338,179.267 c 1.483,0.52899 2.17601,1.85 2.323,3.716 -1.178,-0.836 -1.74599,-2.28 -2.323,-3.716 z"
         clip-rule="evenodd" />
      <path
         style="fill:#ffffff;fill-rule:evenodd"
         inkscape:connector-curvature="0"
         id="svg_123"
         d="m 409.72101,285.651 c 2.81198,1.67999 4.66498,4.31702 8.36099,5.10999 -3.526,1.14801 -8.358,-2.71698 -8.36099,-5.10999 z"
         clip-rule="evenodd" />
      <path
         style="fill:#ffffff;fill-rule:evenodd"
         inkscape:connector-curvature="0"
         id="svg_124"
         d="m 294.04498,189.952 c 0.11701,-0.53299 2.46002,0.59899 2.78803,1.39401 -10e-4,2.47699 -2.39301,2.56299 -3.25202,4.181 -3.63699,5.97799 -3.901,14.776 -0.46499,22.76399 1.422,3.306 4.07602,6.69 6.04001,10.685 3.67798,7.483 6.77698,16.039 11.61401,22.29899 1.76599,0.373 0.59097,-2.19699 0.92899,-3.252 1.49698,-2.68499 2.76199,-5.60099 3.25198,-9.29199 2.01401,-0.77301 2.54303,-3.031 3.25202,-5.11 3.75,-2.909 6.41998,-6.897 9.75598,-10.22 -0.039,-0.735 0.22302,-1.772 -0.46497,-1.858 1.013,-0.536 1.69098,-1.40601 2.78699,-1.858 -0.64801,-2.50299 1.651,-4.22 1.858,-5.575 0.53,-3.46199 -0.71799,-7.649 -2.32303,-10.685 C 325.25,194.787 316.785,185.64999 314.022,176.94501 c -0.21798,-5.638 0.917,-9.50202 1.85801,-15.79502 2.55798,-3.48099 5.22497,-6.85399 9.29199,-8.82699 -2.12,6.01599 -6.40799,9.384 -6.03998,16.259 0.25897,4.83301 2.75098,8.45099 3.71698,13.00801 4.89999,7.64299 11.31702,13.769 16.259,21.37 1.74399,-2.96199 1.164,-6.53301 1.39499,-10.21999 0.797,-12.76102 1.27301,-28.75201 -3.25198,-38.55901 0.91699,-3.71501 -2.50202,-4.479 -1.39499,-6.96901 -5.61701,-8.73098 -8.91202,-18.397 -7.896,-28.80199 0.73297,-7.52 3.54999,-12.722 7.43299,-17.654 2.07098,-2.630003 4.54797,-5.657003 5.57501,-9.756002 3.49399,2.326004 -0.91202,4.910004 -0.93003,7.897003 -6.20901,3.545999 -5.37899,14.132999 -7.43301,21.834999 1.35703,2.066 0.54602,4.458 0.92902,6.504 2.01001,10.75801 9.70501,17.488 11.61401,28.33799 1.82501,-0.34298 2.21399,-2.12298 2.323,-4.181 2.20199,-1.97799 3.87799,-4.483 5.10998,-7.43299 3.25602,-3.24801 7.23301,-5.77401 9.75602,-9.75499 4.14099,-1.35901 9.665,-5.96001 15.32998,-6.96801 4.672,-0.832 10.98603,-0.568 12.07801,5.11 -2.57099,1.042 -6.469,-0.246 -8.361,-1.39401 -6.60598,1.96201 -13.78299,4.75501 -18.11801,10.22 3.73603,0.63001 8.625,1.72202 12.54303,0.46401 -0.88501,2.996 -4.526,4.82899 -6.50403,5.11 -1.58599,0.226 -2.97399,-1.14 -5.57397,-0.929 -7.81104,0.632 -13.48502,11.87001 -14.40204,19.976 -0.38696,3.42401 0.18802,7.302 0.46503,10.686 0.78998,9.603 -0.74301,24.44501 -3.71701,33.913 -0.414,1.319 -1.45499,2.483 -1.857,3.716 -1.79202,5.48801 -3.58798,10.907 -6.504,15.795 -4.983,8.35299 -13.86102,14.38501 -13.47302,24.62199 1.87903,-0.44397 2.48502,-2.15999 3.25202,-3.71599 4.987,-1.517 6.846,-6.16202 13.00799,-6.50401 10.03003,-6.086 18.65399,-5.52499 26.01599,-9.756 2.90702,-1.67099 4.53003,-4.836 7.43302,-6.96798 1.768,-1.29801 3.61502,-1.44101 5.11001,-3.252 6.80298,-8.24301 8.508,-18.62003 13.93698,-29.73102 1.30503,-2.67 3.32999,-5.206 4.64603,-7.897 2.66098,-5.447 4.13898,-9.306 7.89697,-13.473 5.73301,-6.354 13.034,-10.82199 23.69202,-13.472 2.34299,-0.582 7.69299,-1.022 12.07898,-0.464 2.401,0.306 3.534,1.604 6.50501,1.858 3.26602,0.27899 5.431,-0.815 7.43301,-0.929 0.56198,2.267 -1.05002,2.358 -1.39502,3.716 -11.08798,1.342 -22.052,-0.28401 -31.125,3.252 -3.04099,1.185 -6.43799,3.685 -8.82599,5.575 -2.017,1.597 -4.18802,3.711 -5.11099,6.039 6.09399,-2.733 13.005,4.093 18.582,1.858 -0.142,2.336 -1.90601,3.047 -3.25101,4.18201 -6.815,-1.40001 -15.004,-3.282 -19.51199,1.394 -2.05502,3.27 -4.45999,7.72 -6.039,12.07901 -1.60501,4.42599 -2.884,8.88299 -4.18201,13.93699 9.09,-0.891 20.90601,-0.77699 28.80402,-5.11 1.54699,-0.849 3.03198,-2.366 4.64599,-3.71701 1.53098,-1.284 3.36399,-2.138 4.646,-3.25099 1.73801,-1.513 3.36999,-4.54201 5.574,-6.03999 1.723,-1.17002 5.10801,-3.42801 7.43399,0 -0.49398,1.67399 -3.53299,0.80299 -4.182,2.32299 -4.194,5.40601 -8.37,10.831 -15.32999,13.47199 2.918,4.75801 11.991,4.08301 14.866,0.92901 0.156,3.56299 -2.83402,3.98099 -4.18201,6.03901 -4.85901,0.70999 -9.66598,0.55699 -12.543,-1.85801 -2.88699,0.439 -7.77499,-0.58401 -9.75601,1.85801 -4.33099,0.24198 -10.095,0.48799 -13.93799,1.39398 -13.08999,3.087 -16.67801,17.488 -26.94299,24.15701 5.12601,2.70799 10.98099,3.368 15.79501,6.03999 2.40598,1.33501 3.80399,4.39601 6.96799,4.181 2.92898,3.88503 6.53897,5.71001 11.61398,7.89699 2.72901,1.17502 6.47202,2.98303 10.68601,3.25104 4.229,0.26898 9.78601,-0.33502 14.39999,-1.39404 0.97101,-0.22199 1.83102,-1.07996 2.78702,-1.39399 1.86301,-0.61099 3.92599,-0.32098 5.57498,-0.92901 3.72302,-1.37299 6.43201,-4.521 9.75601,-6.039 1.38199,-0.63198 3.24701,-0.84098 4.646,-1.39398 3.345,-1.323 8.93802,-3.38601 13.47299,-4.181 2.233,-0.392 4.23401,-0.60401 6.504,-0.465 5.28302,0.32201 11.63101,3.537 9.755,8.827 -1.565,-0.60202 -1.531,-2.80399 -3.25097,-3.252 -8.02103,-1.69501 -18.30201,1.91099 -26.01502,6.03999 -0.768,0.41101 -2.42001,0.755 -3.25299,1.39398 -0.953,0.72901 -2.228,3.30603 -2.323,2.323 0.094,0.97101 7.96601,4.36401 9.29199,5.57501 1.89399,1.73001 2.51099,4.41001 3.71701,6.96802 0.91599,1.94397 2.82099,2.18201 3.25098,4.646 -5.99798,2.37097 -6.39499,-3.79001 -8.362,-6.03901 -0.55697,-0.638 -2.185,-1.488 -3.25098,-2.32299 C 452.577,270.08899 448.561,268.5 443.172,269.39502 c -2.15698,0.35797 -3.914,1.74896 -6.038,2.323 -10.057,2.71496 -22.23999,2.63498 -31.126,-0.93003 -0.93,9 5.78802,14.33103 11.61401,18.11802 2.58099,0.41299 3.44299,-0.89301 5.57498,-0.93 -0.036,5.04798 -5.60498,5.758 -10.22098,4.18201 -1.01599,-0.34702 -0.72399,-0.54202 -1.85803,-1.39401 -2.39099,-1.793 -3.73898,-2.83301 -6.039,-5.57501 -0.58398,-0.69498 -1.19998,-1.439 -1.85797,-2.322 -0.46899,-0.63 -1.59003,-1.39898 -1.858,-1.858 -1.914,-3.26901 -2.15,-7.565 -4.181,-11.14901 -0.41501,-0.732 -1.47901,-1.26197 -2.323,-2.323 -2.297,-2.88999 -2.80301,-3.63397 -6.50403,-6.50397 -2.65796,-2.06201 -4.65497,-4.58002 -7.89697,-5.57501 -3.04303,-0.93402 -8.237,-1.15201 -12.078,-1.39401 -11.82099,-0.743 -19.32401,2.151 -27.87403,6.50399 -1.776,2.86301 -5.35598,3.943 -7.43396,6.503 -1.24603,1.53601 -1.24402,3.74499 -3.25201,4.64599 -7.86102,22.22901 -11.776,49.50403 -13.93601,76.18802 -0.806,9.95602 -0.78701,19.71903 0,28.80301 0.94999,10.97101 4.69199,26.25201 10.22001,37.164 1.01699,2.008 1.83099,4.15201 2.78698,6.04001 4.71503,9.30798 8.91501,17.18298 15.79502,24.15698 3.444,0.11701 5.509,1.61502 7.43399,3.25101 3.05102,-0.38199 4.64898,1.38901 7.43298,1.858 8.48004,1.43399 18.11304,-3.46899 26.01602,-4.181 4.982,-0.449 13.267,0.16602 13.008,5.57501 -2.88901,-0.33902 -6.35001,-1.34802 -9.75602,-0.93002 -7.52798,0.923 -14.98898,6.48901 -21.83398,6.039 1.63001,2.81802 5.319,2.77002 7.897,4.18201 2.478,1.35699 4.38901,3.93399 7.43302,4.17999 2.67798,3.67102 7.22497,5.474 8.82599,10.22202 -0.90802,2.18798 0.046,6.238 -1.39402,7.897 -2.84097,-2.11502 -3.363,-6.547 -6.03897,-8.827 -8.21203,-4.33001 -15.328,-9.75802 -26.94403,-10.685 -8.03998,-5.32 -19.81097,-8.665 -27.40899,-15.33102 -2.27198,-1.99298 -3.44599,-4.358 -6.03998,-6.039 0.50799,6.41901 -4.94403,15.15701 -3.25202,21.37003 0.848,3.10797 4.10901,3.75598 6.504,6.03799 6.508,0.44098 10.34799,-2.56702 16.72501,-0.92902 1.16998,1.77301 2.78799,3.09803 2.78698,6.04001 -1.67901,1.44699 -1.32598,-2.112 -3.25201,-1.858 -7.02997,-1.51099 -12.896,3.495 -20.43997,1.39401 3.06497,3.74399 9.29599,10.64398 10.22098,17.18799 0.32299,2.29099 0.716,7.24799 -2.323,8.362 -2.28198,-0.293 0.24301,-2.50601 -0.46497,-4.181 -4.307,-12.716 -18.73901,-19.18399 -20.44,-34.37799 -0.77103,-6.88702 1.04498,-12.35901 0.92899,-20.90402 -3.50302,2.50201 -3.61502,5.09601 -6.504,7.43301 -1.52301,1.232 -4.31799,2.42301 -6.96802,3.71701 -4.74597,2.31299 -9.534,4.42398 -15.79599,6.50299 -4.75299,1.57901 -8.53201,2.07001 -10.22,5.57502 1.13501,3.28598 -1.22699,6.05099 -1.858,8.362 -0.34299,1.25399 0.27099,2.92999 0,4.18197 -0.86899,3.99701 -4.431,6.81702 -7.43302,4.18002 0.11103,-1.59201 2.48102,-0.92501 2.78803,-2.32202 0.034,-6.712 0.20099,-10.711 0,-17.18798 -8.966,-0.641 -13.43801,8.27099 -19.51201,13.93698 -1.68199,1.56802 -6.562,5.59903 -8.827,6.50402 -3.38301,1.35099 -11.308,2.58399 -14.86601,-0.93002 -0.34999,-2.354 1.77402,0.99802 1.858,-0.46399 10.85602,-0.88699 15.655,-10.505 22.763,-17.18799 5.26901,-4.95501 13.64701,-9.436 22.29901,-11.61502 2.857,-0.71899 5.92701,-0.64499 8.827,-1.393 4.23901,-1.09598 8.14398,-3.07498 12.543,-4.646 3.77798,-2.56997 5.84399,-6.854 8.82699,-10.22098 0.75101,-5.57299 0.96302,-10.65701 0,-16.26001 -0.90799,-5.27899 -3.39398,-10.444 -4.181,-15.33099 -0.75997,-4.72302 -0.987,-9.83902 -1.39401,-14.866 -1.82696,-22.578 2.35401,-46.84701 3.71601,-66.432 0.22302,-3.211 -0.16999,-6.543 0.46502,-9.29099 0.25699,-1.11502 1.19,-2.12903 1.39398,-3.25201 1.862,-10.27503 2.245,-19.65702 3.71601,-28.80301 -0.74701,-9.638 -4.35401,-17.55301 -9.75501,-24.62198 -1.57,-2.05502 -2.94699,-4.59702 -4.181,-5.57501 -7.155,-5.67201 -22.18298,-5.02301 -32.51999,-3.71701 -7.51501,0.95001 -14.41101,3.88701 -21.36999,7.433 -9.453,4.817 -14.80002,6.60301 -19.97701,13.93702 -5.063,7.17298 -6.235,17.31897 -12.543,23.693 -1.781,1.79898 -8.362,6.086 -10.68501,6.50396 -2.09698,0.37702 -5.59599,0.10602 -7.433,-1.85797 0.78401,-1.78601 3.209,-0.17602 5.575,-0.92999 2.01401,-0.64102 7.70901,-5.11902 9.29199,-7.43301 3.80402,-5.56302 4.93602,-13.931 8.36202,-19.51102 -8.239,1.67901 -17.583,4.37103 -26.944,1.85803 -8.405,-2.255 -11.631,-8.53802 -17.18801,-13.47201 -1.90199,-1.68802 -4.25499,-1.96901 -5.57499,-4.181 1.81401,-2.39801 4.205,-0.2 5.57499,0.46398 4.34101,2.10602 8.862,6.70899 12.543,9.75602 4.12001,0.47598 8.067,2.68899 12.543,2.78701 6.21901,0.13697 12.07501,-3.13403 16.724,-3.716 10.02701,-6.388 20.57101,-12.25803 31.12601,-18.11803 -1.305,-2.50898 -4.689,-1.58899 -6.504,-2.32299 -0.37399,-0.15101 -0.80301,-1.088 -1.394,-1.394 -1.25,-0.64501 -3.56001,-0.99498 -4.181,-2.787 -13.54201,-3.493 -21.44099,-12.627 -28.338,-22.76299 0.64299,-3.43201 -1.742,-4.949 -2.78801,-7.43301 -2.416,-5.737 -3.46499,-14.48099 -5.57499,-19.976 -1.681,-4.37999 -3.596,-8.86501 -8.362,-9.75499 3.35098,-5.07501 9.688,1.40399 11.149,4.17999 0.619,1.177 0.76799,2.78 1.394,4.18201 1.18899,2.66299 2.83099,5.00299 4.181,8.82699 1.80798,5.12 2.45401,12.312 6.50399,15.795 0.18801,-4.373 2.26001,-7.46899 3.71601,-10.68501 0.524,-1.15599 0.40399,-2.75598 0.929,-3.71599 1.229,-2.24501 3.546,-3.929 4.181,-6.504 0.621,-2.51298 -0.823,-4.714 0.929,-6.96901 4.65601,3.83103 1.77098,8.08002 0.46498,12.07901 -0.569,1.74201 -0.42099,3.654 -0.92899,5.10999 -0.72,2.06302 -2.41099,3.63602 -2.78799,5.57501 -0.28801,1.487 -0.10301,4.521 0,6.504 0.28999,5.53601 2.985,10.278 6.504,13.008 1.27699,0.99 3.636,1.445 6.039,2.787 1.731,0.96701 3.20601,2.459 5.11101,3.252 4.60699,1.917 10.70599,4.06801 15.79498,4.64601 16.06299,1.82399 34.07202,-3.095 47.38599,1.394 -1.86597,-6.40902 -5.52198,-11.23101 -9.292,-16.25901 -3.11798,-4.16 -5.09597,-6.83 -9.75598,-9.75601 -0.79498,-0.5 -1.96399,-0.82898 -2.78698,-1.39398 -0.77701,-0.53301 -1.18601,-1.90302 -1.85801,-2.323 -1.5,-0.93802 -3.13003,-1.41202 -4.64599,-2.32301 -1.35401,-0.814 -2.67502,-1.66899 -4.18103,-2.78798 -2.45999,-1.82703 -5.65698,-3.46701 -7.89697,-5.57501 -1.73801,-1.63401 -2.70002,-4.07799 -4.18102,-5.57401 -1.229,-1.24299 -2.972,-1.991 -4.181,-3.252 -2.854,-2.97398 -4.205,-6.88899 -7.433,-10.22 -0.854,-6.23799 -3.87802,-11.29799 -5.11,-16.72499 -0.75801,-3.33801 -0.33702,-6.68901 -1.858,-9.755 -2.86299,-5.767 -11.50902,-9.36001 -13.47301,-17.189 -0.81299,-3.242 -0.64299,-6.854 0,-11.614 2.76001,2.71599 1.944,6.596 3.252,9.756 1.015,2.452 3.01701,4.312 5.11,6.039 2.194,1.81 4.95302,5.14099 8.36301,5.575 1.776,-6.80901 6.20999,-15.11202 6.968,-23.69301 0.37199,-4.20599 -0.575,-9.618 -1.394,-13.008 2.53299,2.49901 4.12099,7.95 4.646,12.07901 1.52701,12.02799 -6.478,23.41999 -5.11,35.771 0.42198,3.815 1.82498,8.993 2.787,13.008 1.29097,5.38598 6.17099,9.83898 9.29097,13.93699 1.68602,-1.81599 0.87201,-3.47999 1.39403,-5.10899 1.36,-4.24901 4.11499,-7.34401 6.968,-10.68601 2.69899,-3.16101 5.243,-6.95599 8.36202,-9.291 4.89599,-3.666 11.238,-6.198 16.724,-9.75599 1.74899,-1.13401 4.022,-1.877 5.11099,-3.252 2.052,-2.59201 1.354,-6.312 2.32202,-9.291 2.23199,1.67898 3.51797,7.09399 1.85898,10.68499 -1.861,4.027 -7.27701,6.236 -11.61499,8.827 -2.18302,1.30499 -4.61301,3.284 -6.96802,5.11 -4.646,3.60401 -7.896,7.68199 -12.07901,11.149 -2.71898,6.103 -5.96999,14.284 -0.92899,20.44101 1.124,1.37299 2.97602,1.91999 5.11002,3.25199 3.349,2.08999 6.22598,3.992 10.21997,6.50401 4.20502,2.644 7.14203,4.911 10.68503,8.362 1.40899,-1.972 0.92898,-4.81001 1.858,-6.968 0.52499,-1.21898 2.96197,-5.15601 4.18201,-6.504 1.40698,-1.56502 5.00897,-2.71301 4.63995,-4.18402 z M 342.824,152.32199 c -2.13799,-1.73298 -2.612,-5.12999 -4.64599,-6.96799 0.026,-0.594 0.59601,-0.64401 0.46499,-1.39401 -2.755,-4.52199 -6.67599,-11.47499 -7.43298,-19.047 -0.66803,-6.68199 1.45697,-14.12699 1.857,-18.11799 -1.10602,1.062 -1.08802,3.247 -2.32202,4.182 0.479,1.927 -0.051,3.833 -0.93,5.575 1.22803,5.394 0.44702,11.50501 1.85901,16.724 2.039,7.54199 6.76001,12.954 8.82599,19.511 0.90201,2.86299 1.32202,6.62801 1.857,10.22 0.57403,3.84801 1.32,8.135 1.39502,12.079 0.10199,5.436 0.39001,11.21899 -0.46503,18.58301 -0.60498,5.216 -2.70496,18.569 -7.89697,14.401 0.82299,-0.72601 2.47601,-0.62201 1.858,-2.78801 -6.59403,-13.07201 -19.60901,-19.724 -20.44004,-38.55901 -1.85296,12.42601 5.28202,19.56801 9.75501,26.01601 3.49304,5.033 9.08102,11.737 8.82703,19.511 -0.50101,15.386 -18.37104,23.825 -20.90503,36.701 -0.612,3.111 1.28003,7.084 -2.323,7.89702 -3.01398,-1.78702 -5.11597,-4.48501 -6.039,-8.36203 -1.901,-1.66398 -3.72797,-4.336 -5.10999,-6.96899 -0.74402,-1.416 -0.67798,-3.105 -1.39398,-4.646 -0.60501,-1.30099 -1.77801,-2.431 -2.323,-3.716 -0.37002,-0.871 -0.10101,-1.823 -0.46402,-2.788 -1.27902,-3.38501 -3.76901,-5.68 -5.11001,-7.897 -3.612,-5.968 -3.55201,-14.892 -2.78699,-23.228 -0.66,2.22501 -1.45898,3.978 -1.85901,6.03901 -0.61298,3.164 1.07501,6.93399 -1.85797,8.362 -2.58102,-1.91001 -4.52701,-4.45401 -6.50403,-6.969 -3.26898,-1.86001 -5.71499,-3.785 -8.82699,-5.57501 -0.715,-0.412 -1.10199,-1.362 -1.85801,-1.858 -6.82397,-4.47501 -15.20199,-6.73 -15.79498,-15.795 -1.09201,-16.67299 15.35199,-25.58 25.54999,-33.44899 -5.26401,2.368 -11.41998,5.06099 -15.79498,9.29099 -3.68403,3.56201 -9.54401,10.557 -11.14902,15.331 -1.034,3.073 0.23401,7.666 -3.252,9.756 -2.56,-2.075 -6.026,-4.26999 -8.362,-7.43399 -0.661,-0.89401 -0.722,-2.453 -1.394,-3.71701 -0.731,-1.37399 -1.92801,-2.06399 -2.323,-3.25101 -0.623,-1.87599 -0.498,-5.74798 -1.39401,-9.29199 -0.31799,-1.254 -1.10798,-2.071 -1.39398,-3.252 -1.18401,-4.899 -0.20001,-10.52 0,-13.007 0.14398,-1.80299 -0.27701,-3.453 0,-5.11 0.46399,-2.787 2.49699,-5.416 3.25099,-7.89699 0.25901,-0.852 0.007,-1.95801 0.465,-2.78702 -1.67101,1.29201 -2.037,3.77101 -2.78798,6.039 -1.38501,4.18601 -1.92502,9.05901 -4.18102,12.543 -1.32499,-0.68799 -0.828,-3.19899 -3.71699,-2.323 C 225.015,141.752 221.87,141.026 219.248,139.77701 c 2.54399,4.01399 7.33699,5.04399 9.291,10.22 1.62101,4.293 1.493,9.83299 2.78699,14.866 0.60701,2.362 2.00401,4.379 2.78801,6.504 0.252,0.68399 -0.231,1.63 0,2.32299 0.60701,1.82199 2.51801,2.64701 2.787,4.646 0.21201,0.36 0.92902,1.393 0.92902,1.393 2.23398,3.34 4.48398,6.665 8.362,8.36301 2.20297,3.70999 6.12099,6.00199 9.29199,8.362 2.85599,2.12599 5.22299,3.19998 8.362,5.10999 2.55399,1.554 5.056,3.48199 6.96799,5.11001 2,1.702 3.33499,2.69399 5.11001,4.181 2.491,2.08699 2.73899,3.71199 4.646,6.03899 1.26801,1.546 3.103,2.513 4.18201,4.181 1.354,2.09401 2.27698,5.504 3.716,7.897 0.961,1.601 2.367,2.33501 2.78796,3.717 0.56,1.83799 1.22202,5.766 -0.92898,6.968 -4.129,-1.64299 -11.91599,-3.32601 -17.65399,-3.252 -2.39902,0.031 -4.723,0.38 -6.504,0.464 -16.94,2.34 -28.853,1.642 -41.81,-4.64599 -0.367,-1.179 -1.625,1.30699 -2.32298,0 -0.39403,-1.31001 -1.59502,-1.81201 -2.32303,-2.787 -6.44499,-2.76201 -12.88899,-8.27401 -13.472,-16.724 -0.2,-2.896 -0.336,-7.11002 0,-9.75602 0.435,-3.41998 2.822,-5.82098 2.787,-8.82699 -2.692,4.91699 -5.367,11.91501 -5.11,18.11801 0.062,1.49298 2.21401,2.98199 0,4.181 -3.308,-1.52301 -4.23999,-6.543 -6.04001,-8.82701 -1.21998,-1.54799 -2.27199,-4.011 -2.78699,-6.039 -1.02301,-4.02901 -1.69198,-8.224 -3.25199,-11.614 -0.513,-1.11301 -1.73801,-2.216 -2.323,-3.252 -0.53501,-0.948 -0.25101,-2.97899 -1.858,-2.78801 3.88699,9.42601 5.83599,20.52402 10.22,28.80301 1.571,2.966 4.11499,5.116 5.11,8.362 7.14299,4.78101 12.41699,11.431 22.29899,13.472 0.241,1.15201 1.13201,1.655 1.85799,2.323 2.44702,0.185 4.42801,0.83702 5.57503,2.323 3.01999,0.078 5.487,0.70802 6.03898,3.25199 -3.17199,4.73501 -10.05398,6.87001 -16.26001,10.22103 -9.76399,5.27098 -17.87399,12.93098 -31.12597,13.93699 -7.28,0.55201 -12.62302,-1.20501 -17.653,-2.78802 -1.50103,-1.914 -4.17202,-5.11099 -6.04003,-5.10999 4.60903,6.14301 13.19901,10.01801 23.22801,9.75599 6.623,-0.17298 12.37999,-3.84998 17.653,-3.71698 0.329,4.50201 -2.446,8.95501 -4.181,13.00799 -1.87001,4.366 -3.18,8.85602 -6.039,12.078 8.83899,-7.41998 10.11,-22.40802 18.118,-30.66101 6.444,-3.56201 14.641,-7.91999 21.834,-11.14898 3.23302,-1.45201 6.66299,-3.21701 9.75603,-4.181 4.59898,-1.43401 9.52098,-1.164 14.86598,-1.39499 2.457,-0.10501 5.043,-0.85701 7.43298,-0.92902 5.64902,-0.16798 10.64603,1.972 16.26001,2.788 2.66898,3.731 6.86502,6.014 9.75501,9.75601 1.70797,2.20999 3.37197,5.33398 4.64599,8.362 1.27899,3.04101 3.16202,6.46899 3.716,9.29199 2.28,11.621 -1.64498,22.13098 -3.25198,33.448 -1.85202,13.03802 -3.51602,25.37701 -4.18103,39.02301 -0.526,10.798 -2.06201,18.711 -1.85797,28.33798 0.066,3.12802 0.73398,7.125 0.92899,9.29102 0.41897,4.66699 -0.32901,9.46099 0,13.93698 0.40597,5.52102 1.803,10.893 3.25198,16.26001 1.29901,4.81399 4.10803,14.501 2.78802,19.048 -1.51702,5.21701 -5.65402,11.66299 -8.362,13.47202 -2.06601,1.37899 -5.027,2.25198 -7.43301,3.25198 -4.50101,1.87201 -9.28702,3.29102 -13.008,4.181 -3.70501,0.888 -8.00698,0.81 -12.07901,2.323 -3.126,1.16299 -6.69999,2.92901 -9.29098,4.64599 -2.73502,1.81202 -4.32202,4.59201 -6.96802,6.96802 -1.03799,0.93198 -2.729,1.32099 -3.71699,2.323 -1.18001,1.198 -1.73,3.013 -2.78701,4.18201 -2.35199,2.59799 -5.36599,4.02099 -8.82699,6.96798 5.41501,0.16599 6.259,-2.50399 9.291,-5.10901 1.82499,-1.569 3.914,-2.37197 5.11,-3.716 0.731,-0.823 1.08499,-2.00799 1.858,-2.789 5.293,-5.34198 12.40698,-11.827 21.37,-10.22098 -2.215,4.54898 -1.68702,10.73798 -0.46399,15.79599 0.72699,-6.10199 0.11898,-11.953 4.181,-15.32998 3.173,-2.638 8.66699,-2.70102 13.00699,-4.18201 4.02899,-1.37399 8.656,-3.819 11.61499,-5.57501 4.47399,-2.655 7.962,-4.957 11.14901,-7.896 0.73899,-2.358 1.22898,-4.96701 3.71601,-5.574 3.13497,1.02099 1.746,4.63299 1.858,6.96701 0.30099,6.22299 -1.57703,12.70999 -0.92902,18.11898 1.72302,14.39402 11.875,19.12702 17.65302,28.80201 0.354,-5.61899 -4.14203,-6.38901 -5.11002,-10.68399 -2.936,-1.00202 -5.73001,-4.40302 -4.646,-7.89801 1.892,0.11502 3.181,1.53302 5.11002,1.858 3.83798,0.64599 6.37097,-0.818 10.21997,-1.39301 1.89401,-0.28299 3.80603,0.70502 5.11002,-0.931 -3.5,-1.569 -7.54001,1.586 -11.61301,1.39502 -5.10498,-0.24002 -10.60599,-3.992 -11.14999,-8.82699 -0.22901,-2.03403 0.58499,-4.98801 0.92898,-6.96802 0.82801,-4.78299 1.93402,-9.68201 2.32202,-15.331 -0.73498,-0.983 -1.832,-4.914 0,-5.57501 2.663,0.198 5.25501,4.29401 6.969,6.96903 8.073,6.85898 15.95898,13.99399 27.40899,16.25897 2.06299,2.39801 6.30301,3.60602 9.75599,3.25302 2.04901,1.203 3.81103,2.69299 7.43304,2.32199 3.46899,2.10599 6.34998,4.801 10.68597,6.04001 0.543,0.83298 1.646,2.19498 2.78699,3.25198 0.73502,0.68201 2.65302,3.07502 2.78702,1.39402 -0.20902,-2.39701 -2.73099,-3.79599 -4.181,-5.111 -1.73401,-1.57202 -3.461,-3.022 -5.10999,-4.64602 -3.88903,-0.29099 -6.38101,-1.97998 -8.362,-4.18 -4.60601,-0.194 -7.07299,-2.52697 -9.29101,-5.11099 1.90301,-0.67801 3.63501,-1.12201 5.57501,-1.393 9.755,-1.36301 17.16901,-3.99601 25.086,-6.04001 -3.15503,-0.39899 -4.99103,-0.89499 -7.43402,-0.46399 -9.05597,1.595 -15.93,5.28 -25.086,4.64599 -1.914,-0.134 -5.15,-0.72198 -7.43298,-1.39498 -0.62403,-0.18399 -1.11402,-1.09101 -1.85801,-1.39301 -1.04098,-0.422 -2.47201,-0.074 -3.25201,-0.466 -4.50198,-2.25598 -6.95902,-5.38901 -9.75601,-8.82498 -1.02298,-1.26001 -2.64298,-2.26603 -3.25199,-3.25303 -0.92801,-1.501 -1.242,-3.61898 -2.32199,-5.574 -1.69101,-3.05899 -3.66699,-5.685 -5.11102,-7.89697 -2.86597,-4.39701 -4.591,-8.68201 -5.57398,-13.93702 -3.875,-5.44101 -5.21899,-13.78799 -6.50402,-21.83499 -0.17499,-1.096 -0.79499,-2.14599 -0.92899,-3.25201 -1.95499,-16.20898 -0.57901,-29.34 0.92899,-44.59799 0.828,-8.37601 1.604,-18.51401 2.78802,-25.086 0.74399,-4.12698 0.267,-8.57498 0.92902,-12.54398 1.29397,-7.75302 3.75198,-16.31402 5.57397,-22.76403 1.18799,-4.198 2.68903,-6.95997 3.71701,-10.21998 3.357,-2.527 5.594,-6.17501 8.82599,-8.82702 3.50803,-1.60297 6.43302,-3.789 9.29099,-6.03996 8.60202,-2.26801 22.41601,-3.82802 31.591,-0.92902 1.75702,0.672 0.89203,-1.27699 2.323,-0.929 7.14703,4.92999 15.75403,8.40298 19.97601,16.259 1.31601,5.54099 4.052,13.14697 8.82703,16.72498 -2.18402,-5.25199 -6.71402,-10.62799 -6.04004,-17.18897 6.74902,2.71298 14.27502,4.33298 23.229,3.71601 8.41702,-0.58002 15.69202,-5.54902 22.30002,-4.64603 0.892,0.12201 1.91299,1.50101 3.25101,1.858 1.10199,0.293 2.24899,-0.267 2.78698,0 3.07599,1.52701 5.26001,5.13599 7.89801,7.43298 -1.37402,-7.763 -9.919,-8.354 -15.33102,-12.07898 8.79602,-7.23901 22.61401,-12.74998 34.84302,-12.54299 -16.88901,-4.273 -29.31201,6.95797 -41.34702,12.07901 -0.063,1.48498 0.73902,0.48098 -1.39499,0.46398 -8.05301,1.952 -16.44101,3.92902 -24.61999,2.323 -3.09403,-0.60699 -6.27902,-2.608 -9.29202,-4.181 -3.185,-1.66202 -5.72699,-3.57199 -8.362,-5.57498 -5.88398,-4.47201 -12.19498,-6.80102 -18.11698,-9.75601 -2.39401,0.569 -4.95102,-0.731 -7.43399,-1.39401 -1.85004,-0.12398 -3.27099,1.17102 -4.18103,-0.46399 -0.69998,-4.32901 5.09302,-4.34401 7.43302,-6.04001 0.358,-0.259 1.18399,-1.246 1.858,-1.858 3.97101,-3.59999 6.362,-6.80899 9.29101,-10.685 1.27497,-1.68801 2.85099,-3.099 3.71698,-5.11 -2.77398,0.916 -0.39599,-3.31999 -1.858,-3.71599 -0.871,1.91598 -2.54098,3.034 -3.25198,5.10998 -0.362,1.724 -1.08701,3.25501 -0.92902,2.32302 -2.71499,1.31199 -3.18597,4.86699 -7.43399,4.64599 -2.69501,5.35601 -8.33499,7.77001 -13.47201,10.68502 -17.724,3.33699 -31.948,10.17299 -39.952,23.22897 -2.11499,-5.19598 -2.04898,-7.35599 -1.39499,-11.61398 0.40601,-2.64499 2.02399,-6.74301 3.71698,-9.29201 1.328,-2 3.68402,-3.22299 5.11002,-5.11 0.716,-0.94699 1.095,-2.627 1.858,-3.717 2.35998,-3.36399 5.33301,-6.347 6.96802,-9.755 0.99096,-2.065 1.86798,-5.94899 2.78796,-7.433 0.93302,-1.50501 1.45703,-3.38501 1.857,-4.646 1.768,-5.55499 2.32602,-11.20599 3.25201,-17.188 2.00702,-12.952 -1.34698,-27.776 3.71701,-38.095 1.89499,-3.86 5.565,-10.31301 8.827,-11.614 3.621,-1.444 8.31598,0.53799 10.68499,-1.394 -2.42498,-0.50999 -7.14999,-0.024 -9.29101,-0.464 5.02301,-7.95999 13.98602,-14.017 26.479,-13.008 -2.46399,-1.39999 -4.32696,-1.60499 -7.89697,-0.92898 -5.69299,1.07798 -8.07202,2.17498 -11.61301,4.64598 -0.626,0.43699 -3.54901,2.28401 -4.182,2.78801 -5.357,4.265 -10.55899,10.86099 -13.473,16.724 -1.30902,2.25299 -1.59802,5.52499 -4.64599,6.039 -1.16001,-1.77002 -1.57599,-4.29701 -1.85001,-6.96503 z M 218.786,139.314 c -0.35399,-1.36899 -1.93801,-3.919 -2.788,-3.252 1.47499,0.54001 1.146,2.882 2.788,3.252 z m 61.787,9.291 c 2.14099,-0.646 3.31601,-2.258 4.64599,-3.71599 -0.87799,0.10399 -1.02499,-0.524 -1.858,-0.46401 -0.33099,1.99199 -2.60599,2.039 -2.78799,4.18 z m 154.699,13.00801 c -2.87799,0.027 -7.41699,-0.866 -8.362,2.32299 3.86499,-1.089 8.60901,-1.302 12.543,-2.32299 -1.36001,-0.85001 -2.629,-0.014 -4.181,0 z m 10.68601,0.92898 c -1.09,-0.634 -4.98899,-0.86899 -6.04001,0 2.05301,-0.32998 4.453,1.405 6.04001,0 z m -39.02503,12.08002 c -2.02099,4.56999 -5.88,8.43698 -7.89697,13.00699 -0.27301,0.621 0.23499,1.688 0,2.323 -0.28201,0.764 -1.091,1.15899 -1.39401,1.858 -2.42502,5.597 -5.61099,10.018 -7.43301,15.33099 -0.961,2.802 -1.53797,5.80901 -1.85798,8.82701 0.12598,-1.09401 2.05799,-0.28401 1.85798,0.46401 -0.38898,1.00499 -1.20301,1.58398 -0.92899,3.252 3.08301,-0.78501 6.43698,-3.65001 11.14798,-4.18102 2.00604,-0.22598 4.31702,0.15702 6.50403,0 5.48401,-0.39398 10.75799,-3.25499 14.40201,-3.25198 1.52398,9.9e-4 3.05499,1.78699 4.181,0.46499 -1.45401,0.21601 -2.07303,-0.404 -1.85801,-1.858 -0.25201,-2.12799 4.232,-1.938 2.78699,-3.716 -7.83499,6.76401 -23.73199,5.071 -34.37698,7.897 -0.11103,-0.66299 -0.76502,-0.78399 -0.93003,-1.39401 4.00901,-10.85799 6.94803,-22.784 13.473,-31.125 0.099,0.52101 0.51602,0.72301 0.92901,0.92902 1.677,-11.17701 10.39801,-15.30802 19.513,-19.04801 0.023,-0.79901 -0.35699,-1.19 -0.92999,-1.39399 -7.47901,2.12098 -11.91001,7.292 -17.18903,11.615 z M 187.661,182.983 c -0.14699,-1.866 -0.83899,-3.18701 -2.323,-3.716 0.57701,1.436 1.145,2.88 2.323,3.716 z m 233.21,-0.92801 c -2.56201,-1.30398 -10.19302,-3.125 -11.14901,-0.46499 3.221,-1.506 8.92001,0.977 11.14901,0.46499 z m -2.78799,108.707 c -3.69599,-0.793 -5.54999,-3.431 -8.36099,-5.11001 0.002,2.39203 4.83398,6.25702 8.36099,5.11001 z"
         clip-rule="evenodd" />
      <path
         style="fill:#ffffff;fill-rule:evenodd"
         inkscape:connector-curvature="0"
         id="svg_125"
         d="m 344.68201,159.291 c 3.048,-0.51399 3.337,-3.786 4.64599,-6.039 2.914,-5.86299 8.11499,-12.459 13.47303,-16.724 0.63299,-0.504 3.55596,-2.351 4.182,-2.78799 3.54099,-2.47001 5.91999,-3.56701 11.61298,-4.64602 3.57001,-0.67599 5.43402,-0.47099 7.897,0.92901 -12.49301,-1.00899 -21.45602,5.04701 -26.479,13.00801 2.14102,0.44 6.86599,-0.046 9.29098,0.46399 -2.36798,1.931 -7.06299,-0.051 -10.685,1.39401 -3.26196,1.30099 -6.93298,7.754 -8.82696,11.61398 -5.06302,10.319 -1.71002,25.14301 -3.71704,38.095 -0.92597,5.98201 -1.48398,11.63301 -3.25199,17.18802 -0.39999,1.25998 -0.92498,3.14099 -1.85699,4.646 -0.92001,1.48399 -1.797,5.36799 -2.78799,7.433 -1.63501,3.40799 -4.607,6.39099 -6.96802,9.75499 -0.76398,1.09001 -1.14301,2.77 -1.85797,3.71701 -1.42701,1.88699 -3.78202,3.10899 -5.11002,5.11 -1.69199,2.54899 -3.311,6.64698 -3.71701,9.29199 -0.65399,4.25801 -0.72101,6.41701 1.39502,11.614 8.00397,-13.056 22.229,-19.89099 39.952,-23.22901 5.13699,-2.91499 10.776,-5.32799 13.47201,-10.685 4.24799,0.222 4.719,-3.33299 7.43396,-4.64599 -0.15796,0.93201 0.56604,-0.599 0.92902,-2.323 0.711,-2.076 2.38098,-3.194 3.25201,-5.11 1.46298,0.396 -0.91601,4.632 1.85797,3.716 -0.86596,2.011 -2.44098,3.422 -3.71698,5.11 -2.92901,3.875 -5.32,7.08499 -9.29101,10.685 -0.67499,0.612 -1.5,1.59999 -1.85797,1.858 -2.34003,1.696 -8.133,1.711 -7.43302,6.04 0.909,1.63501 2.33099,0.33999 4.181,0.464 2.482,0.663 5.03998,1.963 7.43399,1.394 5.92203,2.955 12.233,5.284 18.11701,9.756 2.63601,2.00201 5.178,3.91302 8.362,5.57501 3.013,1.57199 6.19799,3.573 9.29199,4.181 8.17901,1.60599 16.56701,-0.371 24.62002,-2.32303 2.13397,0.017 1.331,1.02103 1.39499,-0.46399 12.03501,-5.12 24.45801,-16.35199 41.34699,-12.079 -12.22898,-0.20799 -26.047,5.30401 -34.84299,12.54299 5.41199,3.72504 13.957,4.315 15.33099,12.07904 -2.639,-2.297 -4.82199,-5.90503 -7.89798,-7.43301 -0.53802,-0.267 -1.686,0.29299 -2.78701,0 -1.33799,-0.35703 -2.35901,-1.736 -3.25101,-1.85801 -6.607,-0.90301 -13.883,4.06501 -22.29999,4.646 -8.953,0.616 -16.479,-1.00299 -23.229,-3.716 -0.67398,6.561 3.85599,11.93701 6.04001,17.18902 -4.77503,-3.57702 -7.51099,-11.18402 -8.82703,-16.72503 -4.22198,-7.85599 -12.828,-11.32898 -19.97598,-16.25899 -1.43198,-0.34799 -0.56601,1.601 -2.323,0.929 -9.17502,-2.899 -22.98898,-1.33901 -31.591,0.929 -2.85801,2.25102 -5.78299,4.437 -9.29099,6.03999 -3.23199,2.65201 -5.46899,6.29901 -8.82599,8.827 -1.02704,3.26001 -2.52902,6.021 -3.71704,10.22003 -1.82196,6.44898 -4.27997,15.01099 -5.57397,22.76398 -0.66199,3.96899 -0.18601,8.41699 -0.92902,12.544 -1.18399,6.572 -1.95999,16.71 -2.78799,25.086 -1.50699,15.258 -2.88401,28.38901 -0.92899,44.598 0.133,1.10601 0.75299,2.156 0.92899,3.25201 1.285,8.047 2.62802,16.39398 6.50399,21.83499 0.98301,5.25501 2.70801,9.539 5.57401,13.93701 1.444,2.21298 3.42001,4.83899 5.11099,7.89698 1.08002,1.95501 1.39502,4.07302 2.32202,5.574 0.60901,0.987 2.22901,1.99301 3.25199,3.25302 2.79699,3.43698 5.25399,6.569 9.75601,8.82498 0.77997,0.392 2.211,0.044 3.25198,0.46601 0.74399,0.302 1.23401,1.20901 1.858,1.393 2.28202,0.67301 5.51902,1.26099 7.43299,1.39499 9.156,0.63501 16.03003,-3.05099 25.08603,-4.646 2.44198,-0.431 4.27798,0.064 7.43399,0.46402 -7.917,2.04398 -15.331,4.67698 -25.086,6.03998 -1.94,0.271 -3.672,0.715 -5.57501,1.39301 2.21801,2.58401 4.68499,4.91699 9.29101,5.11099 1.98102,2.199 4.474,3.88901 8.362,4.18002 1.64899,1.62299 3.37598,3.073 5.10999,4.646 1.44903,1.315 3.97201,2.71399 4.18103,5.11099 -0.13404,1.68201 -2.05201,-0.712 -2.78702,-1.39401 -1.14102,-1.05698 -2.24399,-2.41898 -2.78702,-3.25198 -4.336,-1.23902 -7.21698,-3.93403 -10.68597,-6.04001 -3.62201,0.371 -5.38401,-1.11899 -7.43302,-2.32199 -3.45297,0.354 -7.69198,-0.85401 -9.75601,-3.25303 -11.44998,-2.26498 -19.336,-9.39898 -27.409,-16.25897 -1.71399,-2.67502 -4.30597,-6.77103 -6.96899,-6.96902 -1.83197,0.66101 -0.73499,4.59201 0,5.57501 -0.38898,5.64899 -1.49399,10.548 -2.32199,15.33099 -0.344,1.97901 -1.15799,4.93402 -0.92899,6.96802 0.54297,4.83499 6.04401,8.58698 11.14997,8.827 4.07302,0.19098 8.11303,-2.96402 11.61303,-1.39502 -1.30499,1.63601 -3.21701,0.647 -5.11001,0.931 -3.849,0.574 -6.38199,2.03802 -10.22,1.393 -1.93,-0.32498 -3.219,-1.74298 -5.10999,-1.858 -1.08502,3.495 1.70999,6.896 4.646,7.89801 0.96899,4.29501 5.46399,5.06399 5.10998,10.68399 -5.77801,-9.67499 -15.92999,-14.40799 -17.65301,-28.802 -0.64798,-5.409 1.23004,-11.896 0.92901,-18.11899 -0.11297,-2.33402 1.276,-5.94501 -1.858,-6.96701 -2.48801,0.60699 -2.978,3.216 -3.71597,5.574 -3.18802,2.939 -6.67502,5.241 -11.14902,7.896 -2.95801,1.75601 -7.586,4.20102 -11.61502,5.57501 -4.33997,1.47998 -9.83398,1.54401 -13.00699,4.18201 -4.06198,3.37698 -3.45401,9.22897 -4.181,15.32999 -1.22198,-5.05799 -1.75098,-11.24701 0.46399,-15.79599 -8.96198,-1.60602 -16.07698,4.879 -21.36998,10.22097 -0.772,0.78101 -1.12601,1.96601 -1.858,2.78901 -1.19701,1.34402 -3.28501,2.14602 -5.11,3.716 -3.032,2.60501 -3.87601,5.27499 -9.291,5.10901 3.46,-2.94699 6.47499,-4.37 8.82699,-6.96799 1.05701,-1.16901 1.60701,-2.983 2.78701,-4.18201 0.988,-1.00201 2.679,-1.39199 3.71701,-2.32299 2.64599,-2.37601 4.233,-5.15601 6.96798,-6.96802 2.59101,-1.71698 6.16501,-3.482 9.29099,-4.646 4.07101,-1.51401 8.37402,-1.436 12.07901,-2.323 3.72101,-0.88998 8.50702,-2.30899 13.00802,-4.181 2.40598,-1 5.36701,-1.87298 7.43299,-3.25198 2.708,-1.80902 6.846,-8.255 8.362,-13.47201 1.32098,-4.547 -1.48801,-14.23301 -2.788,-19.04801 -1.449,-5.367 -2.84601,-10.73898 -3.25198,-16.25998 -0.32904,-4.47601 0.41897,-9.27002 0,-13.93701 -0.19501,-2.16602 -0.86304,-6.16299 -0.92902,-9.29102 -0.20501,-9.62698 1.332,-17.54 1.85797,-28.33798 0.66504,-13.64602 2.33002,-25.98501 4.18103,-39.02301 1.607,-11.31698 5.53199,-21.82699 3.25202,-33.448 -0.55402,-2.82299 -2.43802,-6.251 -3.71601,-9.29199 -1.27401,-3.02701 -2.93801,-6.15201 -4.64599,-8.362 -2.89002,-3.742 -7.08603,-6.02501 -9.75501,-9.75601 C 281.00201,243.49 276.005,241.349 270.35601,241.517 c -2.39001,0.072 -4.97699,0.824 -7.43301,0.929 -5.345,0.22999 -10.267,-0.04 -14.866,1.395 -3.09298,0.96399 -6.522,2.72901 -9.75599,4.181 -7.194,3.22901 -15.39,7.58701 -21.834,11.14902 -8.00701,8.25198 -9.278,23.24097 -18.118,30.66098 2.85899,-3.22202 4.16899,-7.71201 6.03899,-12.078 1.73501,-4.05301 4.51001,-8.50602 4.18101,-13.00803 -5.27301,-0.133 -11.03001,3.54303 -17.653,3.71704 -10.02901,0.26196 -18.619,-3.61304 -23.22801,-9.75601 1.86801,-10e-4 4.539,3.19601 6.04001,5.11001 5.03,1.58298 10.373,3.33997 17.653,2.78797 13.252,-1.00498 21.362,-8.66599 31.126,-13.93698 6.206,-3.351 13.08699,-5.48599 16.26,-10.221 -0.552,-2.544 -3.02,-3.17401 -6.039,-3.25199 -1.14701,-1.48501 -3.127,-2.138 -5.575,-2.32302 -0.727,-0.66699 -1.61801,-1.17 -1.858,-2.323 -9.882,-2.04199 -15.15601,-8.69099 -22.29901,-13.472 -0.995,-3.246 -3.539,-5.39599 -5.10999,-8.362 -4.384,-8.279 -6.333,-19.376 -10.22,-28.80299 1.607,-0.19099 1.32399,1.83901 1.858,2.78799 0.58399,1.036 1.81,2.139 2.323,3.252 1.56,3.39002 2.22901,7.58402 3.252,11.61402 0.515,2.02798 1.567,4.49099 2.787,6.039 1.79999,2.28299 2.73099,7.30398 6.04,8.82699 2.214,-1.199 0.062,-2.688 0,-4.181 -0.25701,-6.203 2.417,-13.201 5.11,-18.11801 0.035,3.00501 -2.353,5.40601 -2.787,8.827 -0.336,2.646 -0.2,6.86002 0,9.75598 0.58299,8.45001 7.02699,13.96202 13.472,16.72403 0.729,0.97499 1.92999,1.47701 2.32299,2.787 0.698,1.307 1.956,-1.179 2.323,0 12.957,6.28701 24.87,6.986 41.81,4.646 1.78101,-0.084 4.10501,-0.43401 6.504,-0.46401 5.738,-0.074 13.52499,1.60901 17.65402,3.252 2.151,-1.203 1.48898,-5.12999 0.92899,-6.968 -0.42099,-1.38199 -1.82602,-2.116 -2.788,-3.71701 -1.43902,-2.39398 -2.362,-5.80298 -3.716,-7.89699 -1.07901,-1.668 -2.914,-2.63499 -4.18201,-4.18098 -1.90698,-2.32701 -2.15399,-3.95201 -4.64599,-6.039 -1.775,-1.487 -3.10999,-2.47901 -5.10999,-4.181 -1.91202,-1.62702 -4.414,-3.556 -6.96802,-5.11002 -3.13897,-1.91 -5.505,-2.98399 -8.362,-5.11 -3.17,-2.36 -7.08799,-4.651 -9.29199,-8.362 -3.877,-1.69803 -6.127,-5.02202 -8.362,-8.36301 0.016,0.11101 -0.048,-0.10499 -0.929,-1.39299 -0.269,-1.99902 -2.18001,-2.824 -2.787,-4.64599 -0.23101,-0.69202 0.252,-1.63901 0,-2.32301 -0.784,-2.125 -2.181,-4.14202 -2.788,-6.50402 C 230.035,159.832 230.16299,154.29298 228.54199,150 c -1.954,-5.176 -6.74699,-6.206 -9.29099,-10.22002 2.622,1.24901 5.767,1.97502 6.503,5.11002 2.889,-0.87599 2.39199,1.634 3.71701,2.323 2.25598,-3.484 2.79498,-8.357 4.181,-12.54302 0.75,-2.26799 1.11698,-4.74698 2.78799,-6.03898 -0.45801,0.82899 -0.20599,1.936 -0.465,2.787 -0.755,2.48199 -2.78801,5.11 -3.251,7.897 -0.27701,1.657 0.14399,3.30701 0,5.11 -0.2,2.487 -1.18399,8.108 0,13.00701 0.285,1.181 1.076,1.99798 1.39399,3.25198 0.89601,3.543 0.77101,7.41602 1.394,9.29201 0.39499,1.18699 1.59201,1.878 2.323,3.25099 0.671,1.26401 0.733,2.82301 1.39401,3.71701 2.336,3.164 5.802,5.35901 8.362,7.43399 3.48599,-2.09 2.21799,-6.68298 3.252,-9.75598 1.605,-4.77402 7.46498,-11.76901 11.149,-15.33101 4.375,-4.23 10.53101,-6.923 15.79498,-9.291 -10.19799,7.869 -26.64199,16.776 -25.54998,33.449 0.593,9.06501 8.971,11.32 15.79498,15.795 0.75601,0.49599 1.143,1.446 1.85803,1.85799 3.11099,1.78999 5.55798,3.71501 8.827,5.57501 1.97699,2.515 3.923,5.05899 6.504,6.96899 2.93298,-1.42898 1.24597,-5.199 1.85797,-8.362 0.40002,-2.06199 1.19903,-3.81399 1.85901,-6.039 -0.76499,8.33501 -0.82499,17.26001 2.78701,23.22802 1.34098,2.21699 3.831,4.51298 5.11002,7.89698 0.36398,0.96401 0.095,1.91701 0.46399,2.78801 0.54498,1.286 1.71698,2.416 2.323,3.71599 0.716,1.541 0.64999,3.22901 1.39398,4.64601 1.38202,2.633 3.20801,5.305 5.11001,6.96898 0.92301,3.87702 3.025,6.57501 6.03898,8.36203 3.60302,-0.81302 1.71102,-4.78601 2.32302,-7.89702 2.534,-12.87599 20.404,-21.31498 20.905,-36.701 0.254,-7.77399 -5.33398,-14.478 -8.82702,-19.51099 -4.47296,-6.44702 -11.60797,-13.589 -9.75498,-26.01602 0.831,18.83502 13.84702,25.48602 20.44001,38.55902 0.61697,2.16597 -1.03501,2.062 -1.85801,2.78798 5.19202,4.16701 7.292,-9.18498 7.89698,-14.40098 0.854,-7.36402 0.56604,-13.14701 0.46502,-18.58303 -0.074,-3.944 -0.82,-8.22998 -1.39502,-12.07896 -0.53497,-3.59201 -0.95498,-7.35701 -1.85699,-10.22002 -2.06598,-6.558 -6.78699,-11.96998 -8.82599,-19.511 -1.41199,-5.21899 -0.63202,-11.331 -1.85901,-16.72399 0.87903,-1.742 1.40802,-3.647 0.92999,-5.57501 1.23401,-0.935 1.21601,-3.11999 2.32202,-4.18199 -0.40002,3.991 -2.52502,11.437 -1.85699,18.118 0.75699,7.57201 4.67798,14.524 7.43298,19.047 0.13098,0.75 -0.43799,0.8 -0.46499,1.39399 2.03299,1.83802 2.50799,5.235 4.64599,6.96801 0.27103,2.665 0.68701,5.19198 1.85501,6.966 z"
         clip-rule="evenodd" />
      <path
         style="fill:#ffffff;fill-rule:evenodd"
         inkscape:connector-curvature="0"
         id="svg_126"
         d="m 215.99899,136.062 c 0.85001,-0.667 2.43401,1.88301 2.78801,3.25199 -1.643,-0.36999 -1.31401,-2.71198 -2.78801,-3.25199 z"
         clip-rule="evenodd" />
      <path
         style="fill:#ffffff;fill-rule:evenodd"
         inkscape:connector-curvature="0"
         id="svg_127"
         d="m 409.72101,181.58899 c 0.95599,-2.65999 8.58798,-0.83899 11.14898,0.46501 -2.22799,0.513 -7.927,-1.97 -11.14898,-0.46501 z"
         clip-rule="evenodd" />
    </g>
  </g>
</svg>
