<?xml version="1.0" encoding="UTF-8" standalone="no"?>
<!-- Created with Inkscape (http://www.inkscape.org/) -->

<svg
   xmlns:dc="http://purl.org/dc/elements/1.1/"
   xmlns:cc="http://creativecommons.org/ns#"
   xmlns:rdf="http://www.w3.org/1999/02/22-rdf-syntax-ns#"
   xmlns:svg="http://www.w3.org/2000/svg"
   xmlns="http://www.w3.org/2000/svg"
   xmlns:xlink="http://www.w3.org/1999/xlink"
   xmlns:sodipodi="http://sodipodi.sourceforge.net/DTD/sodipodi-0.dtd"
   xmlns:inkscape="http://www.inkscape.org/namespaces/inkscape"
   width="48"
   height="48"
   id="svg2"
   version="1.1"
   inkscape:version="0.48.4 r9939"
   viewBox="0 0 13.546666 13.546668"
   sodipodi:docname="choqok.svg">
  <defs
     id="defs4">
    <linearGradient
       gradientTransform="matrix(1.0239498,0,0,1.0239498,38.69839,-24.628937)"
       gradientUnits="userSpaceOnUse"
       y2="1013.3267"
       x2="-6.4680848"
       y1="1043.3811"
       x1="-6.4680848"
       id="linearGradient4106"
       xlink:href="#linearGradient4110"
       inkscape:collect="always" />
    <linearGradient
       id="linearGradient4110"
       inkscape:collect="always">
      <stop
         id="stop4112"
         offset="0"
         style="stop-color:#bebebe;stop-opacity:1" />
      <stop
         id="stop4114"
         offset="1"
         style="stop-color:#fafafa;stop-opacity:1" />
    </linearGradient>
  </defs>
  <sodipodi:namedview
     id="base"
     pagecolor="#ffffff"
     bordercolor="#666666"
     borderopacity="1.0"
     inkscape:pageopacity="0"
     inkscape:pageshadow="2"
     inkscape:zoom="8.9002327"
     inkscape:cx="22.62001"
     inkscape:cy="25.436038"
     inkscape:document-units="px"
     inkscape:current-layer="layer1"
     showgrid="false"
     inkscape:showpageshadow="false"
     borderlayer="true"
     units="px"
     fit-margin-top="0"
     fit-margin-left="0"
     fit-margin-right="0"
     fit-margin-bottom="0"
     showguides="true"
     inkscape:window-width="798"
     inkscape:window-height="693"
     inkscape:window-x="858"
     inkscape:window-y="135"
     inkscape:window-maximized="0">
    <sodipodi:guide
       position="-6.6748425e-06,47.999999"
       orientation="47.999977,0"
       id="guide4120" />
    <sodipodi:guide
       position="-6.6748425e-06,2.2810037e-05"
       orientation="0,48.000004"
       id="guide4122" />
    <sodipodi:guide
       position="47.999997,2.2810037e-05"
       orientation="-47.999977,0"
       id="guide4124" />
    <sodipodi:guide
       position="47.999997,47.999999"
       orientation="0,-48.000004"
       id="guide4126" />
    <sodipodi:guide
       position="3.9999733,44.000154"
       orientation="39.999962,0"
       id="guide4138" />
    <sodipodi:guide
       position="3.9999733,4.0001921"
       orientation="0,40.000003"
       id="guide4140" />
    <sodipodi:guide
       position="43.999976,4.0001921"
       orientation="-39.999962,0"
       id="guide4142" />
    <sodipodi:guide
       position="43.999976,44.000154"
       orientation="0,-40.000003"
       id="guide4144" />
    <sodipodi:guide
       position="6.9999922,47.999999"
       orientation="39.999962,0"
       id="guide4148" />
    <sodipodi:guide
       position="6.9999922,8.0000369"
       orientation="0,34.000006"
       id="guide4150" />
    <sodipodi:guide
       position="40.999998,8.0000369"
       orientation="-39.999962,0"
       id="guide4152" />
    <sodipodi:guide
       position="40.999998,47.999999"
       orientation="0,-34.000006"
       id="guide4154" />
    <sodipodi:guide
       position="14.999993,32.999986"
       orientation="17.999951,0"
       id="guide4158" />
    <sodipodi:guide
       position="14.999993,15.000036"
       orientation="0,17.999998"
       id="guide4160" />
    <sodipodi:guide
       position="32.999991,15.000036"
       orientation="-17.999951,0"
       id="guide4162" />
    <sodipodi:guide
       position="32.999991,32.999986"
       orientation="0,-17.999998"
       id="guide4164" />
    <sodipodi:guide
       position="1.9999969,44.000046"
       orientation="39.999962,0"
       id="guide3279" />
    <sodipodi:guide
       position="1.9999969,4.0000839"
       orientation="0,44.000003"
       id="guide3281" />
    <sodipodi:guide
       position="46,4.0000839"
       orientation="-39.999962,0"
       id="guide3283" />
    <sodipodi:guide
       position="46,44.000046"
       orientation="0,-44.000003"
       id="guide3285" />
  </sodipodi:namedview>
  <metadata
     id="metadata7">
    <rdf:RDF>
      <cc:Work
         rdf:about="">
        <dc:format>image/svg+xml</dc:format>
        <dc:type
           rdf:resource="http://purl.org/dc/dcmitype/StillImage" />
        <dc:title></dc:title>
      </cc:Work>
    </rdf:RDF>
  </metadata>
  <g
     inkscape:label="Capa 1"
     inkscape:groupmode="layer"
     id="layer1"
     transform="translate(38.119153,-397.84494)">
    <path
       inkscape:connector-curvature="0"
       id="path14"
       style="fill:#1abc9c;fill-opacity:1;fill-rule:nonzero;stroke:none"
       d="m -25.509585,401.06892 c -0.430844,0.19108 -0.893948,0.3202 -1.379893,0.3783 0.495956,-0.29735 0.87697,-0.76817 1.056381,-1.32924 -0.464282,0.27538 -0.978447,0.4753 -1.525754,0.58301 -0.438221,-0.46694 -1.062646,-0.75867 -1.7537,-0.75867 -1.326843,0 -2.402651,1.0757 -2.402651,2.40256 0,0.18831 0.02123,0.37169 0.06221,0.54751 -1.996797,-0.10023 -3.767199,-1.05673 -4.952169,-2.51031 -0.206838,0.35482 -0.325318,0.76758 -0.325318,1.20789 0,0.83357 0.424151,1.56899 1.06887,1.99983 -0.39385,-0.0123 -0.76434,-0.12058 -1.088243,-0.30051 -2.34e-4,0.01 -2.34e-4,0.0198 -2.34e-4,0.0299 0,1.16409 0.828198,2.13511 1.927285,2.35591 -0.20158,0.0548 -0.413837,0.0843 -0.63296,0.0843 -0.154823,0 -0.305332,-0.0151 -0.452057,-0.0432 0.305743,0.95448 1.193044,1.64916 2.244411,1.66847 -0.822272,0.64447 -1.858228,1.02856 -2.983915,1.02856 -0.193937,0 -0.385199,-0.0115 -0.573144,-0.0336 1.063265,0.68169 2.326188,1.07953 3.682998,1.07953 4.419283,0 6.835997,-3.66104 6.835997,-6.83609 0,-0.10408 -0.0025,-0.20774 -0.007,-0.31076 0.469493,-0.33878 0.876795,-0.76196 1.198902,-1.24378" />
    <path
       sodipodi:type="arc"
       style="fill:#ecf0f1;fill-opacity:1;fill-rule:nonzero;stroke:#ecf0f1;stroke-opacity:1"
       id="path3178"
       sodipodi:cx="15.673747"
       sodipodi:cy="29.292624"
       sodipodi:rx="15.673747"
       sodipodi:ry="18.707376"
       d="m 31.347494,29.292624 a 15.673747,18.707376 0 1 1 -31.347494,0 15.673747,18.707376 0 1 1 31.347494,0 z"
       transform="matrix(0.03192653,0,0,0.02036037,-29.002512,400.26764)" />
    <path
       sodipodi:type="arc"
       style="fill:#8e44ad;fill-opacity:1;fill-rule:nonzero;stroke:#8e44ad;stroke-opacity:1"
       id="path3180"
       sodipodi:cx="24.606098"
       sodipodi:cy="16.612757"
       sodipodi:rx="0.67413968"
       sodipodi:ry="1.6127418"
       d="m 25.280238,16.612757 a 0.67413968,1.6127418 0 1 1 -1.34828,0 0.67413968,1.6127418 0 1 1 1.34828,0 z"
       transform="matrix(0.23573416,0,0,0.10592488,-34.088008,399.19063)" />
  </g>
</svg>
