<?xml version="1.0" encoding="UTF-8" standalone="no"?>
<svg
   xmlns:dc="http://purl.org/dc/elements/1.1/"
   xmlns:cc="http://creativecommons.org/ns#"
   xmlns:rdf="http://www.w3.org/1999/02/22-rdf-syntax-ns#"
   xmlns:svg="http://www.w3.org/2000/svg"
   xmlns="http://www.w3.org/2000/svg"
   xmlns:xlink="http://www.w3.org/1999/xlink"
   xmlns:sodipodi="http://sodipodi.sourceforge.net/DTD/sodipodi-0.dtd"
   xmlns:inkscape="http://www.inkscape.org/namespaces/inkscape"
   sodipodi:docname="dbeaver.svg"
   inkscape:version="0.48.4 r9939"
   version="1.1"
   id="svg2"
   height="48"
   viewBox="0 0 13.546667 13.546667"
   width="48">
  <metadata
     id="metadata60">
    <rdf:RDF>
      <cc:Work
         rdf:about="">
        <dc:format>image/svg+xml</dc:format>
        <dc:type
           rdf:resource="http://purl.org/dc/dcmitype/StillImage" />
        <dc:title />
      </cc:Work>
    </rdf:RDF>
  </metadata>
  <sodipodi:namedview
     pagecolor="#ffffff"
     bordercolor="#666666"
     borderopacity="1"
     objecttolerance="10"
     gridtolerance="10"
     guidetolerance="10"
     inkscape:pageopacity="0"
     inkscape:pageshadow="2"
     inkscape:window-width="1365"
     inkscape:window-height="744"
     id="namedview58"
     showgrid="false"
     inkscape:zoom="4.9166667"
     inkscape:cx="-13.627118"
     inkscape:cy="24.508475"
     inkscape:window-x="3099"
     inkscape:window-y="1223"
     inkscape:window-maximized="0"
     inkscape:current-layer="svg2" />
  <defs
     id="defs4">
    <linearGradient
       id="linearGradient4460">
      <stop
         offset="0"
         style="stop-color:#d38678"
         id="stop7" />
      <stop
         offset="1"
         style="stop-color:#d9b7a7"
         id="stop9" />
    </linearGradient>
    <linearGradient
       gradientTransform="matrix(1.10525 0 0 1.10525 -134.27873 -295.76212)"
       xlink:href="#linearGradient4460"
       id="linearGradient3806"
       y1="279.096"
       y2="268.33"
       gradientUnits="userSpaceOnUse"
       x2="0" />
  </defs>
  <path
     style="fill:#bdc3c7;fill-opacity:1"
     d="m 5.2951411,11.636564 c -1.299532,-0.272208 -2.268971,-0.97511 -2.788641,-2.0219311 -0.271237,-0.5463816 -0.315992,-0.7368593 -0.48281,-2.0548902 -0.210411,-1.6624552 0.09921,-2.6582815 1.14129,-3.6706934 0.763467,-0.7417314 1.351307,-1.0147797 2.540832,-1.180201 0.67995,-0.094557 0.7617,-0.095157 1.2048,-0.00884 0.342596,0.066736 0.66698,0.188559 1.161488,0.4361999 l 0.686133,0.3436039 0.364923,-0.2040766 C 9.6211441,2.9972451 10.059803,2.9597762 10.639599,3.1462054 11.542151,3.4364145 11.946386,4.1883471 11.781716,5.2706977 11.693796,5.8485681 11.586974,5.9847098 11.223238,5.9824481 10.913126,5.9805281 10.550855,5.8202527 10.240343,5.5476193 9.7162441,5.0874539 8.7408141,4.896329 8.3552551,5.1782561 c -0.101879,0.074496 -0.09818,0.081235 0.064,0.116522 0.711726,0.1548575 1.367547,0.4820973 1.8608779,0.9285356 0.326698,0.2956456 0.348997,0.3320207 0.348997,0.5693134 0,0.2477688 -0.0042,0.2534835 -0.186554,0.2532516 C 10.329227,7.0457305 10.132139,6.9677243 9.9403171,6.8470847 9.1519541,6.3512716 8.9560791,6.3100494 8.1596771,6.4723458 7.2547921,6.6567495 7.0673291,6.615295 6.8596301,6.1848618 l -0.124529,-0.2580724 -0.06726,0.1722035 c -0.03699,0.094712 -0.05402,0.2884407 -0.03785,0.4305086 0.02444,0.2146805 0.0035,0.2961434 -0.123918,0.4823516 -0.163424,0.2387959 -0.563143,0.5906988 -0.613623,0.5402191 -0.01667,-0.016668 0.03457,-0.1437846 0.113851,-0.2824827 0.199316,-0.348676 0.182567,-0.3781454 -0.08898,-0.1565498 -0.607292,0.4955864 -0.889966,0.6761528 -1.057012,0.6751974 l -0.172204,-9.877e-4 0.200905,-0.1071116 c 0.20854,-0.1111828 0.556062,-0.441507 0.51144,-0.4861297 -0.01403,-0.014026 -0.205872,0.05109 -0.426324,0.1447001 -0.722672,0.3068687 -0.822498,0.3164993 -1.216911,0.1174 -0.189205,-0.09551 -0.489817,-0.3069156 -0.668028,-0.4697903 -0.372657,-0.3405875 -0.423689,-0.2775636 -0.176657,0.2181666 0.258454,0.5186493 0.606675,0.7478129 1.807208,1.1893194 0.773336,0.2844021 1.340579,0.556262 1.533648,0.735025 0.395178,0.3658954 0.683588,1.1398151 0.627454,1.6837051 -0.04127,0.399903 -0.165456,0.618107 -0.420705,0.739231 -0.251515,0.119351 -0.807008,0.159783 -1.165002,0.0848 l 0,0 z m 0.05465,-1.229955 C 5.1775231,10.127873 4.9758821,9.9717761 4.1876801,9.506975 3.4066671,9.0464129 3.0744481,8.7720085 2.9457141,8.4811399 2.8624781,8.2930715 2.8553731,8.2890614 2.8345171,8.418375 c -0.05297,0.3284271 0.04791,0.6270829 0.310452,0.9190931 0.207891,0.2312256 0.424582,0.3723917 1.101868,0.7178249 0.463696,0.236497 0.920576,0.482395 1.015288,0.546439 0.213677,0.144488 0.248986,0.0659 0.08767,-0.195123 l 0,0 z M 2.8490971,5.7810123 c 0.118291,-0.2853865 0.303212,-0.6470137 0.410935,-0.8036158 0.241877,-0.3516269 0.134478,-0.3860674 -0.216657,-0.069477 -0.317171,0.2859677 -0.447571,0.5859417 -0.449142,1.0332202 -6.94e-4,0.1973162 0.008,0.3587569 0.01927,0.3587569 0.01129,0 0.117308,-0.2334979 0.235599,-0.5188844 l 0,0 z m 1.198933,-0.5241138 c 0.257334,-0.1948018 0.590575,-0.4065723 0.740536,-0.4706015 0.361366,-0.1542934 0.349282,-0.233389 -0.02801,-0.1833392 -0.372564,0.049422 -0.60464,0.1568772 -0.843786,0.3906873 -0.178072,0.1740977 -0.445298,0.617438 -0.372165,0.617438 0.01955,0 0.246093,-0.159383 0.503427,-0.3541846 z m 7.5241189,-0.711836 c 0.116824,-0.1168237 0.11533,-0.3356794 -0.0031,-0.4541089 -0.141432,-0.1414322 -0.430143,-0.091136 -0.532906,0.092837 -0.07566,0.1354464 -0.07421,0.1669139 0.01388,0.3013561 0.114056,0.1740713 0.377711,0.2043266 0.522123,0.059915 l 0,0 z M 4.0142991,4.1186041 c 0.314829,-0.1263097 0.692095,-0.246058 0.838369,-0.2661071 0.338453,-0.04639 0.340141,-0.1174916 0.004,-0.167901 -0.370444,-0.055551 -0.673782,-0.00214 -0.968388,0.1705099 -0.210569,0.1234014 -0.565165,0.4931526 -0.472939,0.4931526 0.0146,0 0.284143,-0.1033444 0.598972,-0.2296544 z m 1.401926,0.1398592 c 0.230951,-0.049387 0.620098,-0.0913 0.86477,-0.09314 0.244672,-0.00183 0.444859,-0.023873 0.444859,-0.04896 0,-0.025089 -0.115347,-0.089666 -0.256326,-0.1435069 -0.44898,-0.1714673 -1.049883,-0.064624 -1.465708,0.2606099 -0.174904,0.136799 -0.124658,0.1398445 0.412405,0.024996 z m 2.773358,-0.514847 c -0.09471,-0.077717 -0.258708,-0.1700418 -0.364436,-0.2051649 -0.25864,-0.085922 -0.845594,-0.035 -1.127994,0.097861 l -0.229604,0.1080226 0.755973,0.029498 c 0.415785,0.016222 0.77526,0.048784 0.798832,0.072357 0.02357,0.023571 0.109588,0.04193 0.191146,0.040795 l 0.148286,-0.00206 -0.172203,-0.1413044 0,-3e-7 z M 5.4630291,3.3637135 c 0.142068,-0.034826 0.503695,-0.079645 0.803616,-0.099597 l 0.54531,-0.036276 -0.189639,-0.1029741 C 6.1918701,2.891135 5.5410791,2.9615619 5.1473231,3.2844856 c -0.149169,0.1223352 -0.156847,0.1413144 -0.0574,0.141887 0.06314,3.669e-4 0.23104,-0.027833 0.373108,-0.062659 z"
     id="path3831"
     inkscape:connector-curvature="0" />
  <path
     style="fill:#7f8c8d;fill-opacity:1"
     d="m 5.2482391,12.05462 c -0.909971,-0.162442 -1.702833,-0.582266 -2.374021,-1.257056 -0.746854,-0.750862 -1.07657,-1.4900648 -1.204768,-2.7010118 -0.11906,-1.1246386 -0.129207,-1.9731499 -0.028983,-2.423639 0.288171,-1.2952709 1.323033,-2.4935066 2.626528,-3.041177 0.540045,-0.2269032 1.664685,-0.4110111 2.286655,-0.3743345 0.548631,0.032352 1.193766,0.2412408 1.810863,0.5863409 l 0.366253,0.2048207 0.30342,-0.1687664 c 0.617516,-0.3434715 1.2764819,-0.3507678 2.0134839,-0.022293 0.420832,0.1875604 0.845453,0.6403925 1.023978,1.0920095 0.107009,0.2707017 0.130773,0.4431124 0.132498,0.9612772 0.0023,0.6770174 -0.0701,0.9979749 -0.276209,1.2252279 -0.247001,0.2723396 -0.597573,0.3680285 -0.851145,0.2323208 -0.109683,-0.058701 -0.115789,-0.051577 -0.07955,0.092798 0.09189,0.3661359 0.09782,0.4788786 0.03703,0.704637 -0.05614,0.2084888 -0.09278,0.2469594 -0.292065,0.3066672 -0.284241,0.085161 -0.530913,0.019256 -0.9740869,-0.2602501 -0.625688,-0.3946161 -0.646662,-0.4029318 -1.00452,-0.3982579 -0.381505,0.00498 -0.955245,0.1928774 -1.161123,0.3802572 -0.07035,0.064025 -0.248146,0.3492234 -0.395111,0.6337734 -0.146964,0.2845498 -0.367579,0.6262534 -0.490255,0.7593412 l -0.223047,0.2419779 0.201206,0.2408285 c 0.661961,0.7923152 0.799525,1.9537983 0.302781,2.5564353 -0.318349,0.386211 -1.021158,0.558148 -1.749806,0.428074 l 0,0 z m 1.278145,-0.483105 c 0.311304,-0.182436 0.401987,-0.400658 0.394493,-0.949313 -0.00752,-0.550654 -0.158749,-0.9487822 -0.538419,-1.4174573 -0.158409,-0.1955448 -0.288017,-0.3931799 -0.288017,-0.4391886 0,-0.046009 0.08948,-0.1364471 0.198844,-0.2009739 0.155898,-0.091981 0.266231,-0.2516869 0.510849,-0.7394405 0.364073,-0.72594 0.559837,-0.9422139 1.069742,-1.1818158 0.315629,-0.1483126 0.443851,-0.1757971 0.832317,-0.1784079 0.491668,-0.0033 0.527119,0.00986 1.234124,0.4581579 0.2333089,0.1479378 0.3681409,0.1961097 0.5166099,0.1845708 0.195775,-0.015215 0.201346,-0.022439 0.218182,-0.2829383 0.01491,-0.2307104 -0.0074,-0.2954209 -0.16284,-0.4724662 C 10.160815,5.9519576 9.2010171,5.3997069 8.6992141,5.3090424 8.4052981,5.2559384 8.3454661,5.2160671 8.4803981,5.1632272 c 0.406351,-0.159128 1.205115,0.026106 1.6483269,0.3822455 0.346316,0.2782801 0.749929,0.4817361 1.031721,0.5200754 0.488627,0.066481 0.688038,-0.2819871 0.693658,-1.2121595 0.005,-0.8247493 -0.27962,-1.3302412 -0.928926,-1.6498938 -0.348722,-0.1716749 -0.424783,-0.1869426 -0.9313209,-0.1869426 -0.522475,0 -0.567424,0.00985 -0.851688,0.1865537 -0.165056,0.1026045 -0.332359,0.1865537 -0.371785,0.1865537 -0.03942,0 -0.346834,-0.1398064 -0.683131,-0.3106806 -0.98259,-0.4992591 -1.551682,-0.5808902 -2.681625,-0.3846552 -1.026318,0.1782384 -1.648815,0.5046558 -2.380401,1.2482055 -0.988668,1.0048367 -1.243106,1.9148481 -1.036197,3.7060276 0.13204,1.1430503 0.210414,1.4659218 0.498461,2.0534837 0.573004,1.1688224 1.943773,1.9990524 3.314902,2.0077274 0.412813,0.0026 0.517847,-0.01744 0.723991,-0.138253 l 0,0 z"
     id="path3833"
     inkscape:connector-curvature="0" />
</svg>
