<?xml version="1.0" encoding="UTF-8" standalone="no"?>
<!-- Created with Inkscape (http://www.inkscape.org/) -->

<svg
   xmlns:dc="http://purl.org/dc/elements/1.1/"
   xmlns:cc="http://creativecommons.org/ns#"
   xmlns:rdf="http://www.w3.org/1999/02/22-rdf-syntax-ns#"
   xmlns:svg="http://www.w3.org/2000/svg"
   xmlns="http://www.w3.org/2000/svg"
   xmlns:xlink="http://www.w3.org/1999/xlink"
   xmlns:sodipodi="http://sodipodi.sourceforge.net/DTD/sodipodi-0.dtd"
   xmlns:inkscape="http://www.inkscape.org/namespaces/inkscape"
   width="48"
   height="48"
   id="svg2"
   sodipodi:version="0.32"
   inkscape:version="0.48.4 r9939"
   version="1.0"
   inkscape:export-filename="face-smile.png"
   inkscape:export-xdpi="90"
   inkscape:export-ydpi="90"
   sodipodi:docname="face-smile.svg"
   inkscape:output_extension="org.inkscape.output.svgz.inkscape">
  <sodipodi:namedview
     id="base"
     pagecolor="#ffffff"
     bordercolor="#666666"
     borderopacity="1.0"
     gridtolerance="10000"
     guidetolerance="10"
     objecttolerance="10"
     inkscape:pageopacity="0.0"
     inkscape:pageshadow="2"
     inkscape:zoom="5.6568542"
     inkscape:cx="55.472687"
     inkscape:cy="14.36039"
     inkscape:document-units="px"
     inkscape:current-layer="layer1"
     showgrid="false"
     inkscape:snap-bbox="true"
     inkscape:window-width="960"
     inkscape:window-height="784"
     inkscape:window-x="830"
     inkscape:window-y="144"
     showborder="true"
     inkscape:window-maximized="0">
    <inkscape:grid
       type="xygrid"
       id="grid2383"
       visible="true"
       enabled="true"
       empspacing="4"
       spacingx="4px"
       spacingy="4px" />
  </sodipodi:namedview>
  <metadata
     id="metadata7">
    <rdf:RDF>
      <cc:Work
         rdf:about="">
        <dc:format>image/svg+xml</dc:format>
        <dc:type
           rdf:resource="http://purl.org/dc/dcmitype/StillImage" />
        <dc:title></dc:title>
      </cc:Work>
    </rdf:RDF>
  </metadata>
  <g
     inkscape:label="Layer 1"
     inkscape:groupmode="layer"
     id="layer1">
    <g
       id="g4354"
       transform="matrix(0.20286803,0,0,0.20286803,-1.9117984,-1.3880279)">
      <path
         transform="matrix(1.9999999,0,0,1.9999999,-11.999993,-15.999998)"
         d="M 124,70 C 124,99.823376 99.823376,124 70,124 40.176624,124 16,99.823376 16,70 16,40.176624 40.176624,16 70,16 c 29.823376,0 54,24.176624 54,54 z"
         sodipodi:ry="54"
         sodipodi:rx="54"
         sodipodi:cy="70"
         sodipodi:cx="70"
         id="path2385"
         style="fill:#f1c40f;fill-opacity:1;stroke:none"
         sodipodi:type="arc" />
    </g>
    <g
       id="g4337"
       transform="matrix(0.20286803,0,0,0.20286803,-1.9117984,-1.3880279)">
      <g
         transform="matrix(1.125,0,0,1.1666667,-12,-18.66667)"
         id="g3092">
        <path
           transform="matrix(2,0,0,0.6,-160,18.4)"
           d="m 136,136 c 0,11.04569 -1.79086,20 -4,20 -2.20914,0 -4,-8.95431 -4,-20 0,-11.04569 1.79086,-20 4,-20 2.20914,0 4,8.95431 4,20 z"
           sodipodi:ry="20"
           sodipodi:rx="4"
           sodipodi:cy="136"
           sodipodi:cx="132"
           id="path3097"
           style="fill:#2c3e50;fill-opacity:1;stroke:none"
           sodipodi:type="arc" />
        <path
           sodipodi:type="arc"
           style="fill:#ecf0f1;fill-opacity:1;stroke:none"
           id="path3973"
           sodipodi:cx="132"
           sodipodi:cy="136"
           sodipodi:rx="4"
           sodipodi:ry="20"
           d="m 136,136 c 0,11.04569 -1.79086,20 -4,20 -2.20914,0 -4,-8.95431 -4,-20 0,-11.04569 1.79086,-20 4,-20 2.20914,0 4,8.95431 4,20 z"
           transform="matrix(0.9017904,0,0,0.2161928,-15.036338,63.459555)" />
      </g>
      <use
         height="256"
         width="256"
         transform="translate(46,0)"
         id="use3095"
         xlink:href="#g3092"
         y="0"
         x="0" />
    </g>
    <g
       id="g4432"
       transform="matrix(0.20286803,0,0,0.20286803,-1.9117984,-1.3880279)">
      <path
         sodipodi:nodetypes="csccccsssccsc"
         id="path4406"
         d="m 64.5625,132 c -0.502629,0.0378 -0.952681,0.32548 -1.198002,0.7658 -0.245321,0.44032 -0.253115,0.97441 -0.02075,1.4217 l 0.4375,0.875 0.09375,0.15625 c 17.027143,33.72448 58.723492,46.38871 91.250002,33.1875 15.7338,-6.10022 29.54173,-18.01074 37.375,-34 0.0435,-0.0889 0.11309,-0.16089 0.15625,-0.25 0.30851,-0.68676 0.0602,-1.49581 -0.58043,-1.89127 -0.64064,-0.39546 -1.47517,-0.25482 -1.95082,0.32877 C 168.03247,160.965 128.15479,167.91623 96.625,155.5 84.778499,150.69543 73.816189,143.14594 65.875,132.59375 65.567365,132.18498 65.072622,131.96117 64.5625,132 z"
         style="fill:#2c3e50;fill-opacity:1;stroke:none"
         inkscape:connector-curvature="0" />
      <path
         sodipodi:type="arc"
         style="fill:#2c3e50;fill-opacity:1;stroke:none"
         id="path4443"
         sodipodi:cx="64"
         sodipodi:cy="133"
         sodipodi:rx="7"
         sodipodi:ry="7"
         d="m 71,133 c 0,3.86599 -3.134007,7 -7,7 -3.865993,0 -7,-3.13401 -7,-7 0,-3.86599 3.134007,-7 7,-7 3.865993,0 7,3.13401 7,7 z"
         transform="matrix(0.8214286,0,0,0.8214286,12.678571,25)" />
      <path
         transform="matrix(-0.8214286,0,0,0.8214286,242.82143,25)"
         d="m 71,133 c 0,3.86599 -3.134007,7 -7,7 -3.865993,0 -7,-3.13401 -7,-7 0,-3.86599 3.134007,-7 7,-7 3.865993,0 7,3.13401 7,7 z"
         sodipodi:ry="7"
         sodipodi:rx="7"
         sodipodi:cy="133"
         sodipodi:cx="64"
         id="path4453"
         style="fill:#2c3e50;fill-opacity:1;stroke:none"
         sodipodi:type="arc" />
    </g>
  </g>
</svg>
