<?xml version="1.0" encoding="UTF-8" standalone="no"?>
<!-- Generator: Adobe Illustrator 12.0.1, SVG Export Plug-In . SVG Version: 6.00 Build 51448)  -->

<svg
   xmlns:dc="http://purl.org/dc/elements/1.1/"
   xmlns:cc="http://creativecommons.org/ns#"
   xmlns:rdf="http://www.w3.org/1999/02/22-rdf-syntax-ns#"
   xmlns:svg="http://www.w3.org/2000/svg"
   xmlns="http://www.w3.org/2000/svg"
   xmlns:sodipodi="http://sodipodi.sourceforge.net/DTD/sodipodi-0.dtd"
   xmlns:inkscape="http://www.inkscape.org/namespaces/inkscape"
   version="1.1"
   id="Layer_1"
   width="48"
   height="48"
   viewBox="0 0 379.955 380.251"
   overflow="visible"
   enable-background="new 0 0 379.955 380.251"
   xml:space="preserve"
   sodipodi:version="0.32"
   inkscape:version="0.48.4 r9939"
   sodipodi:docname="filezilla.svg"
   inkscape:output_extension="org.inkscape.output.svg.inkscape"
   style="overflow:visible"><metadata
     id="metadata2383"><rdf:RDF><cc:Work
         rdf:about=""><dc:format>image/svg+xml</dc:format><dc:type
           rdf:resource="http://purl.org/dc/dcmitype/StillImage" /></cc:Work></rdf:RDF></metadata><defs
     id="defs2381" /><sodipodi:namedview
     inkscape:window-height="779"
     inkscape:window-width="912"
     inkscape:pageshadow="2"
     inkscape:pageopacity="0.0"
     guidetolerance="10.0"
     gridtolerance="10.0"
     objecttolerance="10.0"
     borderopacity="1.0"
     bordercolor="#666666"
     pagecolor="#ffffff"
     id="base"
     inkscape:zoom="4.0078788"
     inkscape:cx="69.214004"
     inkscape:cy="34.337819"
     inkscape:window-x="891"
     inkscape:window-y="126"
     inkscape:current-layer="Layer_1"
     showgrid="false"
     inkscape:window-maximized="0" /><g
     id="g2305"
     transform="matrix(1.9164308,0,0,1.9163759,-169.39325,-173.31636)"><path
       style="fill:#c0392b"
       id="path2312"
       d="m 100.572,108.605 0,7.715 c 3.226,0 5.851,2.625 5.851,5.85 0,3.227 -2.625,5.852 -5.851,5.852 l 0,7.715 c 3.226,0 5.851,2.625 5.851,5.85 0,3.227 -2.625,5.852 -5.851,5.852 l 0,7.715 c 3.226,0 5.851,2.625 5.851,5.854 0,3.229 -2.625,5.854 -5.851,5.854 l 0,7.715 c 3.226,0 5.851,2.623 5.851,5.85 0,3.227 -2.625,5.852 -5.851,5.852 l 0,7.715 c 3.226,0 5.851,2.623 5.851,5.85 0,3.227 -2.625,5.852 -5.851,5.852 l 0,7.715 c 3.226,0 5.851,2.623 5.851,5.85 0,3.227 -2.625,5.852 -5.851,5.852 l 0,7.715 c 3.226,0 5.851,2.623 5.851,5.85 0,3.227 -2.625,5.852 -5.851,5.852 l 0,7.715 c 3.226,0 5.851,2.623 5.851,5.85 0,3.227 -2.625,5.852 -5.851,5.852 l 0,7.719 c 1.54,0 3.048,0.623 4.138,1.713 1.088,1.088 1.713,2.596 1.713,4.137 l 7.715,0 c 0,-3.227 2.625,-5.85 5.851,-5.85 3.226,0 5.851,2.623 5.851,5.85 l 7.715,0 c 0,-3.227 2.625,-5.85 5.851,-5.85 3.226,0 5.851,2.623 5.851,5.85 l 7.715,0 c 0,-3.227 2.625,-5.85 5.851,-5.85 3.226,0 5.851,2.623 5.851,5.85 l 7.715,0 c 0,-3.227 2.625,-5.85 5.851,-5.85 3.226,0 5.851,2.623 5.851,5.85 l 7.715,0 c 0,-3.227 2.625,-5.85 5.851,-5.85 3.226,0 5.851,2.623 5.851,5.85 l 7.715,0 c 0,-3.227 2.625,-5.85 5.851,-5.85 3.226,0 5.851,2.623 5.851,5.85 l 7.715,0 c 0,-3.227 2.625,-5.85 5.851,-5.85 3.226,0 5.851,2.623 5.851,5.85 l 7.715,0 c 0,-3.227 2.625,-5.85 5.851,-5.85 3.226,0 5.851,2.623 5.851,5.85 l 7.719,0 c 0,-1.541 0.625,-3.049 1.715,-4.137 1.088,-1.09 2.596,-1.713 4.137,-1.713 l 0,-7.715 c -3.227,0 -5.852,-2.625 -5.852,-5.852 0,-3.227 2.625,-5.85 5.852,-5.85 l 0,-7.715 c -3.227,0 -5.852,-2.625 -5.852,-5.852 0,-3.227 2.625,-5.85 5.852,-5.85 l 0,-7.715 c -3.227,0 -5.852,-2.625 -5.852,-5.852 0,-3.227 2.625,-5.85 5.852,-5.85 l 0,-7.715 c -3.227,0 -5.852,-2.625 -5.852,-5.852 0,-3.227 2.625,-5.85 5.852,-5.85 l 0,-7.715 c -3.227,0 -5.852,-2.625 -5.852,-5.852 0,-3.227 2.625,-5.85 5.852,-5.85 l 0,-7.715 c -3.227,0 -5.852,-2.625 -5.852,-5.854 0,-3.229 2.625,-5.854 5.852,-5.854 l 0,-7.715 c -3.227,0 -5.852,-2.625 -5.852,-5.852 0,-3.225 2.625,-5.85 5.852,-5.85 l 0,-7.715 c -3.227,0 -5.852,-2.625 -5.852,-5.852 0,-3.225 2.625,-5.85 5.852,-5.85 l 0,-7.719 c -1.541,0 -3.049,-0.625 -4.137,-1.713 -1.09,-1.09 -1.715,-2.598 -1.715,-4.139 l -7.715,0 c 0,3.227 -2.625,5.852 -5.851,5.852 -3.226,0 -5.851,-2.625 -5.851,-5.852 l -7.715,0 c 0,3.227 -2.625,5.852 -5.851,5.852 -3.226,0 -5.851,-2.625 -5.851,-5.852 l -7.715,0 c 0,3.227 -2.625,5.852 -5.851,5.852 -3.226,0 -5.851,-2.625 -5.851,-5.852 l -7.715,0 c 0,3.227 -2.625,5.852 -5.851,5.852 -3.226,0 -5.851,-2.625 -5.851,-5.852 l -7.715,0 c 0,3.227 -2.625,5.852 -5.851,5.852 -3.226,0 -5.851,-2.625 -5.851,-5.852 l -7.715,0 c 0,3.227 -2.625,5.852 -5.851,5.852 -3.226,0 -5.851,-2.625 -5.851,-5.852 l -7.715,0 c 0,3.227 -2.625,5.852 -5.851,5.852 -3.226,0 -5.851,-2.625 -5.851,-5.852 l -7.715,0 c 0,3.227 -2.625,5.852 -5.851,5.852 -3.226,0 -5.851,-2.625 -5.851,-5.852 l -7.719,0 c 0,1.541 -0.625,3.049 -1.713,4.139 -1.09,1.088 -2.598,1.713 -4.138,1.713 z"
       inkscape:connector-curvature="0" /><path
       style="fill:#ecf0f1"
       id="path2314"
       d="m 249.444,172.681 -87.205,0 4.551,-21.293 53.15,0 4.876,-22.918 -76.394,0 -24.056,113.454 23.081,0 10.563,-49.576 55.361,0 -48.105,47.625 8.452,14.953 c 3.9,-2.6 10.239,-2.926 14.628,-2.926 7.803,0 15.442,2.602 23.404,2.602 7.301,0 14.775,-0.488 26.967,-6.34 l 4.26,-19.992 c -8.291,3.412 -20.558,6.664 -31.227,6.664 -4.386,0 -8.45,-0.975 -12.676,-1.625 l 46.631,-45.348 3.739,-15.28 z"
       inkscape:connector-curvature="0" /></g></svg>