<?xml version="1.0" encoding="UTF-8" standalone="no"?>
<!-- Created with Inkscape (http://www.inkscape.org/) -->

<svg
   xmlns:dc="http://purl.org/dc/elements/1.1/"
   xmlns:cc="http://creativecommons.org/ns#"
   xmlns:rdf="http://www.w3.org/1999/02/22-rdf-syntax-ns#"
   xmlns:svg="http://www.w3.org/2000/svg"
   xmlns="http://www.w3.org/2000/svg"
   xmlns:sodipodi="http://sodipodi.sourceforge.net/DTD/sodipodi-0.dtd"
   xmlns:inkscape="http://www.inkscape.org/namespaces/inkscape"
   version="1.0"
   width="48"
   height="48"
   id="svg11300"
   inkscape:version="0.48.4 r9939"
   sodipodi:docname="gimp.svg">
  <defs
     id="defs24" />
  <metadata
     id="metadata82">
    <rdf:RDF>
      <cc:Work
         rdf:about="">
        <dc:format>image/svg+xml</dc:format>
        <dc:type
           rdf:resource="http://purl.org/dc/dcmitype/StillImage" />
      </cc:Work>
    </rdf:RDF>
  </metadata>
  <sodipodi:namedview
     pagecolor="#ffffff"
     bordercolor="#666666"
     borderopacity="1"
     objecttolerance="10"
     gridtolerance="10"
     guidetolerance="10"
     inkscape:pageopacity="0"
     inkscape:pageshadow="2"
     inkscape:window-width="661"
     inkscape:window-height="595"
     id="namedview80"
     showgrid="false"
     inkscape:zoom="4.9166667"
     inkscape:cx="24"
     inkscape:cy="24"
     inkscape:window-x="1090"
     inkscape:window-y="83"
     inkscape:window-maximized="0"
     inkscape:current-layer="svg11300" />
  <g
     id="layer1">
    <path
       d="m 10.374369,12.467884 c 0,0 2.874509,5.927634 9.599242,5.760407 C 34.066126,17.874738 36.53732,10.523341 36.890873,9.4626804 37.244427,8.4020202 37.785407,8.5626825 37.91048,9.5429474 42.506674,51.262247 6.0135488,33.362123 4.7175144,26.256467 11.965359,24.135147 10.197592,20.069282 10.197592,20.069282 l 0.176777,-7.601398 z"
       style="color:#2c3e50;fill:#d35400;fill-opacity:1;fill-rule:evenodd;stroke:#2c3e50;stroke-width:0.9999997;stroke-linecap:butt;stroke-linejoin:miter;stroke-miterlimit:10;stroke-opacity:1;stroke-dasharray:none;stroke-dashoffset:0;marker:none;visibility:visible;display:inline;overflow:visible"
       id="path4323"
       inkscape:connector-curvature="0" />
    <path
       d="m 15.73779,30.066049 c 6.7389,1.347837 10.170691,0.09809 12.179175,-1.452776 -0.53033,-0.68501 -1.43631,-1.436311 -1.43631,-1.436311 0,0 2.353317,0.653942 3.18198,1.723573 0.82629,1.066568 0.306808,1.723707 0.09056,3.08837 -0.481411,-1.198599 -1.379981,-1.648092 -1.501634,-2.124332 -1.806268,2.496927 -6.306442,2.3932 -12.513772,0.201476 z"
       style="color:#000000;fill:#2c3e50;fill-opacity:1;fill-rule:evenodd;stroke:none;stroke-width:0.9999997;marker:none;visibility:visible;display:inline;overflow:visible"
       id="path6480"
       inkscape:connector-curvature="0" />
    <path
       d="m 72.655224,21.837049 c 4.41e-4,1.757671 -1.42431,3.182778 -3.18198,3.182778 -1.757671,0 -3.182422,-1.425107 -3.181981,-3.182778 -4.41e-4,-1.757671 1.42431,-3.182778 3.181981,-3.182778 1.75767,0 3.182421,1.425107 3.18198,3.182778 z"
       transform="matrix(1.277778,0,0,1.277778,-75.12661,-6.507784)"
       style="color:#000000;fill:#ecf0f1;fill-opacity:1;fill-rule:evenodd;stroke:#7f8c8d;stroke-width:0.78260845;stroke-linecap:butt;stroke-linejoin:miter;stroke-miterlimit:10;stroke-opacity:1;stroke-dasharray:none;stroke-dashoffset:0;marker:none;visibility:visible;display:inline;overflow:visible"
       id="path4357"
       inkscape:connector-curvature="0" />
    <path
       d="m 10.429825,27.228739 c 0,3.368272 -1.9390677,6.098796 -4.331029,6.098796 -2.3919613,0 -4.331029,-2.730524 -4.331029,-6.098796 0,-3.368272 1.9390677,-6.098796 4.331029,-6.098796 2.3919613,0 4.331029,2.730524 4.331029,6.098796 l 0,0 z"
       transform="matrix(0.810984,-0.585069,0.585069,0.810984,-14.77791,6.947121)"
       style="fill:#2c3e50;fill-opacity:1;fill-rule:evenodd;stroke:#2c3e50;stroke-width:0.9999997;stroke-linecap:butt;stroke-linejoin:miter;stroke-miterlimit:10;stroke-opacity:1"
       id="path5198"
       inkscape:connector-curvature="0" />
    <path
       d="m 24.041631,21.837049 c 3.75e-4,1.269469 -1.028628,2.298775 -2.298097,2.298775 -1.269469,0 -2.298472,-1.029306 -2.298097,-2.298775 -3.75e-4,-1.269469 1.028628,-2.298775 2.298097,-2.298775 1.269469,0 2.298472,1.029306 2.298097,2.298775 l 0,0 z"
       transform="matrix(0.851852,0,0,0.851852,-3.926759,3.395528)"
       style="color:#000000;fill:#2c3e50;fill-opacity:1;fill-rule:evenodd;stroke:#4d4d4d;stroke-width:1.17391276;stroke-linecap:butt;stroke-linejoin:miter;stroke-miterlimit:10;stroke-opacity:1;stroke-dasharray:none;stroke-dashoffset:0;marker:none;visibility:visible;display:inline;overflow:visible"
       id="path4359"
       inkscape:connector-curvature="0" />
    <path
       d="m 5.833631,23.251263 c 2.322e-4,1.17177 -0.791292,2.121825 -1.7677669,2.121825 -0.976475,0 -1.7679992,-0.950055 -1.767767,-2.121825 -2.322e-4,-1.17177 0.791292,-2.121825 1.767767,-2.121825 0.9764749,0 1.7679991,0.950055 1.7677669,2.121825 z"
       style="color:#000000;fill:#ecf0f1;fill-opacity:1;fill-rule:evenodd;stroke:none;stroke-width:0.9999997;marker:none;visibility:visible;display:inline;overflow:visible"
       id="path6446"
       inkscape:connector-curvature="0" />
    <path
       d="m 23.157747,20.953165 c 0,0.976311 -0.791456,1.767767 -1.767767,1.767767 -0.976311,0 -1.767767,-0.791456 -1.767767,-1.767767 0,-0.976311 0.791456,-1.767767 1.767767,-1.767767 0.976311,0 1.767767,0.791456 1.767767,1.767767 z"
       transform="matrix(0.766666,0,0,0.766666,-2.556414,5.029841)"
       style="color:#000000;fill:#ecf0f1;fill-opacity:1;fill-rule:evenodd;stroke:none;stroke-width:0.9999997;marker:none;visibility:visible;display:inline;overflow:visible"
       id="path4361"
       inkscape:connector-curvature="0" />
    <path
       d="m 72.655224,21.837049 c 4.41e-4,1.757671 -1.42431,3.182778 -3.18198,3.182778 -1.757671,0 -3.182422,-1.425107 -3.181981,-3.182778 -4.41e-4,-1.757671 1.42431,-3.182778 3.181981,-3.182778 1.75767,0 3.182421,1.425107 3.18198,3.182778 z"
       transform="matrix(1.5,0,0,1.5,-82.16821,-10.91852)"
       style="color:#000000;fill:#ecf0f1;fill-opacity:1;fill-rule:evenodd;stroke:#7f8c8d;stroke-width:0.66666645;stroke-linecap:butt;stroke-linejoin:miter;stroke-miterlimit:10;stroke-opacity:1;stroke-dasharray:none;stroke-dashoffset:0;marker:none;visibility:visible;display:inline;overflow:visible"
       id="path6462"
       inkscape:connector-curvature="0" />
    <path
       d="m 24.041631,21.837049 c 3.75e-4,1.269469 -1.028628,2.298775 -2.298097,2.298775 -1.269469,0 -2.298472,-1.029306 -2.298097,-2.298775 -3.75e-4,-1.269469 1.028628,-2.298775 2.298097,-2.298775 1.269469,0 2.298472,1.029306 2.298097,2.298775 l 0,0 z"
       transform="translate(1.414216,0.707108)"
       style="color:#000000;fill:#2c3e50;fill-opacity:1;fill-rule:evenodd;stroke:#4d4d4d;stroke-width:0.9999997;stroke-linecap:butt;stroke-linejoin:miter;stroke-miterlimit:10;stroke-opacity:1;stroke-dasharray:none;stroke-dashoffset:0;marker:none;visibility:visible;display:inline;overflow:visible"
       id="path6464"
       inkscape:connector-curvature="0" />
    <path
       d="m 23.157747,20.953165 c 0,0.976311 -0.791456,1.767767 -1.767767,1.767767 -0.976311,0 -1.767767,-0.791456 -1.767767,-1.767767 0,-0.976311 0.791456,-1.767767 1.767767,-1.767767 0.976311,0 1.767767,0.791456 1.767767,1.767767 z"
       transform="matrix(0.9,0,0,0.9,3.022883,2.625648)"
       style="color:#000000;fill:#ecf0f1;fill-opacity:1;fill-rule:evenodd;stroke:none;stroke-width:0.9999997;marker:none;visibility:visible;display:inline;overflow:visible"
       id="path6466"
       inkscape:connector-curvature="0" />
    <g
       transform="matrix(-0.114852,-0.389864,0.389864,-0.114852,24.71507,29.68942)"
       id="g8463">
      <path
         d="m -23.364209,23.568336 3.710098,3.469175 C -11.307128,20.656664 -2.5600338,6.9381374 -2.5600338,6.9381374 -0.58371893,4.6957251 -2.6769537,3.1876548 -4.7249404,4.5402186 c 0,0 -12.9703626,10.1148664 -18.6392686,19.0281174 z"
         style="color:#000000;fill:#e67e22;fill-opacity:1;fill-rule:nonzero;stroke:#2c3e50;stroke-width:2.46045303;stroke-linecap:round"
         id="path6937"
         inkscape:connector-curvature="0" />
      <path
         d="m -30.449715,32.813894 2.24632,1.93382 8.492766,-7.367031 0.275061,-0.705828 1.094405,-0.01782 c -0.4375,-1.5625 -2.941514,-4.383455 -4.816514,-4.383455 l 0.08202,1.090075 -0.669991,0.380027 -6.704066,9.070207 z"
         style="color:#000000;fill:#ecf0f1;fill-opacity:1;fill-rule:nonzero;stroke:#2c3e50;stroke-width:2.46045303;stroke-linecap:round"
         id="path6935"
         inkscape:connector-curvature="0" />
      <path
         d="m -45.341208,42.769835 c 10.443958,0 18.370039,1.24373 19.870605,-6.354738 1.209249,-6.123314 -7.210534,-9.057368 -11.38287,-3.590861 -4.019277,5.265971 -8.487735,9.945599 -8.487735,9.945599 z"
         style="color:#000000;fill:#2c3e50;fill-opacity:1;fill-rule:nonzero;stroke:none;stroke-width:0.2;marker:none"
         id="path6933"
         inkscape:connector-curvature="0" />
      <path
         d="m 8.8749989,37.75 c 1.953e-4,0.690494 -0.5595059,1.250353 -1.2499999,1.250353 -0.6904939,0 -1.2501951,-0.559859 -1.2499998,-1.250353 -1.953e-4,-0.690494 0.5595059,-1.250353 1.2499998,-1.250353 0.690494,0 1.2501952,0.559859 1.2499999,1.250353 z"
         transform="matrix(2.069903,0,0,2.069903,-44.75012,-41.50978)"
         style="color:#000000;fill:#bdc3c7;fill-opacity:1;fill-rule:nonzero;stroke:none"
         id="path6971"
         inkscape:connector-curvature="0" />
      <path
         d="m 8.8749989,37.75 c 1.953e-4,0.690494 -0.5595059,1.250353 -1.2499999,1.250353 -0.6904939,0 -1.2501951,-0.559859 -1.2499998,-1.250353 -1.953e-4,-0.690494 0.5595059,-1.250353 1.2499998,-1.250353 0.690494,0 1.2501952,0.559859 1.2499999,1.250353 z"
         transform="matrix(1.396669,0,0,1.396669,-32.05526,-25.87664)"
         style="color:#000000;fill:#ecf0f1;fill-opacity:1;fill-rule:nonzero;stroke:none;stroke-width:1;marker:none"
         id="path6983"
         inkscape:connector-curvature="0" />
      <path
         d="m -38.543723,40.909242 c 0,0 3.72152,0.0943 6.116538,-1.411995 0.847351,-0.532923 1.515774,0.649985 0.493819,1.087367 -2.207394,0.944732 -6.610357,0.324628 -6.610357,0.324628 z"
         style="color:#000000;fill:#bdc3c7;fill-opacity:1;fill-rule:nonzero;stroke:none;stroke-width:1;marker:none;visibility:visible;display:inline;overflow:visible"
         id="path1571"
         inkscape:connector-curvature="0" />
    </g>
    <path
       d="m 23.003067,31.736544 c 1.497372,0.143092 2.849629,-0.272213 3.411893,-0.474047 0.09822,-0.555386 0.536552,-1.621257 2.046088,-1.691468 l -0.53033,-0.928077 c 0,0 -1.966641,1.347921 -4.065864,1.745669 l -0.861787,1.347923 z"
       style="color:#000000;fill:#2c3e50;fill-opacity:1;fill-rule:evenodd;stroke:none;stroke-width:0.9999997;marker:none"
       id="path8532"
       inkscape:connector-curvature="0" />
  </g>
</svg>
