<?xml version="1.0" encoding="UTF-8" standalone="no"?>
<!-- Created with Inkscape (http://www.inkscape.org/) -->

<svg
   xmlns:dc="http://purl.org/dc/elements/1.1/"
   xmlns:cc="http://creativecommons.org/ns#"
   xmlns:rdf="http://www.w3.org/1999/02/22-rdf-syntax-ns#"
   xmlns:svg="http://www.w3.org/2000/svg"
   xmlns="http://www.w3.org/2000/svg"
   xmlns:sodipodi="http://sodipodi.sourceforge.net/DTD/sodipodi-0.dtd"
   xmlns:inkscape="http://www.inkscape.org/namespaces/inkscape"
   width="48"
   height="48"
   id="svg5453"
   version="1.1"
   inkscape:version="0.48.4 r9939"
   sodipodi:docname="goa-account-owncloud.svg">
  <defs
     id="defs5455" />
  <sodipodi:namedview
     id="base"
     pagecolor="#ffffff"
     bordercolor="#666666"
     borderopacity="1.0"
     inkscape:pageopacity="0"
     inkscape:pageshadow="2"
     inkscape:zoom="8.399168"
     inkscape:cx="20.182571"
     inkscape:cy="23.2742"
     inkscape:document-units="px"
     inkscape:current-layer="layer1"
     showgrid="false"
     fit-margin-top="0"
     fit-margin-left="0"
     fit-margin-right="0"
     fit-margin-bottom="0"
     inkscape:window-width="839"
     inkscape:window-height="745"
     inkscape:window-x="975"
     inkscape:window-y="50"
     inkscape:window-maximized="0"
     inkscape:showpageshadow="false"
     borderlayer="true" />
  <metadata
     id="metadata5458">
    <rdf:RDF>
      <cc:Work
         rdf:about="">
        <dc:format>image/svg+xml</dc:format>
        <dc:type
           rdf:resource="http://purl.org/dc/dcmitype/StillImage" />
        <dc:title />
      </cc:Work>
    </rdf:RDF>
  </metadata>
  <g
     inkscape:label="Capa 1"
     inkscape:groupmode="layer"
     id="layer1"
     transform="translate(-384.57143,-499.798)">
    <rect
       style="fill-opacity:0;stroke:none"
       id="rect2991-1-7-1"
       width="60.382175"
       height="60.382175"
       x="378.49942"
       y="-555.06061"
       ry="0"
       transform="scale(1,-1)" />
    <path
       style="fill:#ecf0f1;fill-opacity:1;stroke:none"
       inkscape:connector-curvature="0"
       d="m 431.33382,532.95174 c 0,2.29333 -1.86059,4.15216 -4.15333,4.15216 -2.2927,0 -4.15105,-1.85883 -4.15105,-4.15216 0,-2.29336 1.85834,-4.15222 4.15105,-4.15222 2.29274,0 4.15333,1.85886 4.15333,4.15222 z"
       id="path4217" />
    <path
       style="fill:#ecf0f1;fill-opacity:1;stroke:none"
       inkscape:connector-curvature="0"
       d="m 402.33207,518.71517 c 0,1.96566 -1.59481,3.55901 -3.56003,3.55901 -1.96516,0 -3.55801,-1.59335 -3.55801,-3.55901 0,-1.96569 1.59285,-3.55904 3.55801,-3.55904 1.96522,0 3.56003,1.59335 3.56003,3.55904 z"
       id="path4201" />
    <path
       id="path4219"
       d="m 430.14747,532.95174 c 0,1.63807 -1.32896,2.96582 -2.96666,2.96582 -1.63762,0 -2.96503,-1.32775 -2.96503,-2.96582 0,-1.63812 1.32741,-2.96586 2.96503,-2.96586 1.63769,0 2.96666,1.32774 2.96666,2.96586 z"
       inkscape:connector-curvature="0"
       style="fill:#2980b9;fill-opacity:1;stroke:none" />
    <path
       id="path4203"
       d="m 401.20503,518.71517 c 0,1.34318 -1.08977,2.43197 -2.43269,2.43197 -1.34284,0 -2.43129,-1.08879 -2.43129,-2.43197 0,-1.3432 1.08845,-2.43202 2.43129,-2.43202 1.34292,0 2.43269,1.08882 2.43269,2.43202 z"
       inkscape:connector-curvature="0"
       style="fill:#2980b9;fill-opacity:1;stroke:none" />
    <path
       id="path4197"
       d="m 406.09037,526.39883 c 0,3.60382 -2.92377,6.52485 -6.52663,6.52485 -3.60284,0 -6.52309,-2.92103 -6.52309,-6.52485 0,-3.60383 2.92025,-6.52488 6.52309,-6.52488 3.60286,0 6.52663,2.92105 6.52663,6.52488 z"
       inkscape:connector-curvature="0"
       style="fill:#ecf0f1;fill-opacity:1;stroke:none" />
    <path
       style="fill:#2980b9;fill-opacity:1;stroke:none"
       inkscape:connector-curvature="0"
       d="m 404.90403,526.39883 c 0,2.94856 -2.39216,5.33851 -5.33999,5.33851 -2.94778,0 -5.33706,-2.38993 -5.33706,-5.33851 0,-2.94859 2.38928,-5.33853 5.33706,-5.33853 2.94783,0 5.33999,2.38994 5.33999,5.33853 z"
       id="path4199" />
    <path
       style="fill:#ecf0f1;fill-opacity:1;stroke:none"
       inkscape:connector-curvature="0"
       d="m 419.8357,523.66458 c 0,3.60385 -2.92377,6.52487 -6.52664,6.52487 -3.60282,0 -6.52307,-2.92102 -6.52307,-6.52487 0,-3.60381 2.92025,-6.52486 6.52307,-6.52486 3.60287,0 6.52664,2.92105 6.52664,6.52486 z"
       id="path4209" />
    <path
       id="path4211"
       d="m 418.64937,523.66458 c 0,2.94855 -2.39217,5.33852 -5.33999,5.33852 -2.94776,0 -5.33706,-2.38991 -5.33706,-5.33852 0,-2.94857 2.3893,-5.33852 5.33706,-5.33852 2.94782,0 5.33999,2.38995 5.33999,5.33852 z"
       inkscape:connector-curvature="0"
       style="fill:#2980b9;fill-opacity:1;stroke:none" />
    <path
       id="path4205"
       d="m 412.99779,518.81479 c 0,3.60382 -2.92378,6.52485 -6.52661,6.52485 -3.60285,0 -6.52309,-2.92103 -6.52309,-6.52485 0,-3.60381 2.92024,-6.52488 6.52309,-6.52488 3.60283,0 6.52661,2.92107 6.52661,6.52488 z"
       inkscape:connector-curvature="0"
       style="fill:#ecf0f1;fill-opacity:1;stroke:none" />
    <path
       style="fill:#2980b9;fill-opacity:1;stroke:none"
       inkscape:connector-curvature="0"
       d="m 411.81147,518.81479 c 0,2.94857 -2.39217,5.33852 -5.34,5.33852 -2.94777,0 -5.33706,-2.38993 -5.33706,-5.33852 0,-2.94857 2.38929,-5.33854 5.33706,-5.33854 2.94783,0 5.34,2.38997 5.34,5.33854 z"
       id="path4207" />
    <path
       id="path4213"
       d="m 426.16846,530.20823 c 0,3.60383 -2.92377,6.52486 -6.52662,6.52486 -3.60282,0 -6.52309,-2.92103 -6.52309,-6.52486 0,-3.60384 2.92027,-6.52488 6.52309,-6.52488 3.60285,0 6.52662,2.92104 6.52662,6.52488 z"
       inkscape:connector-curvature="0"
       style="fill:#ecf0f1;fill-opacity:1;stroke:none" />
    <path
       style="fill:#2980b9;fill-opacity:1;stroke:none"
       inkscape:connector-curvature="0"
       d="m 424.98214,530.20823 c 0,2.94854 -2.39217,5.33849 -5.33998,5.33849 -2.94778,0 -5.33707,-2.38991 -5.33707,-5.33849 0,-2.94859 2.38929,-5.33854 5.33707,-5.33854 2.94781,0 5.33998,2.38995 5.33998,5.33854 z"
       id="path4215" />
    <path
       id="path4187"
       d="m 417.49244,528.14817 c 0,4.91429 -3.98696,8.89751 -8.89993,8.89751 -4.91297,0 -8.89514,-3.98322 -8.89514,-8.89751 0,-4.9143 3.98218,-8.89756 8.89514,-8.89756 4.91297,0 8.89993,3.98326 8.89993,8.89756 z"
       inkscape:connector-curvature="0"
       style="fill:#ecf0f1;fill-opacity:1;stroke:none" />
    <path
       style="fill:#2980b9;fill-opacity:1;stroke:none"
       inkscape:connector-curvature="0"
       d="m 416.30611,528.14817 c 0,4.25904 -3.45538,7.71119 -7.71329,7.71119 -4.25789,0 -7.70912,-3.45215 -7.70912,-7.71119 0,-4.25904 3.45123,-7.71121 7.70912,-7.71121 4.25791,0 7.71329,3.45217 7.71329,7.71121 z"
       id="path4160" />
    <path
       style="fill:#ecf0f1;fill-opacity:1;stroke:none"
       inkscape:connector-curvature="0"
       d="m 399.09692,530.54653 c 0,3.6038 -2.92379,6.52484 -6.52663,6.52484 -3.60285,0 -6.5231,-2.92104 -6.5231,-6.52484 0,-3.60384 2.92025,-6.52488 6.5231,-6.52488 3.60284,0 6.52663,2.92104 6.52663,6.52488 z"
       id="path4189" />
    <path
       id="path4191"
       d="m 397.91057,530.54653 c 0,2.94854 -2.39217,5.33851 -5.33999,5.33851 -2.94775,0 -5.33705,-2.38993 -5.33705,-5.33851 0,-2.94861 2.3893,-5.33856 5.33705,-5.33856 2.94783,0 5.33999,2.38995 5.33999,5.33856 z"
       inkscape:connector-curvature="0"
       style="fill:#2980b9;fill-opacity:1;stroke:none" />
    <path
       id="path4193"
       d="m 403.30525,533.29698 c 0,2.29334 -1.86059,4.15218 -4.15332,4.15218 -2.29273,0 -4.15106,-1.85884 -4.15106,-4.15218 0,-2.29336 1.85833,-4.15219 4.15106,-4.15219 2.29273,0 4.15332,1.85883 4.15332,4.15219 z"
       inkscape:connector-curvature="0"
       style="fill:#ecf0f1;fill-opacity:1;stroke:none" />
    <path
       style="fill:#2980b9;fill-opacity:1;stroke:none"
       inkscape:connector-curvature="0"
       d="m 402.1189,533.29698 c 0,1.6381 -1.32898,2.96584 -2.96666,2.96584 -1.63763,0 -2.96503,-1.32774 -2.96503,-2.96584 0,-1.63812 1.3274,-2.96585 2.96503,-2.96585 1.63768,0 2.96666,1.32773 2.96666,2.96585 z"
       id="path4195" />
  </g>
</svg>
