<?xml version="1.0" encoding="UTF-8" standalone="no"?>
<!-- Created with Inkscape (http://www.inkscape.org/) -->

<svg
   xmlns:dc="http://purl.org/dc/elements/1.1/"
   xmlns:cc="http://creativecommons.org/ns#"
   xmlns:rdf="http://www.w3.org/1999/02/22-rdf-syntax-ns#"
   xmlns:svg="http://www.w3.org/2000/svg"
   xmlns="http://www.w3.org/2000/svg"
   xmlns:xlink="http://www.w3.org/1999/xlink"
   xmlns:sodipodi="http://sodipodi.sourceforge.net/DTD/sodipodi-0.dtd"
   xmlns:inkscape="http://www.inkscape.org/namespaces/inkscape"
   width="48"
   height="48"
   id="svg2"
   sodipodi:version="0.32"
   inkscape:version="0.48.4 r9939"
   version="1.0"
   sodipodi:docname="partitionmanager.svg"
   inkscape:output_extension="org.inkscape.output.svg.inkscape">
  <title
     id="title2578">gparted</title>
  <defs
     id="defs4">
    <linearGradient
       id="linearGradient4122">
      <stop
         id="stop4124"
         offset="0"
         style="stop-color:white;stop-opacity:1" />
      <stop
         style="stop-color:#babdb6;stop-opacity:1"
         offset="0.25"
         id="stop4130" />
      <stop
         id="stop4132"
         offset="0.375"
         style="stop-color:#eeeeec;stop-opacity:1" />
      <stop
         style="stop-color:#babdb6;stop-opacity:1"
         offset="0.5"
         id="stop4126" />
      <stop
         id="stop4128"
         offset="1"
         style="stop-color:#eeeeec;stop-opacity:1" />
    </linearGradient>
    <linearGradient
       id="linearGradient4108">
      <stop
         id="stop4110"
         offset="0"
         style="stop-color:#ffffff;stop-opacity:0;" />
      <stop
         id="stop4112"
         offset="1"
         style="stop-color:#ffffff;stop-opacity:1;" />
    </linearGradient>
    <linearGradient
       id="linearGradient4078">
      <stop
         style="stop-color:#d3d7cf;stop-opacity:1"
         offset="0"
         id="stop4080" />
      <stop
         id="stop4082"
         offset="0.5"
         style="stop-color:#babdb6;stop-opacity:1" />
      <stop
         style="stop-color:#eeeeec;stop-opacity:0"
         offset="1"
         id="stop4084" />
    </linearGradient>
    <linearGradient
       id="linearGradient4070">
      <stop
         style="stop-color:white;stop-opacity:1"
         offset="0"
         id="stop4072" />
      <stop
         id="stop4074"
         offset="0.5"
         style="stop-color:white;stop-opacity:1;" />
      <stop
         style="stop-color:#888a85;stop-opacity:1"
         offset="1"
         id="stop4076" />
    </linearGradient>
    <linearGradient
       id="linearGradient3804">
      <stop
         style="stop-color:#2f302e;stop-opacity:1;"
         offset="0"
         id="stop3806" />
      <stop
         style="stop-color:#555753;stop-opacity:1;"
         offset="1"
         id="stop3808" />
    </linearGradient>
    <linearGradient
       id="linearGradient2900">
      <stop
         id="stop2902"
         offset="0"
         style="stop-color:black;stop-opacity:0;" />
      <stop
         style="stop-color:black;stop-opacity:1;"
         offset="0.5"
         id="stop2908" />
      <stop
         id="stop2904"
         offset="1"
         style="stop-color:black;stop-opacity:0;" />
    </linearGradient>
    <linearGradient
       id="linearGradient2909">
      <stop
         id="stop2911"
         offset="0"
         style="stop-color:white;stop-opacity:0;" />
      <stop
         style="stop-color:white;stop-opacity:1;"
         offset="0.5"
         id="stop2917" />
      <stop
         id="stop2913"
         offset="1"
         style="stop-color:white;stop-opacity:0;" />
    </linearGradient>
    <linearGradient
       id="linearGradient3468">
      <stop
         id="stop3470"
         offset="0"
         style="stop-color:#fdfdfc;stop-opacity:1" />
      <stop
         id="stop3472"
         offset="1"
         style="stop-color:white;stop-opacity:0.37121212" />
    </linearGradient>
    <linearGradient
       id="linearGradient2899">
      <stop
         style="stop-color:#555753;stop-opacity:1"
         offset="0"
         id="stop2901" />
      <stop
         style="stop-color:#2e3436;stop-opacity:1"
         offset="1"
         id="stop2903" />
    </linearGradient>
    <linearGradient
       id="linearGradient5690">
      <stop
         id="stop5692"
         offset="0"
         style="stop-color:white;stop-opacity:1;" />
      <stop
         id="stop5694"
         offset="1"
         style="stop-color:#555753;stop-opacity:1" />
    </linearGradient>
    <linearGradient
       id="linearGradient5740">
      <stop
         id="stop5742"
         offset="0"
         style="stop-color:#d0d0cb;stop-opacity:1;" />
      <stop
         id="stop5744"
         offset="1"
         style="stop-color:#babdb6;stop-opacity:1" />
    </linearGradient>
    <linearGradient
       id="linearGradient8613">
      <stop
         id="stop8615"
         offset="0"
         style="stop-color:#babdb6;stop-opacity:1" />
      <stop
         id="stop8617"
         offset="1"
         style="stop-color:#2e3436;stop-opacity:1" />
    </linearGradient>
    <linearGradient
       id="linearGradient8710">
      <stop
         id="stop8712"
         offset="0"
         style="stop-color:black;stop-opacity:1;" />
      <stop
         id="stop8714"
         offset="1"
         style="stop-color:white;stop-opacity:1;" />
    </linearGradient>
    <linearGradient
       id="linearGradient9613">
      <stop
         id="stop9615"
         offset="0"
         style="stop-color:white;stop-opacity:1" />
      <stop
         style="stop-color:white;stop-opacity:1;"
         offset="0.5"
         id="stop9619" />
      <stop
         id="stop9617"
         offset="1"
         style="stop-color:#cccfca;stop-opacity:1" />
    </linearGradient>
    <linearGradient
       id="linearGradient9633">
      <stop
         id="stop9635"
         offset="0"
         style="stop-color:#eeeeec;stop-opacity:1" />
      <stop
         id="stop9639"
         offset="1"
         style="stop-color:#888a85;stop-opacity:1" />
    </linearGradient>
    <linearGradient
       id="linearGradient9641">
      <stop
         id="stop9643"
         offset="0"
         style="stop-color:#babdb6;stop-opacity:1" />
      <stop
         id="stop9645"
         offset="1"
         style="stop-color:#555753;stop-opacity:1" />
    </linearGradient>
    <linearGradient
       id="linearGradient5740-6">
      <stop
         id="stop5742-3"
         offset="0"
         style="stop-color:#d0d0cb;stop-opacity:1;" />
      <stop
         id="stop5744-8"
         offset="1"
         style="stop-color:#babdb6;stop-opacity:1" />
    </linearGradient>
    <linearGradient
       inkscape:collect="always"
       xlink:href="#linearGradient4122"
       id="linearGradient4120"
       x1="19.679014"
       y1="20.903482"
       x2="23.185186"
       y2="32.096901"
       gradientUnits="userSpaceOnUse" />
    <linearGradient
       inkscape:collect="always"
       xlink:href="#linearGradient4122"
       id="linearGradient4138"
       gradientUnits="userSpaceOnUse"
       x1="19.679014"
       y1="20.903482"
       x2="23.185186"
       y2="32.096901" />
  </defs>
  <sodipodi:namedview
     id="base"
     pagecolor="#ffffff"
     bordercolor="#666666"
     borderopacity="1.0"
     inkscape:pageopacity="0.0"
     inkscape:pageshadow="2"
     inkscape:zoom="6.363961"
     inkscape:cx="36.566659"
     inkscape:cy="28.194444"
     inkscape:document-units="px"
     inkscape:current-layer="layer1"
     showgrid="true"
     borderlayer="false"
     inkscape:showpageshadow="false"
     inkscape:snap-nodes="false"
     inkscape:snap-bbox="true"
     gridtolerance="10000"
     inkscape:window-width="761"
     inkscape:window-height="629"
     inkscape:window-x="1091"
     inkscape:window-y="135"
     inkscape:window-maximized="0">
    <inkscape:grid
       type="xygrid"
       id="grid2483"
       empspacing="5"
       visible="true"
       enabled="true" />
  </sodipodi:namedview>
  <metadata
     id="metadata7">
    <rdf:RDF>
      <cc:Work
         rdf:about="">
        <dc:format>image/svg+xml</dc:format>
        <dc:type
           rdf:resource="http://purl.org/dc/dcmitype/StillImage" />
        <dc:creator>
          <cc:Agent>
            <dc:title>Sebastian Kraft</dc:title>
          </cc:Agent>
        </dc:creator>
        <dc:title>gparted</dc:title>
        <dc:description>apps</dc:description>
        <dc:subject>
          <rdf:Bag>
            <rdf:li>system</rdf:li>
            <rdf:li>partition</rdf:li>
            <rdf:li>harddisk</rdf:li>
          </rdf:Bag>
        </dc:subject>
        <dc:date>2008-09-16</dc:date>
        <cc:license
           rdf:resource="http://creativecommons.org/licenses/GPL/2.0/" />
        <dc:contributor>
          <cc:Agent>
            <dc:title>Jakub Steiner, Lapo Calamandrei</dc:title>
          </cc:Agent>
        </dc:contributor>
      </cc:Work>
    </rdf:RDF>
  </metadata>
  <g
     inkscape:label="artwork"
     inkscape:groupmode="layer"
     id="layer1"
     style="display:inline"
     transform="translate(-318,-42)">
    <g
       id="g3519"
       style="display:inline"
       transform="matrix(1.030831,0,0,1.151147,317.61089,32.717216)"
       inkscape:export-filename="/home/lapo/Desktop/uhm.png"
       inkscape:export-xdpi="90"
       inkscape:export-ydpi="90" />
    <g
       style="display:inline"
       id="g5672"
       transform="translate(318,-3.996258)">
      <path
         style="fill:#2c3e50;fill-opacity:1;fill-rule:nonzero;stroke:#2c3e50;stroke-width:1"
         d="m 4.5182287,80.500013 38.9635393,0 c 0.564099,0 1.018229,0.45413 1.018229,1.018229 l 0,2.963543 c 0,1.315584 -0.450231,3.018228 -2.455729,3.018228 L 40.5,87.5 l 0,1 -33,0 0,-1 -1.8567713,1.3e-5 c -1.2712053,0 -2.1432282,-0.884627 -2.1432282,-2.255665 l 0,-3.726106 c 0,-0.564099 0.4541297,-1.018229 1.0182282,-1.018229 z"
         id="path3155"
         sodipodi:nodetypes="ccccccccccccc"
         inkscape:connector-curvature="0" />
    </g>
    <path
       style="fill:#bdc3c7;fill-opacity:1;stroke:#7f8c8d;stroke-width:1.00000024;stroke-linecap:round;stroke-linejoin:miter;stroke-miterlimit:4;stroke-opacity:1;stroke-dashoffset:0;display:inline"
       d="m 11.693127,10.498788 24.572566,0 c 1.68417,0 2.396517,0.117479 3.040019,2.385005 l 5.074491,17.881119 c 0.501024,1.765471 -1.355848,2.735101 -3.040018,2.735101 l -34.7215538,0 c -1.868408,0 -3.4893833,-1.181417 -3.0400182,-2.735101 L 8.8290448,12.611497 c 0.5683008,-1.964905 1.1799122,-2.112709 2.8640822,-2.112709 z"
       id="rect1879"
       sodipodi:nodetypes="cczzcczzc"
       inkscape:export-filename="/home/lapo/Desktop/uhm.png"
       inkscape:export-xdpi="90"
       inkscape:export-ydpi="90"
       transform="translate(318,45.001212)"
       inkscape:connector-curvature="0" />
    <path
       style="color:#000000;fill:#95a5a6;fill-opacity:1;stroke:none;stroke-width:1.00000036;marker:none;visibility:visible;display:inline;overflow:visible"
       d="m 14.3125,15.53125 -3.84375,2.5625 -3.625,12.59375 c 1.4468706,0.699749 3.788925,1.47768 3.59375,3.84375 l 2.0625,0 0,-4.03125 c 2.736722,2.434807 7.088342,4 12,4 7.778123,0 14.190048,-3.94489 14.9375,-9 l 0.21875,0 -2.15625,-7.40625 -5.15625,-2.5625 -18.03125,0 z"
       transform="translate(318,42)"
       id="path1997"
       inkscape:connector-curvature="0" />
    <path
       style="color:#000000;fill:#2c3e50;fill-opacity:1;stroke:none;stroke-width:0.91991049;marker:none;visibility:visible;display:inline;overflow:visible"
       d="M 14.25,20 10.375,22.75 8,31.53125 c 1.2464561,0.670958 2.489039,1.591357 2.34375,3.46875 0,0 14.15625,-0.5 14.15625,-0.5 6.703235,0 12.389849,-2.923325 14.3125,-6.96875 L 37.5,22.75 32.3125,20 14.25,20 z"
       transform="translate(318,42)"
       id="path3008"
       sodipodi:nodetypes="ccccccccc"
       inkscape:connector-curvature="0" />
    <path
       style="color:#000000;fill:#bdc3c7;fill-opacity:1;fill-rule:nonzero;stroke:#555753;stroke-width:0.96564066;marker:none;visibility:visible;display:inline;overflow:visible;enable-background:accumulate"
       d="m 24,16 c -7.728,0 -14,3.584001 -14,8 l 0,8.8125 c 0.304858,0.464446 0.49599,1.009687 0.4375,1.71875 0,0 14.0625,-0.03125 14.0625,-0.03125 5.854688,0 10.995851,-2.23874 13.5,-5.5 l 0,-5 c 0,-4.415999 -6.272001,-8 -14,-8 z"
       transform="matrix(0.96652645,0,0,0.97471764,318.80337,42.87315)"
       id="path4134"
       inkscape:connector-curvature="0" />
    <path
       style="color:#000000;fill:#2c3e50;fill-opacity:1;fill-rule:nonzero;stroke:none;stroke-width:1.00000024;marker:none;visibility:visible;display:inline;overflow:visible;enable-background:accumulate"
       d="m 10,25 0,7.8125 c 0.304858,0.464446 0.49599,1.009687 0.4375,1.71875 0,0 14.0625,-0.03125 14.0625,-0.03125 5.854688,0 10.995851,-2.23874 13.5,-5.5 l 0,-4 c 0,4.415999 -6.272001,8 -14,8 -7.728,0 -14,-3.584001 -14,-8 z"
       transform="translate(318,42)"
       id="path3982"
       inkscape:connector-curvature="0" />
    <path
       transform="matrix(1.4004865,0,0,1.0762795,312.53279,39.417324)"
       style="color:#000000;fill:#bdc3c7;fill-opacity:1;fill-rule:nonzero;stroke:none;stroke-width:1.00000024;marker:none;visibility:visible;display:inline;overflow:visible;enable-background:accumulate"
       d="m 10.330132,31.20256 3.570187,0 0,3.716507 -3.570187,0 0,-3.716507 z"
       id="rect3869"
       inkscape:connector-curvature="0" />
    <path
       transform="matrix(0.33857511,0,0,0.42781677,320.87579,62.112679)"
       style="color:#000000;fill:#4d4d4d;fill-opacity:1;fill-rule:nonzero;stroke:none;stroke-width:1;marker:none;visibility:visible;display:inline;overflow:visible;enable-background:accumulate"
       d="m 32.855967,27.786009 c 0,2.580543 -4.631177,4.674897 -10.337449,4.674897 -5.706271,0 -10.337448,-2.094354 -10.337448,-4.674897 0,-2.580543 4.631177,-4.674897 10.337448,-4.674897 5.706272,0 10.337449,2.094354 10.337449,4.674897 z"
       id="path3814"
       inkscape:connector-curvature="0" />
    <path
       transform="matrix(6.5882368,0,0,-3.8787869,278.2647,191.60603)"
       style="color:#000000;fill:#ecf0f1;fill-opacity:1;fill-rule:nonzero;stroke:none;stroke-width:1;marker:none;visibility:visible;display:inline;overflow:visible"
       d="m 8.15625,30.578125 c 0,0.284625 -0.238,0.515625 -0.53125,0.515625 -0.29325,0 -0.53125,-0.231 -0.53125,-0.515625 0,-0.284625 0.238,-0.515625 0.53125,-0.515625 0.29325,0 0.53125,0.231 0.53125,0.515625 z"
       id="path3903"
       inkscape:connector-curvature="0" />
    <path
       style="color:#000000;fill:#bdc3c7;fill-opacity:1"
       d="M 7.5,31 C 6.0322077,29.683128 5.8193873,30.305642 4.648834,34.173068 5.0028872,35.894701 6.478588,35.599283 8,36 9.6559996,36 11.175583,36.04044 10.736626,34.234111 10.216043,32.678552 9.0629242,31.461221 7.5,31 z"
       transform="translate(318,42)"
       id="path3882"
       sodipodi:nodetypes="ccccc"
       inkscape:connector-curvature="0" />
    <g
       id="g5657"
       transform="translate(325,44.001212)"
       style="opacity:0.3028571;display:inline">
      <path
         style="color:#000000;fill:#ecf0f1;fill-opacity:1"
         d="m 19.251297,35.500008 12.497402,0 c 0.416221,0 0.751301,0.333216 0.751301,0.747122 l 0,0.505747 C 32.5,37.166783 32.16492,37.5 31.748699,37.5 l -12.497402,0 c -0.416221,0 -0.751301,-0.333217 -0.751301,-0.747123 l 0,-0.505747 c 0,-0.413906 0.33508,-0.747122 0.751301,-0.747122 z"
         id="rect5641"
         inkscape:connector-curvature="0" />
    </g>
    <path
       transform="matrix(1.411772,0,0,0.969697,347.98523,45.849697)"
       style="color:#000000;fill:#4d4d4d;fill-opacity:1"
       d="m 8.15625,30.578125 c 0,0.284625 -0.238,0.515625 -0.53125,0.515625 -0.29325,0 -0.53125,-0.231 -0.53125,-0.515625 0,-0.284625 0.238,-0.515625 0.53125,-0.515625 0.29325,0 0.53125,0.231 0.53125,0.515625 z"
       id="path8662"
       inkscape:connector-curvature="0" />
    <path
       transform="matrix(1.411772,0,0,0.969697,314.98523,45.849697)"
       style="color:#000000;fill:#4d4d4d;fill-opacity:1;fill-rule:nonzero;stroke:none;stroke-width:1;marker:none;visibility:visible;display:inline;overflow:visible"
       d="m 8.15625,30.578125 c 0,0.284625 -0.238,0.515625 -0.53125,0.515625 -0.29325,0 -0.53125,-0.231 -0.53125,-0.515625 0,-0.284625 0.238,-0.515625 0.53125,-0.515625 0.29325,0 0.53125,0.231 0.53125,0.515625 z"
       id="path8611"
       inkscape:connector-curvature="0" />
    <path
       transform="matrix(-1.0711586,0,0,1,367.84887,42.263374)"
       style="opacity:0.8825911;color:#000000;fill:#e74c3c;fill-opacity:1;fill-rule:nonzero;stroke:none;stroke-width:1.00000024;marker:none;visibility:visible;display:inline;overflow:visible;enable-background:accumulate"
       d="m 24.131688,31.736626 c -3.607309,0 -6.691105,-0.781854 -9.241857,-2.343146 l 9.241856,-5.656854 z"
       id="path3957"
       inkscape:connector-curvature="0" />
    <path
       transform="matrix(-1.0711586,0,0,1,367.84887,42.263374)"
       style="opacity:0.7651822;color:#000000;fill:#2ecc71;fill-opacity:1;fill-rule:nonzero;stroke:none;stroke-width:1.00000024;marker:none;visibility:visible;display:inline;overflow:visible;enable-background:accumulate"
       d="m 14.889831,29.39348 c -5.101505,-3.122584 -5.101505,-8.191125 0,-11.313709 5.101504,-3.122583 13.382207,-3.122583 18.483712,0 l -9.241856,5.656855 z"
       id="path3959"
       inkscape:connector-curvature="0" />
    <path
       transform="matrix(-1.0711586,0,0,1,367.84887,42.263374)"
       style="opacity:0.90688261;color:#000000;fill:#9b59b6;fill-opacity:1;fill-rule:nonzero;stroke:none;stroke-width:1.00000024;marker:none;visibility:visible;display:inline;overflow:visible;enable-background:accumulate"
       d="m 33.373543,18.079771 c 2.550753,1.561292 3.828103,3.448855 3.828103,5.656855 l -13.069959,0 z"
       id="path3961"
       inkscape:connector-curvature="0" />
    <path
       transform="matrix(-7.529413,0,0,-3.8787893,399.41177,184.6061)"
       style="color:#000000;fill:#ecf0f1;fill-opacity:1;fill-rule:nonzero;stroke:none;stroke-width:1;marker:none;visibility:visible;display:inline;overflow:visible"
       d="m 8.15625,30.578125 c 0,0.284625 -0.238,0.515625 -0.53125,0.515625 -0.29325,0 -0.53125,-0.231 -0.53125,-0.515625 0,-0.284625 0.238,-0.515625 0.53125,-0.515625 0.29325,0 0.53125,0.231 0.53125,0.515625 z"
       id="path4004"
       inkscape:connector-curvature="0" />
    <path
       transform="matrix(-1.3059315,0,0,1.6043135,371.40764,21.422531)"
       style="color:#000000;fill:none;stroke:#7f8c8d;stroke-width:0.69086814;stroke-miterlimit:4;stroke-opacity:1"
       d="m 32.855967,27.786009 c 0,2.580543 -4.631177,4.674897 -10.337449,4.674897 -5.706271,0 -10.337448,-2.094354 -10.337448,-4.674897 0,-2.580543 4.631177,-4.674897 10.337448,-4.674897 5.706272,0 10.337449,2.094354 10.337449,4.674897 z"
       id="path4026"
       inkscape:connector-curvature="0" />
  </g>
</svg>
