<?xml version="1.0" encoding="UTF-8" standalone="no"?>
<!-- Created using Karbon, part of Calligra: http://www.calligra.org/karbon -->

<svg
   xmlns:dc="http://purl.org/dc/elements/1.1/"
   xmlns:cc="http://creativecommons.org/ns#"
   xmlns:rdf="http://www.w3.org/1999/02/22-rdf-syntax-ns#"
   xmlns:svg="http://www.w3.org/2000/svg"
   xmlns="http://www.w3.org/2000/svg"
   xmlns:sodipodi="http://sodipodi.sourceforge.net/DTD/sodipodi-0.dtd"
   xmlns:inkscape="http://www.inkscape.org/namespaces/inkscape"
   width="440pt"
   height="440pt"
   id="svg2"
   version="1.1"
   inkscape:version="0.48.4 r9939"
   sodipodi:docname="homerun.svg">
  <metadata
     id="metadata18">
    <rdf:RDF>
      <cc:Work
         rdf:about="">
        <dc:format>image/svg+xml</dc:format>
        <dc:type
           rdf:resource="http://purl.org/dc/dcmitype/StillImage" />
      </cc:Work>
    </rdf:RDF>
  </metadata>
  <sodipodi:namedview
     pagecolor="#ffffff"
     bordercolor="#666666"
     borderopacity="1"
     objecttolerance="10"
     gridtolerance="10"
     guidetolerance="10"
     inkscape:pageopacity="0"
     inkscape:pageshadow="2"
     inkscape:window-width="640"
     inkscape:window-height="480"
     id="namedview16"
     showgrid="false"
     inkscape:zoom="0.42909091"
     inkscape:cx="275"
     inkscape:cy="275"
     inkscape:window-x="1129"
     inkscape:window-y="75"
     inkscape:window-maximized="0"
     inkscape:current-layer="svg2" />
  <defs
     id="defs4" />
  <g
     id="layer6">
    <path
       id="base01-7-8"
       transform="translate(87.3801, 88.7984)"
       fill="#34495e"
       d="M144.937 0L0 144.938L41.6875 186.625L0 228.312L144.937 373.25L186.625 331.562L228.312 373.25L373.25 228.312L331.562 186.625L373.25 144.938L228.312 0L186.625 41.6875Z" />
  </g>
  <g
     id="g2993">
    <g
       id="layer5"
       transform="translate(23.8938, 25.2672)"
       fill="none">
      <path
         id="base01-8"
         transform="translate(0.579235, 0.625)"
         fill="#2980b9"
         d="M249.532 0C245.698 0 241.876 1.46822 238.938 4.40625L4.40704 238.938C-1.46902 244.814 -1.46902 254.249 4.40704 260.125L238.938 494.656C244.814 500.532 254.25 500.532 260.126 494.656L494.657 260.125C500.533 254.249 500.533 244.814 494.657 238.938L260.126 4.40625C257.188 1.46822 253.366 0 249.532 0ZM207.845 62.9063L249.532 104.594L291.22 62.9063L436.157 207.844L394.47 249.531L436.157 291.219L291.22 436.156L249.532 394.469L207.845 436.156L62.907 291.219L104.595 249.531L62.907 207.844Z" />
    </g>
  </g>
  <g
     id="layer4" />
  <g
     id="layer3" />
  <g
     id="layer7">
    <path
       id="path4691"
       transform="translate(138.652, 80.4739)"
       fill="#ecf0f1"
       stroke="#95a5a6"
       stroke-width="4.00000000000"
       stroke-linecap="butt"
       stroke-linejoin="miter"
       stroke-miterlimit="4.00000000000"
       d="M0 7.0707L89.899 0L89.899 160.606L211.111 4.0404L308.081 25.2525L182.828 186.869L308.081 357.576L213.131 389.899L89.899 212.121L89.899 372.727L0 385.859Z" />
  </g>
</svg>
