<?xml version="1.0" encoding="UTF-8" standalone="no"?>
<!-- Created with Inkscape (http://www.inkscape.org/) -->

<svg
   xmlns:dc="http://purl.org/dc/elements/1.1/"
   xmlns:cc="http://creativecommons.org/ns#"
   xmlns:rdf="http://www.w3.org/1999/02/22-rdf-syntax-ns#"
   xmlns:svg="http://www.w3.org/2000/svg"
   xmlns="http://www.w3.org/2000/svg"
   xmlns:xlink="http://www.w3.org/1999/xlink"
   xmlns:sodipodi="http://sodipodi.sourceforge.net/DTD/sodipodi-0.dtd"
   xmlns:inkscape="http://www.inkscape.org/namespaces/inkscape"
   width="48"
   height="48"
   id="svg2"
   version="1.1"
   inkscape:version="0.48.4 r9939"
   sodipodi:docname="intellij_idea.svg">
  <defs
     id="defs4">
    <linearGradient
       gradientTransform="translate(-1.262207e-7,3.7778125e-5)"
       inkscape:collect="always"
       xlink:href="#linearGradient4678"
       id="linearGradient4101"
       x1="29.109528"
       y1="1049.3851"
       x2="29.109528"
       y2="1007.3748"
       gradientUnits="userSpaceOnUse" />
    <linearGradient
       inkscape:collect="always"
       id="linearGradient4678">
      <stop
         style="stop-color:#0a7fe7;stop-opacity:1"
         offset="0"
         id="stop4680" />
      <stop
         style="stop-color:#50bffc;stop-opacity:1"
         offset="1"
         id="stop4682" />
    </linearGradient>
  </defs>
  <sodipodi:namedview
     id="base"
     pagecolor="#ffffff"
     bordercolor="#666666"
     borderopacity="1.0"
     inkscape:pageopacity="0.0"
     inkscape:pageshadow="2"
     inkscape:zoom="3.2322563"
     inkscape:cx="-8.9857637"
     inkscape:cy="19.964256"
     inkscape:document-units="px"
     inkscape:current-layer="layer1"
     showgrid="false"
     inkscape:window-width="1038"
     inkscape:window-height="674"
     inkscape:window-x="3287"
     inkscape:window-y="1346"
     inkscape:window-maximized="0"
     showguides="false"
     borderlayer="true"
     inkscape:showpageshadow="false" />
  <metadata
     id="metadata7">
    <rdf:RDF>
      <cc:Work
         rdf:about="">
        <dc:format>image/svg+xml</dc:format>
        <dc:type
           rdf:resource="http://purl.org/dc/dcmitype/StillImage" />
        <dc:title />
      </cc:Work>
    </rdf:RDF>
  </metadata>
  <g
     inkscape:label="Capa 1"
     inkscape:groupmode="layer"
     id="layer1"
     transform="translate(0,-1004.3622)">
    <path
       style="fill:#000000"
       d=""
       id="path906"
       inkscape:connector-curvature="0" />
    <path
       style="fill:#ff6600"
       d=""
       id="path3035"
       inkscape:connector-curvature="0"
       transform="translate(0,1004.3622)" />
    <path
       style="fill:#ff6600"
       d=""
       id="path3037"
       inkscape:connector-curvature="0"
       transform="translate(0,1004.3622)" />
    <path
       style="fill:#ff6600"
       d=""
       id="path3039"
       inkscape:connector-curvature="0"
       transform="translate(0,1004.3622)" />
    <path
       style="fill:#ff6600"
       d=""
       id="path3041"
       inkscape:connector-curvature="0"
       transform="translate(0,1004.3622)" />
    <path
       style="fill:#ff6600"
       d=""
       id="path3043"
       inkscape:connector-curvature="0"
       transform="translate(0,1004.3622)" />
    <path
       style="fill:#ff6600"
       d=""
       id="path3045"
       inkscape:connector-curvature="0"
       transform="translate(0,1004.3622)" />
    <path
       style="fill:#ff6600"
       d=""
       id="path3047"
       inkscape:connector-curvature="0"
       transform="translate(0,1004.3622)" />
    <path
       style="fill:#ff6600"
       d=""
       id="path3049"
       inkscape:connector-curvature="0"
       transform="translate(0,1004.3622)" />
    <path
       inkscape:connector-curvature="0"
       style="fill:#2980b9;fill-opacity:1"
       d="m 35.788166,1010.5899 c -0.624355,0 -0.752525,0.014 -1.122133,0.1117 -0.738864,0.1953 -1.310624,0.5342 -1.822911,1.0732 -0.812394,0.8544 -1.303887,2.1086 -1.452563,3.7142 -0.06052,0.6601 -0.05733,24.4939 0.0044,25.1169 0.0981,0.9978 0.320194,1.8354 0.683035,2.5811 0.607676,1.2489 1.605584,2.0152 2.933956,2.2552 l 0.0023,0 c 0.111157,0.019 0.516218,0.032 0.902584,0.024 0.614546,-0.014 0.754422,-0.028 1.086651,-0.1265 1.867204,-0.5519 2.960541,-2.2048 3.186766,-4.8228 0.03395,-0.3922 0.04127,-4.0683 0.03104,-12.8301 -0.01544,-13.5365 0.0046,-12.4904 -0.268335,-13.5752 -0.460375,-1.8238 -1.514751,-3.0067 -3.04262,-3.4104 -0.36966,-0.098 -0.497841,-0.1116 -1.122173,-0.1116 z m -7.897063,0.481 -9.471595,0.014 -9.4693769,0.013 -0.321559,0.091 c -0.874175,0.2525 -1.405284,0.5536 -2.013629,1.151 -0.686475,0.6739 -1.046607,1.3293 -1.230797,2.2285 -0.513899,2.5085 1.238348,4.8977 3.821015,5.2109 0.258551,0.032 1.9077779,0.044 5.0407249,0.044 3.565118,0 4.669042,0.014 4.708077,0.051 0.0679,0.067 0.07211,8.667 0.0044,9.2823 -0.323509,2.9401 -2.132212,5.503 -4.801218,6.7965 -0.500172,0.2423 -1.148689,0.4785 -1.680981,0.6118 -0.694798,0.1741 -1.093504,0.2188 -2.268659,0.2551 -0.9928039,0.031 -1.2309579,0.05 -1.5368329,0.1291 -1.609018,0.4144 -2.814895,1.5959 -3.233337,3.1644 -0.09016,0.3389 -0.10879,0.5071 -0.113108,1.0177 -0.0034,0.3731 0.01757,0.7313 0.05323,0.9114 0.34381,1.7176 1.690513,3.0721 3.424056,3.4437 0.370697,0.078 0.511755,0.083 1.7475109,0.067 1.369803,-0.019 1.906699,-0.059 2.905125,-0.2352 7.186971,-1.2647 12.868882,-6.874 14.155277,-13.972 0.270881,-1.4981 0.253768,-0.8279 0.268336,-11.0028 l 0.01332,-9.2691 z m -17.304344,12.1873 c -0.7324139,-0.026 -1.1625749,0.023 -1.7452929,0.2062 -0.800439,0.2519 -1.667289,0.7835 -2.193258,1.346 -1.423681,1.5222 -1.794771,3.716 -0.940285,5.5724 0.348374,0.7566 1.077694,1.6174 1.763033,2.0777 0.606596,0.4074 1.391431,0.7152 2.097899,0.8248 2.0635469,0.3204 4.1411649,-0.6503 5.2048329,-2.4303 0.875014,-1.4641 0.938008,-3.3157 0.164106,-4.8406 -0.50678,-0.9985 -1.466283,-1.8979 -2.5126,-2.3549 -0.608891,-0.266 -1.114185,-0.3751 -1.838435,-0.4013 z"
       id="path4188-4" />
  </g>
</svg>
