<?xml version="1.0" encoding="UTF-8" standalone="no"?>
<!-- Created with Inkscape (http://www.inkscape.org/) -->

<svg
   xmlns:dc="http://purl.org/dc/elements/1.1/"
   xmlns:cc="http://creativecommons.org/ns#"
   xmlns:rdf="http://www.w3.org/1999/02/22-rdf-syntax-ns#"
   xmlns:svg="http://www.w3.org/2000/svg"
   xmlns="http://www.w3.org/2000/svg"
   xmlns:xlink="http://www.w3.org/1999/xlink"
   xmlns:sodipodi="http://sodipodi.sourceforge.net/DTD/sodipodi-0.dtd"
   xmlns:inkscape="http://www.inkscape.org/namespaces/inkscape"
   version="1.0"
   width="48"
   height="48"
   id="svg2"
   inkscape:version="0.48.4 r9939"
   sodipodi:docname="inkscape-logo.svg">
  <metadata
     id="metadata141">
    <rdf:RDF>
      <cc:Work
         rdf:about="">
        <dc:format>image/svg+xml</dc:format>
        <dc:type
           rdf:resource="http://purl.org/dc/dcmitype/StillImage" />
      </cc:Work>
    </rdf:RDF>
  </metadata>
  <sodipodi:namedview
     pagecolor="#ffffff"
     bordercolor="#666666"
     borderopacity="1"
     objecttolerance="10"
     gridtolerance="10"
     guidetolerance="10"
     inkscape:pageopacity="0"
     inkscape:pageshadow="2"
     inkscape:window-width="677"
     inkscape:window-height="601"
     id="namedview139"
     showgrid="false"
     inkscape:zoom="3.6875"
     inkscape:cx="44.051213"
     inkscape:cy="5.4773885"
     inkscape:window-x="1106"
     inkscape:window-y="216"
     inkscape:window-maximized="0"
     inkscape:current-layer="svg2" />
  <style
     type="text/css"
     id="style26" />
  <g
     transform="matrix(0.36246467,0,0,0.36246467,0.92129554,0.27312251)"
     id="g9139"
     style="display:inline;enable-background:new">
    <g
       transform="translate(3.6896803e-7,0.4883067)"
       id="g6035"
       style="opacity:0.78325124" />
    <path
       d="M 54.1,12.5 12.9,54.7 C -2.7,70.3 23,69 32.3,74.9 36.6,77.7 18.5,81.3 22.2,85 c 3.6,3.7 21.7,7.1 25.3,10.7 3.6,3.7 -7.3,7.6 -3.7,11.3 3.5,3.7 11.9,0.2 13.4,8.6 1.1,6.2 15.4,3.1 21.8,-2.2 4,-3.4 -6.9,-3.4 -3.3,-7.1 9,-9.1 17,-4.1 20.3,-12.5 1.8,-4.5 -13.6,-7.7 -9.5,-10.6 9.8,-6.9 45.8,-10.4 29.2,-27 L 73,12.5 c -5.3,-5 -14,-5 -18.9,0 z m 47.3,81.3 c 0,2.1 16.3,3.3 15.4,-0.5 -1.3,-6.4 -13.6,-5.9 -15.4,0.5 z m -69.5,11.1 c 3.7,3.2 9.3,-0.7 11.1,-5.2 -3.6,-4.7 -16.9,0.3 -11.1,5.2 z m 67.5,-6.7 c -4.6,4.2 0.8,8.6 5.3,5.7 1.2,-0.8 -0.1,-4.7 -5.3,-5.7 z"
       id="use7631"
       style="fill:#2c3e50;fill-opacity:1"
       inkscape:connector-curvature="0" />
    <path
       d="m 70.5,15.5 16.3,16.6 c 1.5,1.5 1.5,4.6 0.6,5.5 L 79.3,31 77.7,40.7 71,37.1 60.1,44 56.5,29.5 50.7,42.1 36.2,42 c -2.8,0 -2.4,-2.9 0.5,-5.8 5.7,-6.3 16.8,-17 20.3,-20.7 3.6,-3.7 9.9,-3.6 13.5,0 z"
       id="icecap"
       style="fill:#ecf0f1"
       inkscape:connector-curvature="0" />
    <path
       d="m 41.742167,78.533037 c 2.231933,1.639226 6.636757,0.650538 9.282124,1.841759 6.349518,2.859218 14.154941,6.045427 12.718568,0.404555 0,0 -1.615771,1.342042 -1.615771,1.342042 0,0 -0.03153,-2.557545 -0.03153,-2.557545 0,0 -3.751977,0.916294 -3.751977,0.916294 0,0 -2.906173,-2.332759 -4.238526,-3.101995 -0.27829,-0.160669 -1.707695,1.292815 -1.707695,1.292815 0,0 -0.25697,-1.543804 -0.25697,-1.543804 -1.857372,-0.197638 -3.696159,-0.284805 -5.31515,-0.271821 -3.880942,0.03112 -6.499059,0.637741 -5.083074,1.6777 z"
       id="path5783"
       style="fill:#bdc3c7;fill-opacity:1;fill-rule:evenodd;stroke:none"
       inkscape:connector-curvature="0" />
  </g>
</svg>
