<?xml version="1.0" encoding="UTF-8" standalone="no"?>
<!-- Created with Inkscape (http://www.inkscape.org/) -->

<svg
   xmlns:dc="http://purl.org/dc/elements/1.1/"
   xmlns:cc="http://creativecommons.org/ns#"
   xmlns:rdf="http://www.w3.org/1999/02/22-rdf-syntax-ns#"
   xmlns:svg="http://www.w3.org/2000/svg"
   xmlns="http://www.w3.org/2000/svg"
   xmlns:xlink="http://www.w3.org/1999/xlink"
   xmlns:sodipodi="http://sodipodi.sourceforge.net/DTD/sodipodi-0.dtd"
   xmlns:inkscape="http://www.inkscape.org/namespaces/inkscape"
   version="1.0"
   width="48"
   height="48"
   id="svg2408"
   inkscape:version="0.48.4 r9939"
   sodipodi:docname="kde-gtk-config.svg">
  <sodipodi:namedview
     pagecolor="#ffffff"
     bordercolor="#666666"
     borderopacity="1"
     objecttolerance="10"
     gridtolerance="10"
     guidetolerance="10"
     inkscape:pageopacity="0"
     inkscape:pageshadow="2"
     inkscape:window-width="862"
     inkscape:window-height="899"
     id="namedview50"
     showgrid="false"
     inkscape:zoom="6.5885181"
     inkscape:cx="33.667515"
     inkscape:cy="43.735107"
     inkscape:window-x="981"
     inkscape:window-y="21"
     inkscape:window-maximized="0"
     inkscape:current-layer="svg2408" />
  <metadata
     id="metadata2413">
    <rdf:RDF>
      <cc:Work
         rdf:about="">
        <dc:format>image/svg+xml</dc:format>
        <dc:type
           rdf:resource="http://purl.org/dc/dcmitype/StillImage" />
        <dc:title />
      </cc:Work>
    </rdf:RDF>
  </metadata>
  <g
     id="layer1"
     transform="matrix(0.59413548,0,0,0.59413548,-4.1122472,-4.4686071)" />
  <g
     id="layer5"
     transform="matrix(0.59413548,0,0,0.59413548,-4.1122472,-4.4686071)" />
  <g
     style="fill:#000000"
     id="g3041"
     transform="matrix(0.35314423,0,0,0.36229464,7.4182685,3.1684793)">
    <g
       style="fill:#34495e"
       id="g3043">
      <path
         style="fill:#f1c40f"
         id="path3045"
         d="M 86.068,0 C 61.466,0 56.851,35.041 70.691,35.041 84.529,35.041 110.671,0 86.068,0 z"
         inkscape:connector-curvature="0" />
      <path
         style="fill:#9b59b6"
         id="path3047"
         d="M 45.217,30.699 C 52.586,31.149 60.671,2.577 46.821,4.374 32.976,6.171 37.845,30.249 45.217,30.699 z"
         inkscape:connector-curvature="0" />
      <path
         style="fill:#8e44ad"
         id="path3049"
         d="M 11.445,48.453 C 16.686,46.146 12.12,23.581 3.208,29.735 -5.7,35.89 6.204,50.759 11.445,48.453 z"
         inkscape:connector-curvature="0" />
      <path
         style="fill:#27ae60"
         id="path3051"
         d="M 26.212,36.642 C 32.451,35.37 32.793,9.778 21.667,14.369 10.539,18.961 19.978,37.916 26.212,36.642 l 0,0 z"
         inkscape:connector-curvature="0" />
      <path
         style="fill:#34495e"
         id="path3053"
         d="m 58.791,93.913 c 1.107,8.454 -6.202,12.629 -13.36,7.179 C 22.644,83.743 83.16,75.088 79.171,51.386 75.86,31.712 15.495,37.769 8.621,68.553 3.968,89.374 27.774,118.26 52.614,118.26 c 12.22,0 26.315,-11.034 28.952,-25.012 C 83.58,82.589 57.867,86.86 58.791,93.913 l 0,0 z"
         inkscape:connector-curvature="0" />
    </g>
  </g>
  <g
     transform="matrix(0.35314423,0,0,0.35314423,7.4182685,3.1684793)"
     id="g4"
     style="fill:#ffcc00">
    <g
       id="g6"
       style="fill:#ffcc00">
      <path
         inkscape:connector-curvature="0"
         d="M 86.068,0 C 61.466,0 56.851,35.041 70.691,35.041 84.529,35.041 110.671,0 86.068,0 z"
         id="path8"
         style="fill:#f1c40f" />
      <path
         inkscape:connector-curvature="0"
         d="M 45.217,30.699 C 52.586,31.149 60.671,2.577 46.821,4.374 32.976,6.171 37.845,30.249 45.217,30.699 z"
         id="path10"
         style="fill:#9b59b6" />
      <path
         inkscape:connector-curvature="0"
         d="M 11.445,48.453 C 16.686,46.146 12.12,23.581 3.208,29.735 -5.7,35.89 6.204,50.759 11.445,48.453 z"
         id="path12"
         style="fill:#8e44ad" />
      <path
         inkscape:connector-curvature="0"
         d="M 26.212,36.642 C 32.451,35.37 32.793,9.778 21.667,14.369 10.539,18.961 19.978,37.916 26.212,36.642 l 0,0 z"
         id="path14"
         style="fill:#27ae60" />
      <path
         inkscape:connector-curvature="0"
         d="m 58.791,93.913 c 1.107,8.454 -6.202,12.629 -13.36,7.179 C 22.644,83.743 83.16,75.088 79.171,51.386 75.86,31.712 15.495,37.769 8.621,68.553 3.968,89.374 27.774,118.26 52.614,118.26 c 12.22,0 26.315,-11.034 28.952,-25.012 C 83.58,82.589 57.867,86.86 58.791,93.913 l 0,0 z"
         id="path16"
         style="fill:#34495e" />
    </g>
  </g>
</svg>
