<?xml version="1.0" encoding="UTF-8" standalone="no"?>
<!-- Created with Inkscape (http://www.inkscape.org/) -->

<svg
   xmlns:dc="http://purl.org/dc/elements/1.1/"
   xmlns:cc="http://creativecommons.org/ns#"
   xmlns:rdf="http://www.w3.org/1999/02/22-rdf-syntax-ns#"
   xmlns:svg="http://www.w3.org/2000/svg"
   xmlns="http://www.w3.org/2000/svg"
   xmlns:xlink="http://www.w3.org/1999/xlink"
   xmlns:sodipodi="http://sodipodi.sourceforge.net/DTD/sodipodi-0.dtd"
   xmlns:inkscape="http://www.inkscape.org/namespaces/inkscape"
   version="1.0"
   width="48"
   height="48"
   id="svg43586"
   inkscape:version="0.48.4 r9939"
   sodipodi:docname="kuser.svg">
  <metadata
     id="metadata170">
    <rdf:RDF>
      <cc:Work
         rdf:about="">
        <dc:format>image/svg+xml</dc:format>
        <dc:type
           rdf:resource="http://purl.org/dc/dcmitype/StillImage" />
      </cc:Work>
    </rdf:RDF>
  </metadata>
  <sodipodi:namedview
     pagecolor="#ffffff"
     bordercolor="#666666"
     borderopacity="1"
     objecttolerance="10"
     gridtolerance="10"
     guidetolerance="10"
     inkscape:pageopacity="0"
     inkscape:pageshadow="2"
     inkscape:window-width="685"
     inkscape:window-height="663"
     id="namedview168"
     showgrid="false"
     inkscape:zoom="5.2149125"
     inkscape:cx="33.766085"
     inkscape:cy="26.964463"
     inkscape:window-x="1113"
     inkscape:window-y="82"
     inkscape:window-maximized="0"
     inkscape:current-layer="svg43586" />
  <g
     transform="matrix(0.35661036,0,0,0.35661036,116.37096,-313.85154)"
     id="layer1">
    <path
       d="m -280.83908,924.27568 c -21.63445,0 -39.1875,17.34747 -39.1875,38.75 l 0,6.125 c 0,6.05287 6.27536,18.75 28.90625,18.75 l 20.53125,0 c 22.63038,0 28.9375,-12.07964 28.9375,-18.75 l 0,-6.125 c 0,-21.40254 -17.55305,-38.75 -39.1875,-38.75 z"
       id="path2214"
       style="fill:#2980b9;fill-opacity:1;stroke:none"
       inkscape:connector-curvature="0" />
    <path
       d="m -280.83908,926.43639 c -20.11022,0 -36.4266,15.9074 -36.4266,35.53322 l 0,5.61655 c 0,5.55039 5.83324,17.1935 26.8697,17.1935 l 19.08475,0 c 21.03599,0 26.89875,-11.07687 26.89875,-17.1935 l 0,-5.61655 c 0,-19.62582 -16.31638,-35.53322 -36.4266,-35.53322 z"
       id="path3193"
       style="fill:#3498db;fill-opacity:1;stroke:none"
       inkscape:connector-curvature="0" />
    <path
       d="m -287.53087,937.94895 c -2.3027,1.97418 -4.96223,3.5307 -3.72122,8.28271 -5.66073,-1.14662 -9.94971,-8.89011 -6.36208,-14.40472 l 10.0833,6.12201 z"
       id="path3249"
       style="fill:#c0392b;fill-opacity:1;fill-rule:evenodd;stroke:#c0392b;stroke-width:1px;stroke-linecap:butt;stroke-linejoin:miter;stroke-opacity:1"
       inkscape:connector-curvature="0" />
    <path
       d="m -274.39626,937.94895 c 2.78286,1.49402 6.04258,3.41066 4.80157,8.16267 4.9405,-2.10693 8.86936,-8.77007 5.28173,-14.28468 l -10.0833,6.12201 z"
       id="path3247"
       style="fill:#c0392b;fill-opacity:1;fill-rule:evenodd;stroke:#c0392b;stroke-width:1px;stroke-linecap:butt;stroke-linejoin:miter;stroke-opacity:1"
       inkscape:connector-curvature="0" />
    <path
       d="m 76.945221,64.499184 a 17.165627,17.165627 0 1 1 -34.331253,0 17.165627,17.165627 0 1 1 34.331253,0 z"
       transform="matrix(1.4960409,0,0,1.4960409,-370.19107,817.20759)"
       id="path2309"
       style="fill:#3498db;fill-opacity:1;stroke:#2980b9;stroke-width:2;stroke-linecap:square;stroke-linejoin:miter;stroke-miterlimit:4;stroke-opacity:1;stroke-dasharray:none;stroke-dashoffset:0"
       inkscape:connector-curvature="0" />
    <path
       d="m -238.37978,942.16146 c -21.63445,0 -39.1875,17.34747 -39.1875,38.75 l 0,6.125 c 0,6.05287 6.27536,18.75004 28.90625,18.75004 l 20.53125,0 c 22.63038,0 28.9375,-12.07968 28.9375,-18.75004 l 0,-6.125 c 0,-21.40254 -17.55305,-38.75 -39.1875,-38.75 z"
       id="path44014"
       style="fill:#2ecc71;fill-opacity:1;stroke:none"
       inkscape:connector-curvature="0" />
    <path
       d="m -245.07157,955.83473 c -2.3027,1.97418 -4.96223,3.5307 -3.72122,8.28271 -5.66073,-1.14662 -9.94971,-8.89011 -6.36208,-14.40472 l 10.0833,6.12201 z"
       id="path44022"
       style="fill:#8e44ad;fill-opacity:1;fill-rule:evenodd;stroke:#8e44ad;stroke-width:1px;stroke-linecap:butt;stroke-linejoin:miter;stroke-opacity:1"
       inkscape:connector-curvature="0" />
    <path
       d="m -254.93334,950.41537 9,5.46875 c -0.98816,0.81483 -2.01362,1.64574 -2.75,2.78125 -0.74928,1.1554 -0.98341,2.74156 -0.65625,4.71875 -2.36917,-0.72853 -4.49352,-2.64468 -5.65625,-5.0625 -1.20326,-2.5021 -1.34831,-5.40312 0.0625,-7.90625 z"
       id="path44028"
       style="fill:#9b59b6;fill-opacity:1;fill-rule:evenodd;stroke:none"
       inkscape:connector-curvature="0" />
    <path
       d="m -231.86267,955.83473 c 2.3027,1.97418 4.96223,3.5307 3.72122,8.28271 5.66073,-1.14662 9.94971,-8.89011 6.36208,-14.40472 l -10.0833,6.12201 z"
       id="path44621"
       style="fill:#9b59b6;fill-opacity:1;fill-rule:evenodd;stroke:#8e44ad;stroke-width:1px;stroke-linecap:butt;stroke-linejoin:miter;stroke-opacity:1"
       inkscape:connector-curvature="0" />
    <path
       d="m 76.945221,64.499184 a 17.165627,17.165627 0 1 1 -34.331253,0 17.165627,17.165627 0 1 1 34.331253,0 z"
       transform="matrix(1.4960409,0,0,1.4960409,-327.73177,835.09337)"
       id="path44030"
       style="fill:#2ecc71;fill-opacity:1;stroke:#27ae60;stroke-width:1.33686185;stroke-linecap:square;stroke-linejoin:miter;stroke-miterlimit:4;stroke-opacity:1;stroke-dasharray:none;stroke-dashoffset:0"
       inkscape:connector-curvature="0" />
  </g>
</svg>
