<?xml version="1.0" encoding="UTF-8" standalone="no"?>
<!-- Created with Inkscape (http://www.inkscape.org/) -->

<svg
   xmlns:dc="http://purl.org/dc/elements/1.1/"
   xmlns:cc="http://creativecommons.org/ns#"
   xmlns:rdf="http://www.w3.org/1999/02/22-rdf-syntax-ns#"
   xmlns:svg="http://www.w3.org/2000/svg"
   xmlns="http://www.w3.org/2000/svg"
   xmlns:sodipodi="http://sodipodi.sourceforge.net/DTD/sodipodi-0.dtd"
   xmlns:inkscape="http://www.inkscape.org/namespaces/inkscape"
   width="48"
   height="48"
   id="svg2"
   version="1.1"
   inkscape:version="0.48.4 r9939"
   sodipodi:docname="lyx.svg"
   inkscape:export-filename="/home/uri/Iconos/NITRUX/apps/16/accessories-text-editor.png"
   inkscape:export-xdpi="30"
   inkscape:export-ydpi="30">
  <defs
     id="defs4" />
  <sodipodi:namedview
     id="base"
     pagecolor="#ffffff"
     bordercolor="#666666"
     borderopacity="1.0"
     inkscape:pageopacity="0.0"
     inkscape:pageshadow="2"
     inkscape:zoom="4.5919486"
     inkscape:cx="18.389851"
     inkscape:cy="17.582038"
     inkscape:document-units="px"
     inkscape:current-layer="layer1"
     showgrid="false"
     inkscape:window-width="530"
     inkscape:window-height="518"
     inkscape:window-x="1242"
     inkscape:window-y="175"
     inkscape:window-maximized="0"
     showguides="false">
    <inkscape:grid
       type="xygrid"
       id="grid3797" />
  </sodipodi:namedview>
  <metadata
     id="metadata7">
    <rdf:RDF>
      <cc:Work
         rdf:about="">
        <dc:format>image/svg+xml</dc:format>
        <dc:type
           rdf:resource="http://purl.org/dc/dcmitype/StillImage" />
        <dc:title />
      </cc:Work>
    </rdf:RDF>
  </metadata>
  <g
     inkscape:label="Capa 1"
     inkscape:groupmode="layer"
     id="layer1"
     transform="translate(0,-1004.3622)">
    <path
       style="fill:#3498db;fill-opacity:1"
       d="m 29.053261,1013.3353 1.885041,7.0933 2.669567,0.3623 -7.107041,10.7574 5.031317,1.6644 3.301545,-4.7807 1.299372,5.8103 7.30862,0.7521 -3.443196,-10.7194 6.099143,-7.1942 -6.788329,-1.5173 -2.724045,3.2906 -1.332061,-4.2575 -6.199933,-1.2613 z m -21.7733161,3.029 -0.1389279,0.1936 -5.6741911,2.8166 7.0471122,17.2895 9.6485789,-5.0559 -2.416233,-5.5895 -3.889938,2.0973 -4.5764011,-11.7516 z m 6.1318321,2.8658 5.355478,12.3836 -1.1441,8.499 6.635782,1.1168 1.601738,-9.4688 6.543164,-9.9099 -7.139729,-0.9698 -2.653224,4.0315 -2.105686,-4.6635 -7.093423,-1.0189 z"
       id="path4411"
       inkscape:connector-curvature="0" />
    <path
       style="fill:#e74c3c;fill-opacity:1"
       d="m 29.053261,1013.3353 1.885041,7.0933 1.994003,0.2698 0.675564,-1.0215 -2.669567,-0.3623 -1.571777,-5.9167 -0.313264,-0.063 z m 16.248947,3.5684 -5.303722,6.2572 0.258785,0.8091 5.840358,-6.8892 -0.795421,-0.1771 z m -43.4567395,2.2829 -0.3786426,0.1879 7.0471122,17.2895 9.6485789,-5.0559 -0.392264,-0.9069 -9.2563149,4.8488 -6.6684696,-16.3634 z m 11.5663085,0.043 5.241069,12.1193 0.114413,-0.8498 -4.840632,-11.1959 -0.514846,-0.074 z m 18.316499,2.5279 -5.867601,8.8887 -1.601738,9.4688 -6.488684,-1.0925 -0.147098,1.0897 6.635782,1.1169 1.601738,-9.4689 0.83356,-1.2639 -0.193407,-0.063 5.690537,-8.6134 -0.463089,-0.063 z m 3.105414,5.5599 -3.301545,4.7807 -4.42658,-1.4656 -0.604737,0.9154 5.031317,1.6643 3.301545,-4.7807 1.299372,5.8102 7.30862,0.752 -0.37047,-1.1522 -6.93815,-0.7138 -1.299372,-5.8103 z"
       id="path4470"
       inkscape:connector-curvature="0" />
    <path
       style="fill:#e74c3c;fill-opacity:1"
       d="m 29.053261,1013.3353 0.157995,0.5912 6.041938,1.2284 1.332061,4.2579 2.724045,-3.2909 6.390619,1.4276 0.39771,-0.4687 -6.788329,-1.5173 -2.724045,3.2906 -1.332061,-4.2575 -6.199933,-1.2613 z m -21.7733161,3.029 -0.1389279,0.1936 -5.6741911,2.8166 0.1879592,0.4657 5.4862319,-2.7241 0.1389279,-0.1933 4.5764011,11.7516 3.889938,-2.0976 2.2201,5.135 0.196133,-0.1036 -2.416233,-5.5896 -3.889938,2.0974 -4.5764011,-11.7516 z m 6.1318321,2.8658 0.258784,0.5966 6.834639,0.9806 2.105686,4.6636 2.653224,-4.0316 6.801948,0.9233 0.337781,-0.5118 -7.139729,-0.9698 -2.653224,4.0315 -2.105686,-4.6635 -7.093423,-1.0189 z m 19.858308,2.073 -6.769257,10.2452 0.302369,0.1009 6.804672,-10.2996 -0.337784,-0.046 z m 6.859155,3.3778 -0.130754,0.1526 3.257962,10.1417 0.185234,0.018 -3.312442,-10.3131 z m -21.419189,7.3576 -1.086896,8.0742 0.07354,0.014 1.070549,-7.9541 -0.05721,-0.1337 z"
       id="path4475"
       inkscape:connector-curvature="0" />
  </g>
</svg>
