<?xml version="1.0" encoding="UTF-8" standalone="no"?>
<!-- Created with Inkscape (http://www.inkscape.org/) -->

<svg
   xmlns:dc="http://purl.org/dc/elements/1.1/"
   xmlns:cc="http://creativecommons.org/ns#"
   xmlns:rdf="http://www.w3.org/1999/02/22-rdf-syntax-ns#"
   xmlns:svg="http://www.w3.org/2000/svg"
   xmlns="http://www.w3.org/2000/svg"
   xmlns:sodipodi="http://sodipodi.sourceforge.net/DTD/sodipodi-0.dtd"
   xmlns:inkscape="http://www.inkscape.org/namespaces/inkscape"
   width="48"
   height="48"
   id="svg2"
   version="1.1"
   inkscape:version="0.48.4 r9939"
   sodipodi:docname="phpstorm.svg">
  <defs
     id="defs4" />
  <sodipodi:namedview
     id="base"
     pagecolor="#ffffff"
     bordercolor="#666666"
     borderopacity="1.0"
     inkscape:pageopacity="0.0"
     inkscape:pageshadow="2"
     inkscape:zoom="9.0356456"
     inkscape:cx="23.88152"
     inkscape:cy="21.198845"
     inkscape:document-units="px"
     inkscape:current-layer="layer1"
     showgrid="false"
     inkscape:window-width="1239"
     inkscape:window-height="740"
     inkscape:window-x="3337"
     inkscape:window-y="1269"
     inkscape:window-maximized="0"
     width="0px"
     height="0px"
     fit-margin-top="0"
     fit-margin-left="0"
     fit-margin-right="0"
     fit-margin-bottom="0">
    <inkscape:grid
       type="xygrid"
       id="grid3850"
       empspacing="5"
       visible="true"
       enabled="true"
       snapvisiblegridlinesonly="true" />
  </sodipodi:namedview>
  <metadata
     id="metadata7">
    <rdf:RDF>
      <cc:Work
         rdf:about="">
        <dc:format>image/svg+xml</dc:format>
        <dc:type
           rdf:resource="http://purl.org/dc/dcmitype/StillImage" />
        <dc:title />
      </cc:Work>
    </rdf:RDF>
  </metadata>
  <g
     inkscape:label="Capa 1"
     inkscape:groupmode="layer"
     id="layer1"
     transform="translate(0,-1004.3622)">
    <path
       style="fill:#9b59b6;fill-opacity:1"
       d="m 5.9251855,1031.8284 0,-10.6373 4.7372235,0 4.737222,0 0,8.0963 0,8.0964 1.162775,0 1.162771,0 0,-3.5119 0,-3.5119 0.557552,-0.2832 c 0.6951,-0.3531 1.102062,-0.3491 1.371847,0.013 0.175729,0.2362 0.181527,0.3423 0.205983,3.7683 l 0.02517,3.5252 1.162366,0 1.162367,0 -0.02475,-4.0266 c -0.02395,-3.8963 -0.03068,-4.0395 -0.207729,-4.4222 -0.355812,-0.7693 -0.937776,-1.1329 -1.805679,-1.1278 -0.612754,0 -1.37399,0.3099 -2.03799,0.8202 l -0.409125,0.3145 0,-3.8754 0,-3.8754 5.16788,0 5.16788,0 0,0.5537 c 0,1.7247 0.587058,3.6717 1.573092,5.2172 0.554307,0.8687 0.929635,1.3034 2.566979,2.9737 0.837145,0.8539 1.661909,1.7713 1.83281,2.0385 1.079197,1.687 0.353046,3.1872 -4.233385,8.7459 l -1.438036,1.743 -1.4427,0 -1.4427,0 0,-2.7307 0,-2.7306 0.322992,0.3147 c 0.419418,0.4087 0.88986,0.5989 1.495708,0.6047 1.337997,0.012 2.227992,-0.7454 2.605941,-2.2194 0.341957,-1.3337 0.394411,-4.5317 0.09735,-5.9351 -0.312552,-1.4763 -1.109471,-2.2038 -2.411769,-2.2017 -0.692004,0 -1.157972,0.1761 -1.739211,0.6523 l -0.371007,0.304 0,-0.4474 0,-0.4476 -0.409124,0.052 c -0.225017,0.028 -0.806405,0.077 -1.291969,0.1096 l -0.882847,0.059 0,7.3087 0,7.309 -6.244522,0 -6.244521,0 0,-2.7232 0,-2.7232 0.354038,0.3199 c 0.46273,0.418 0.865718,0.5788 1.464663,0.5845 1.435966,0.013 2.338309,-0.8552 2.707703,-2.6069 0.178559,-0.8468 0.254442,-3.3228 0.138584,-4.522 -0.135407,-1.4016 -0.357597,-2.035 -0.90426,-2.5784 -0.505842,-0.5028 -0.888124,-0.6514 -1.674895,-0.6514 -0.606411,0 -1.084266,0.1805 -1.676708,0.6334 l -0.409125,0.3128 0,-0.4411 0,-0.4412 -0.4091236,0.052 c -0.225023,0.028 -0.80641,0.077 -1.291974,0.1096 l -0.882847,0.059 0,7.3089 0,7.3087 -0.9474446,0 -0.947445,0 0,-10.6371 z"
       id="path3500"
       inkscape:connector-curvature="0" />
    <path
       style="fill:#9b59b6;fill-opacity:1"
       d="m 25.940801,1035.7536 c -0.471565,-0.3638 -0.458137,-0.274 -0.461063,-3.0858 l -0.0027,-2.6316 0.279927,-0.2693 c 0.574944,-0.5533 1.135039,-0.4523 1.478993,0.2668 0.454027,0.949 0.522627,3.6144 0.130509,5.0708 -0.203858,0.757 -0.884378,1.0668 -1.425624,0.6491 z"
       id="path3502"
       inkscape:connector-curvature="0" />
    <path
       style="fill:#9b59b6;stroke:none;fill-opacity:1"
       d="m 10.738407,1035.611 -0.334392,-0.3343 0,-2.6283 0,-2.6282 0.303039,-0.266 c 0.373789,-0.3282 0.657658,-0.4059 0.986404,-0.2696 0.526406,0.2179 0.76103,0.9688 0.834779,2.6711 0.08227,1.899 -0.153949,3.2379 -0.638537,3.6191 -0.359465,0.2827 -0.762054,0.2255 -1.151293,-0.1638 z"
       id="path3504"
       inkscape:connector-curvature="0" />
    <path
       style="fill:#f39c12;stroke:none;fill-opacity:1"
       d="m 31.312327,1041.1521 c 2.033396,-2.0467 3.191693,-3.5439 3.937381,-5.0897 0.48067,-0.9965 0.666406,-1.7238 0.663322,-2.5975 -0.0041,-1.1683 -0.384682,-1.9749 -1.360301,-2.8834 -3.050677,-2.8406 -4.103367,-4.3932 -4.702218,-6.9357 -0.148988,-0.6325 -0.183573,-1.0604 -0.18792,-2.3255 -0.0047,-1.3498 0.02088,-1.6562 0.19724,-2.3686 0.515325,-2.0816 1.712952,-4.3481 3.08536,-5.8391 l 0.498954,-0.5421 4.731456,0.025 4.731456,0.025 -1.891222,1.8949 c -1.040171,1.0421 -2.116677,2.197 -2.392232,2.5663 -1.826067,2.4476 -2.001645,4.6475 -0.541043,6.7789 0.146084,0.2131 0.693427,0.8527 1.216318,1.4212 0.522891,0.5684 1.128979,1.2661 1.346862,1.5503 1.308372,1.7068 2.137501,3.5 2.452685,5.3046 0.206809,1.184 0.12684,3.1035 -0.174997,4.2006 -0.570677,2.074 -1.522957,3.788 -3.089593,5.5609 l -0.500817,0.5668 -4.662861,0 -4.662862,0 1.305032,-1.3136 z"
       id="path4278"
       inkscape:connector-curvature="0" />
  </g>
</svg>
