<?xml version="1.0" encoding="UTF-8" standalone="no"?>
<!-- Created with Inkscape (http://www.inkscape.org/) -->

<svg
   xmlns:dc="http://purl.org/dc/elements/1.1/"
   xmlns:cc="http://creativecommons.org/ns#"
   xmlns:rdf="http://www.w3.org/1999/02/22-rdf-syntax-ns#"
   xmlns:svg="http://www.w3.org/2000/svg"
   xmlns="http://www.w3.org/2000/svg"
   xmlns:sodipodi="http://sodipodi.sourceforge.net/DTD/sodipodi-0.dtd"
   xmlns:inkscape="http://www.inkscape.org/namespaces/inkscape"
   width="48"
   height="48"
   id="svg2"
   version="1.1"
   inkscape:version="0.48.4 r9939"
   viewBox="0 0 13.546666 13.546668"
   sodipodi:docname="plasma.svg">
  <defs
     id="defs4">
    <style
       id="style2464"
       type="text/css" />
    <style
       type="text/css"
       id="style2464-7" />
  </defs>
  <sodipodi:namedview
     id="base"
     pagecolor="#ffffff"
     bordercolor="#666666"
     borderopacity="1.0"
     inkscape:pageopacity="0"
     inkscape:pageshadow="2"
     inkscape:zoom="8.9002328"
     inkscape:cx="16.629015"
     inkscape:cy="29.828206"
     inkscape:document-units="px"
     inkscape:current-layer="layer1"
     showgrid="false"
     inkscape:showpageshadow="false"
     borderlayer="true"
     units="px"
     fit-margin-top="0"
     fit-margin-left="0"
     fit-margin-right="0"
     fit-margin-bottom="0"
     showguides="true"
     inkscape:window-width="1061"
     inkscape:window-height="846"
     inkscape:window-x="723"
     inkscape:window-y="53"
     inkscape:window-maximized="0">
    <sodipodi:guide
       position="-6.6748425e-06,47.999999"
       orientation="47.999977,0"
       id="guide4120" />
    <sodipodi:guide
       position="-6.6748425e-06,2.2810037e-05"
       orientation="0,48.000004"
       id="guide4122" />
    <sodipodi:guide
       position="47.999997,2.2810037e-05"
       orientation="-47.999977,0"
       id="guide4124" />
    <sodipodi:guide
       position="47.999997,47.999999"
       orientation="0,-48.000004"
       id="guide4126" />
    <sodipodi:guide
       position="3.9999733,44.000154"
       orientation="39.999962,0"
       id="guide4138" />
    <sodipodi:guide
       position="3.9999733,4.0001921"
       orientation="0,40.000003"
       id="guide4140" />
    <sodipodi:guide
       position="43.999976,4.0001921"
       orientation="-39.999962,0"
       id="guide4142" />
    <sodipodi:guide
       position="43.999976,44.000154"
       orientation="0,-40.000003"
       id="guide4144" />
    <sodipodi:guide
       position="6.9999922,47.999999"
       orientation="39.999962,0"
       id="guide4148" />
    <sodipodi:guide
       position="6.9999922,8.0000369"
       orientation="0,34.000006"
       id="guide4150" />
    <sodipodi:guide
       position="40.999998,8.0000369"
       orientation="-39.999962,0"
       id="guide4152" />
    <sodipodi:guide
       position="40.999998,47.999999"
       orientation="0,-34.000006"
       id="guide4154" />
    <sodipodi:guide
       position="14.999993,32.999986"
       orientation="17.999951,0"
       id="guide4158" />
    <sodipodi:guide
       position="14.999993,15.000036"
       orientation="0,17.999998"
       id="guide4160" />
    <sodipodi:guide
       position="32.999991,15.000036"
       orientation="-17.999951,0"
       id="guide4162" />
    <sodipodi:guide
       position="32.999991,32.999986"
       orientation="0,-17.999998"
       id="guide4164" />
    <sodipodi:guide
       position="1.9999969,44.000046"
       orientation="39.999962,0"
       id="guide3279" />
    <sodipodi:guide
       position="1.9999969,4.0000839"
       orientation="0,44.000003"
       id="guide3281" />
    <sodipodi:guide
       position="46,4.0000839"
       orientation="-39.999962,0"
       id="guide3283" />
    <sodipodi:guide
       position="46,44.000046"
       orientation="0,-44.000003"
       id="guide3285" />
  </sodipodi:namedview>
  <metadata
     id="metadata7">
    <rdf:RDF>
      <cc:Work
         rdf:about="">
        <dc:format>image/svg+xml</dc:format>
        <dc:type
           rdf:resource="http://purl.org/dc/dcmitype/StillImage" />
        <dc:title />
      </cc:Work>
    </rdf:RDF>
  </metadata>
  <g
     inkscape:label="Capa 1"
     inkscape:groupmode="layer"
     id="layer1"
     transform="translate(38.119153,-397.84494)">
    <rect
       ry="0.69999695"
       y="399.06592"
       x="-28.785608"
       height="1.3999939"
       width="1.3999939"
       id="rect4266"
       style="fill:#e74c3c;fill-opacity:1;stroke:none" />
    <rect
       style="fill:#2ecc71;fill-opacity:1;stroke:none"
       id="rect4268"
       width="1.3999939"
       height="1.3999939"
       x="-27.034857"
       y="399.89261"
       ry="0.69999695" />
    <path
       style="fill:#f39c12;fill-opacity:1;fill-rule:evenodd;stroke:none"
       d="m -34.683149,401.07765 c -1.752256,1.53307 -3.310646,4.58838 -0.95758,7.21284 2.268236,2.52973 5.576623,2.02789 6.696717,1.41632 1.502895,-0.82064 1.48109,-2.47633 1.374832,-2.87556 -0.384541,-1.4446 -1.427662,-1.85029 -2.093155,-1.76734 -0.805328,0.10032 -2.361676,0.636 -3.277174,-0.66098 -0.775461,-1.09856 -0.07671,-2.68475 0.708301,-3.24269 0.326806,-0.2321 0.315225,-0.7263 -0.09418,-0.97181 -0.817111,-0.25882 -1.895953,0.49445 -2.357739,0.88922 z"
       id="path6657-2"
       inkscape:connector-curvature="0"
       sodipodi:nodetypes="cccccsccc" />
    <path
       style="fill:#000000;fill-opacity:0;stroke:none"
       d="m -32.564825,400.10218 c -2.042564,0 -4.219102,3.16547 -4.269982,5.05365 0,2.82216 2.287815,5.10998 5.109978,5.10998 1.221851,-0.001 2.402439,-0.4423 3.32772,-1.2403 0.01499,-0.0107 0.0297,-0.0254 0.0443,-0.0383 0.514864,-0.4277 0.813023,-1.06209 0.813744,-1.73139 1.23e-4,-1.2448 -1.00886,-2.25404 -2.253661,-2.25422 -0.235981,9.4e-4 -0.470343,0.0389 -0.69453,0.11266 l -0.0031,-0.005 c -0.221494,0.0766 -0.454128,0.11621 -0.688513,0.11709 -1.17517,-5e-5 -2.127819,-0.9527 -2.127881,-2.12787 0.604567,-2.25628 1.35151,-1.5531 1.372105,-2.36578 0,-0.34793 -0.282061,-0.62999 -0.629998,-0.62999 z m 0.517887,7.15364 c -9e-6,0.12846 0.01108,0.25673 0.03282,0.38335 -0.02183,-0.12654 -0.03282,-0.25486 -0.03282,-0.38335 z m 0.637107,1.57061 c 0.104884,0.10808 0.220295,0.20504 0.34453,0.28985 0.186343,0.12773 0.39078,0.22635 0.606482,0.29312 0.13434,0.041 0.272187,0.0695 0.411796,0.0847 -0.139612,-0.0154 -0.277474,-0.0436 -0.411796,-0.0847 -0.215709,-0.0668 -0.420146,-0.16579 -0.606482,-0.29312 -0.12424,-0.085 -0.239648,-0.18189 -0.34453,-0.28985 z m 2.087413,0.6311 c -0.01653,0.004 -0.03314,0.008 -0.04976,0.0107 0.01676,-0.004 0.03323,-0.008 0.04976,-0.0107 z m -0.197411,0.0329 c -0.02907,0.004 -0.05824,0.008 -0.08751,0.0109 0.02924,-0.001 0.05841,-0.005 0.08751,-0.0109 z"
       id="circle4229"
       inkscape:connector-curvature="0"
       sodipodi:nodetypes="ccccccccccccccccccccccccccccc" />
    <rect
       style="fill:#2980b9;fill-opacity:1;stroke:none"
       id="rect4270"
       width="1.3999939"
       height="1.3999939"
       x="-30.855093"
       y="399.17395"
       ry="0.69999695" />
  </g>
</svg>
