<?xml version="1.0" encoding="UTF-8" standalone="no"?>
<svg
   xmlns:dc="http://purl.org/dc/elements/1.1/"
   xmlns:cc="http://creativecommons.org/ns#"
   xmlns:rdf="http://www.w3.org/1999/02/22-rdf-syntax-ns#"
   xmlns:svg="http://www.w3.org/2000/svg"
   xmlns="http://www.w3.org/2000/svg"
   xmlns:sodipodi="http://sodipodi.sourceforge.net/DTD/sodipodi-0.dtd"
   xmlns:inkscape="http://www.inkscape.org/namespaces/inkscape"
   enable-background="new 0 0 24 24"
   height="48"
   id="Layer_1"
   version="1.1"
   viewBox="0 0 24 24"
   width="48"
   xml:space="preserve"
   inkscape:version="0.48.4 r9939"
   sodipodi:docname="preferences-desktop-user.svg"><metadata
     id="metadata9"><rdf:RDF><cc:Work
         rdf:about=""><dc:format>image/svg+xml</dc:format><dc:type
           rdf:resource="http://purl.org/dc/dcmitype/StillImage" /><dc:title></dc:title></cc:Work></rdf:RDF></metadata><defs
     id="defs7" /><sodipodi:namedview
     pagecolor="#ffffff"
     bordercolor="#666666"
     borderopacity="1"
     objecttolerance="10"
     gridtolerance="10"
     guidetolerance="10"
     inkscape:pageopacity="0"
     inkscape:pageshadow="2"
     inkscape:window-width="736"
     inkscape:window-height="768"
     id="namedview5"
     showgrid="false"
     inkscape:zoom="9.8333333"
     inkscape:cx="22.074535"
     inkscape:cy="21.940458"
     inkscape:window-x="120"
     inkscape:window-y="45"
     inkscape:window-maximized="0"
     inkscape:current-layer="Layer_1" /><path
     clip-rule="evenodd"
     d="m 20.946731,20.448808 h -0.934624 c 0,0 -0.934625,0 -0.934625,-0.928874 v -2.320328 c 0,-0.257297 -0.209356,-0.464436 -0.467313,-0.464436 -0.257956,0 -0.467312,0.207139 -0.467312,0.464436 l -0.0074,3.989515 c -5.1e-5,0.565685 -1.878645,2.048167 -6.067633,2.048167 -4.1889882,0 -6.0675839,-1.482482 -6.0675839,-2.048167 l -0.00748,-3.989515 c 0,-0.257297 -0.2093559,-0.464436 -0.4673124,-0.464436 -0.2579563,0 -0.4673122,0.207139 -0.4673122,0.464436 v 2.320328 c 0,0.928874 -0.9346247,0.928874 -0.9346247,0.928874 h -0.934626 c 0,0 -0.9346248,0 -0.9346248,-0.928874 v -3.945857 c 0,-2.714171 2.7029346,-5.016849 6.4769493,-5.889991 0,0 1.1533277,1.028264 3.3366107,1.028264 2.183283,0 3.33661,-1.028264 3.33661,-1.028264 3.774015,0.873142 6.476949,3.17582 6.476949,5.889991 v 3.945857 c 0,0.928874 -0.934625,0.928874 -0.934625,0.928874 z M 12.046301,9.3041769 c -2.3225437,0 -4.2058119,-1.8716813 -4.2058119,-4.1799335 0,-2.3082521 1.8823342,-4.17993355 4.2058119,-4.17993355 2.323476,0 4.20581,1.87168145 4.20581,4.17993355 0,2.3082522 -1.883268,4.1799335 -4.20581,4.1799335 z"
     id="path3"
     inkscape:connector-curvature="0"
     style="fill:#8e44ad;fill-rule:evenodd" /><path
     inkscape:connector-curvature="0"
     style="fill:#34495e;fill-opacity:1;fill-rule:evenodd;stroke:none"
     d="m 17.761557,7.4491518 c -1.981469,0 -3.576657,1.7405353 -3.576657,3.9025422 l 0,3.902543 -1.430663,0 0,7.805085 10.491526,0 0,-7.805085 -1.430662,0 0,-3.902543 c 0,-2.1620069 -1.595189,-3.9025422 -3.576658,-3.9025422 l -0.476886,0 z M 18,9.5305083 c 1.056782,0 1.90755,0.9282847 1.90755,2.0813567 0,0.0035 -9.06e-4,0.0066 -9.53e-4,0.01023 l 9.53e-4,0 0,3.632211 -3.8151,0 0,-3.63221 9.54e-4,0 c -3.8e-5,-0.0035 -9.54e-4,-0.0066 -9.54e-4,-0.01023 0,-1.153071 0.850768,-2.0813565 1.90755,-2.0813565 z"
     id="rect3272" /></svg>