<?xml version="1.0" encoding="UTF-8" standalone="no"?>
<!-- Created with Inkscape (http://www.inkscape.org/) -->

<svg
   xmlns:dc="http://purl.org/dc/elements/1.1/"
   xmlns:cc="http://creativecommons.org/ns#"
   xmlns:rdf="http://www.w3.org/1999/02/22-rdf-syntax-ns#"
   xmlns:svg="http://www.w3.org/2000/svg"
   xmlns="http://www.w3.org/2000/svg"
   xmlns:sodipodi="http://sodipodi.sourceforge.net/DTD/sodipodi-0.dtd"
   xmlns:inkscape="http://www.inkscape.org/namespaces/inkscape"
   width="48"
   height="48"
   id="svg2"
   version="1.1"
   inkscape:version="0.48.4 r9939"
   viewBox="0 0 13.546666 13.546668"
   sodipodi:docname="preferences-system-windows-move.svg">
  <defs
     id="defs41" />
  <sodipodi:namedview
     id="base"
     pagecolor="#ffffff"
     bordercolor="#666666"
     borderopacity="1.0"
     inkscape:pageopacity="0"
     inkscape:pageshadow="2"
     inkscape:zoom="6.2934149"
     inkscape:cx="16.905243"
     inkscape:cy="28.328168"
     inkscape:document-units="px"
     inkscape:current-layer="layer1-1"
     showgrid="false"
     inkscape:showpageshadow="false"
     borderlayer="true"
     units="px"
     fit-margin-top="0"
     fit-margin-left="0"
     fit-margin-right="0"
     fit-margin-bottom="0"
     showguides="true"
     inkscape:window-width="623"
     inkscape:window-height="600"
     inkscape:window-x="1161"
     inkscape:window-y="144"
     inkscape:window-maximized="0">
    <sodipodi:guide
       position="-6.6748425e-06,47.999999"
       orientation="47.999977,0"
       id="guide3279" />
    <sodipodi:guide
       position="-6.6748425e-06,2.2810037e-05"
       orientation="0,48.000004"
       id="guide3281" />
    <sodipodi:guide
       position="47.999997,2.2810037e-05"
       orientation="-47.999977,0"
       id="guide3283" />
    <sodipodi:guide
       position="47.999997,47.999999"
       orientation="0,-48.000004"
       id="guide3285" />
    <sodipodi:guide
       position="8.9999822,39.000078"
       orientation="30.000026,0"
       id="guide3287" />
    <sodipodi:guide
       position="8.9999822,9.0000522"
       orientation="0,29.999999"
       id="guide3289" />
    <sodipodi:guide
       position="38.999981,9.0000522"
       orientation="-30.000026,0"
       id="guide3291" />
    <sodipodi:guide
       position="38.999981,39.000078"
       orientation="0,-29.999999"
       id="guide3293" />
  </sodipodi:namedview>
  <metadata
     id="metadata7">
    <rdf:RDF>
      <cc:Work
         rdf:about="">
        <dc:format>image/svg+xml</dc:format>
        <dc:type
           rdf:resource="http://purl.org/dc/dcmitype/StillImage" />
        <dc:title />
      </cc:Work>
    </rdf:RDF>
  </metadata>
  <g
     inkscape:label="Capa 1"
     inkscape:groupmode="layer"
     id="layer1"
     transform="translate(38.119153,-397.84494)">
    <g
       id="g2900"
       transform="matrix(0.09921811,0,0,0.09921811,-46.602608,373.34007)">
      <path
         sodipodi:nodetypes="ccccccccc"
         id="path2902"
         d="m 83.772,239.27611 119.71329,0 c 1.18742,0 2.14336,1.12849 2.14336,2.53025 l 0,100.56093 c 0,1.40175 -0.95594,2.53025 -2.14336,2.53025 l -119.71329,0 c -1.187418,0 -2.143353,-1.1285 -2.143353,-2.53025 l 0,-100.56093 c 0,-1.40176 0.955935,-2.53025 2.143353,-2.53025 z"
         style="fill:#2c3e50;fill-opacity:1;fill-rule:nonzero;stroke:none"
         transform="matrix(0.8709677,0,0,0.9846487,26.532733,23.273201)"
         inkscape:connector-curvature="0" />
      <path
         sodipodi:nodetypes="cccccccccccccccccc"
         id="path2906"
         d="m 101.16695,260.87613 c -1.00084,0 -1.796369,1.08096 -1.796369,2.43749 l 0,95.12498 c 0,1.35655 0.795529,2.4375 1.796369,2.4375 l 100.92338,0 c 1.00086,0 1.79636,-1.08095 1.79636,-2.4375 l 0,-95.12498 c 0,-1.35653 -0.7955,-2.43749 -1.79636,-2.43749 l -100.92338,0 z m 1.2248,3.65625 98.47377,0 c 0.9508,0 1.71473,1.02406 1.71473,2.29688 l 0,90.24997 c 0,1.2728 -0.76393,2.29687 -1.71473,2.29687 l -98.47377,0 c -0.9508,0 -1.71472,-1.02407 -1.71472,-2.29687 l 0,-90.24997 c 0,-1.27282 0.76392,-2.29688 1.71472,-2.29688 z"
         style="fill:#ecf0f1;fill-opacity:1;fill-rule:nonzero;stroke:none"
         inkscape:connector-curvature="0" />
      <path
         id="path2908"
         d="m 99.370581,296.8761 104.516109,0 0,64 -104.516109,0 0,-64 z"
         style="fill:#ecf0f1;fill-opacity:1;fill-rule:nonzero;stroke:none"
         inkscape:connector-curvature="0" />
      <g
         transform="translate(20,8)"
         id="g2910">
        <g
           id="g2912"
           transform="matrix(1.4999999,0,0,1.4999997,-63.814316,-112.43795)">
          <path
             inkscape:export-ydpi="90"
             inkscape:export-xdpi="90"
             inkscape:export-filename="/home/pinheiro/Desktop/mock2.png"
             sodipodi:type="arc"
             style="fill:#e74c3c;fill-opacity:1;stroke:none"
             id="path2914"
             sodipodi:cx="1055.3002"
             sodipodi:cy="-478.60516"
             sodipodi:rx="5.0602889"
             sodipodi:ry="5.0602889"
             d="m 1060.3605,-478.60516 c 0,2.79472 -2.2656,5.06029 -5.0603,5.06029 -2.7947,0 -5.0603,-2.26557 -5.0603,-5.06029 0,-2.79472 2.2656,-5.06029 5.0603,-5.06029 2.7947,0 5.0603,2.26557 5.0603,5.06029 z"
             transform="matrix(0.7904687,0,0,0.7904687,-678.5531,631.1985)" />
        </g>
        <g
           id="g2916"
           transform="matrix(1.4999999,0,0,1.4999997,-79.814316,-112.43795)">
          <path
             inkscape:export-ydpi="90"
             inkscape:export-xdpi="90"
             inkscape:export-filename="/home/pinheiro/Desktop/mock2.png"
             sodipodi:type="arc"
             style="fill:#f1c40f;fill-opacity:1;stroke:none"
             id="path2918"
             sodipodi:cx="1055.3002"
             sodipodi:cy="-478.60516"
             sodipodi:rx="5.0602889"
             sodipodi:ry="5.0602889"
             d="m 1060.3605,-478.60516 c 0,2.79472 -2.2656,5.06029 -5.0603,5.06029 -2.7947,0 -5.0603,-2.26557 -5.0603,-5.06029 0,-2.79472 2.2656,-5.06029 5.0603,-5.06029 2.7947,0 5.0603,2.26557 5.0603,5.06029 z"
             transform="matrix(0.7904687,0,0,0.7904687,-678.5531,631.1985)" />
        </g>
        <g
           id="g2920"
           transform="matrix(1.4999999,0,0,1.4999997,-95.814316,-112.43795)">
          <path
             inkscape:export-ydpi="90"
             inkscape:export-xdpi="90"
             inkscape:export-filename="/home/pinheiro/Desktop/mock2.png"
             sodipodi:type="arc"
             style="fill:#1abc9c;fill-opacity:1;stroke:none"
             id="path2922"
             sodipodi:cx="1055.3002"
             sodipodi:cy="-478.60516"
             sodipodi:rx="5.0602889"
             sodipodi:ry="5.0602889"
             d="m 1060.3605,-478.60516 c 0,2.79472 -2.2656,5.06029 -5.0603,5.06029 -2.7947,0 -5.0603,-2.26557 -5.0603,-5.06029 0,-2.79472 2.2656,-5.06029 5.0603,-5.06029 2.7947,0 5.0603,2.26557 5.0603,5.06029 z"
             transform="matrix(0.7904687,0,0,0.7904687,-678.5531,631.1985)" />
        </g>
      </g>
      <g
         id="g2924"
         transform="matrix(1.4999999,0,0,1.4999997,-119.81432,-104.43795)">
        <path
           inkscape:export-ydpi="90"
           inkscape:export-xdpi="90"
           inkscape:export-filename="/home/pinheiro/Desktop/mock2.png"
           sodipodi:type="arc"
           style="fill:#bdc3c7;fill-opacity:1;stroke:none"
           id="path2926"
           sodipodi:cx="1055.3002"
           sodipodi:cy="-478.60516"
           sodipodi:rx="5.0602889"
           sodipodi:ry="5.0602889"
           d="m 1060.3605,-478.60516 c 0,2.79472 -2.2656,5.06029 -5.0603,5.06029 -2.7947,0 -5.0603,-2.26557 -5.0603,-5.06029 0,-2.79472 2.2656,-5.06029 5.0603,-5.06029 2.7947,0 5.0603,2.26557 5.0603,5.06029 z"
           transform="matrix(0.7904687,0,0,0.7904687,-678.5531,631.1985)" />
      </g>
    </g>
    <g
       inkscape:label="Capa 1"
       inkscape:groupmode="layer"
       id="layer1-1"
       transform="matrix(0.28222225,0,0,0.28222225,-191.13854,202.68726)">
      <path
         inkscape:connector-curvature="0"
         style="fill:#2980b9;stroke:none"
         d="m 566.2831,715.60533 0,1.94436 0,0.80567 0,4.81252 2.75003,0 0,-2.86817 2.86817,2.86817 1.94435,-1.94435 -2.86817,-2.86817 2.86817,0 0,-2.75003 -4.81252,0 -0.80567,0 -1.94436,0 z m 13.06258,0 0,2.75003 2.86818,0 -2.86818,2.86817 1.94434,1.94435 2.86819,-2.86817 0,2.86817 2.75002,0 0,-5.61819 0,-1.94436 -1.94435,0 -5.6182,0 z m -13.06258,13.06258 0,5.6182 0,1.94435 1.94436,0 0.80567,0 4.81252,0 0,-2.75002 -2.86817,0 2.86817,-2.86818 -1.94435,-1.94435 -2.86817,2.86819 0,-2.86819 -2.75003,0 z m 15.00692,0 -1.94434,1.94435 2.86818,2.86818 -2.86818,0 0,2.75002 5.6182,0 1.94435,0 0,-1.94435 0,-0.80567 0,-4.81253 -2.75002,0 0,2.86819 -2.86819,-2.86819 z"
         id="rect3308" />
    </g>
  </g>
</svg>
