<?xml version="1.0" encoding="UTF-8" standalone="no"?>
<!-- Created using Karbon, part of Calligra: http://www.calligra.org/karbon -->

<svg
   xmlns:dc="http://purl.org/dc/elements/1.1/"
   xmlns:cc="http://creativecommons.org/ns#"
   xmlns:rdf="http://www.w3.org/1999/02/22-rdf-syntax-ns#"
   xmlns:svg="http://www.w3.org/2000/svg"
   xmlns="http://www.w3.org/2000/svg"
   xmlns:sodipodi="http://sodipodi.sourceforge.net/DTD/sodipodi-0.dtd"
   xmlns:inkscape="http://www.inkscape.org/namespaces/inkscape"
   width="38.4pt"
   height="38.4pt"
   id="svg2"
   version="1.1"
   inkscape:version="0.48.4 r9939"
   sodipodi:docname="preferences-desktop-color.svg">
  <metadata
     id="metadata16">
    <rdf:RDF>
      <cc:Work
         rdf:about="">
        <dc:format>image/svg+xml</dc:format>
        <dc:type
           rdf:resource="http://purl.org/dc/dcmitype/StillImage" />
      </cc:Work>
    </rdf:RDF>
  </metadata>
  <sodipodi:namedview
     pagecolor="#ffffff"
     bordercolor="#666666"
     borderopacity="1"
     objecttolerance="10"
     gridtolerance="10"
     guidetolerance="10"
     inkscape:pageopacity="0"
     inkscape:pageshadow="2"
     inkscape:window-width="640"
     inkscape:window-height="480"
     id="namedview14"
     showgrid="false"
     inkscape:zoom="4.9166667"
     inkscape:cx="24"
     inkscape:cy="24"
     inkscape:window-x="1106"
     inkscape:window-y="91"
     inkscape:window-maximized="0"
     inkscape:current-layer="svg2" />
  <defs
     id="defs4" />
  <g
     id="layer1">
    <path
       id="shape0"
       transform="translate(11.8972,4.42926)"
       stroke-miterlimit="2.01260185242"
       d="M 24.4486,11.2006 C 23.6706,4.3859 17.7953,-0.554148 11.1869,0.0499827 4.57839,0.654113 -0.368135,6.58345 0.0215224,13.4337 0.41118,20.284 5.9958,25.5725 12.6272,25.3709 c 6.6313,-0.2017 11.906,-5.8203 11.906,-12.6823"
       inkscape:connector-curvature="0"
       style="fill:#2ecc71;fill-rule:evenodd;stroke:#003bc3;stroke-width:0;stroke-linecap:square;stroke-linejoin:miter;stroke-miterlimit:2.01260185" />
    <path
       id="shape1"
       transform="translate(19.7177,18.5707)"
       stroke-miterlimit="2.00000000000"
       d="M 24.4486,11.2006 C 23.6706,4.3859 17.7953,-0.554148 11.1869,0.0499827 4.57839,0.654113 -0.368135,6.58345 0.0215224,13.4337 0.41118,20.284 5.9958,25.5725 12.6272,25.3709 c 6.6313,-0.2017 11.906,-5.8203 11.906,-12.6823"
       inkscape:connector-curvature="0"
       style="fill:#2980b9;fill-rule:evenodd;stroke:#003bc3;stroke-width:0;stroke-linecap:square;stroke-linejoin:miter;stroke-miterlimit:2" />
    <path
       id="shape2"
       transform="translate(4.00394,18.618)"
       stroke-miterlimit="2.01260185242"
       d="M 24.4486,11.2006 C 23.6706,4.3859 17.7953,-0.554148 11.1869,0.0499827 4.57839,0.654113 -0.368135,6.58345 0.0215224,13.4337 0.41118,20.284 5.9958,25.5725 12.6272,25.3709 c 6.6313,-0.2017 11.906,-5.8203 11.906,-12.6823"
       inkscape:connector-curvature="0"
       style="fill:#e74c3c;fill-rule:evenodd;stroke:#003bc3;stroke-width:0;stroke-linecap:square;stroke-linejoin:miter;stroke-miterlimit:2.01260185" />
    <path
       id="shape01"
       transform="translate(19.82, 21.5468)"
       fill="#9b59b6"
       fill-rule="evenodd"
       stroke="#003bc3"
       stroke-width="0.00000000000"
       stroke-linecap="square"
       stroke-linejoin="bevel"
       d="M4.27873 0C12.1325 6.05777 8.29227 16.6725 4.34708 19.4734C-0.456512 15.435 -2.33675 6.79632 4.27873 0Z" />
    <path
       id="shape11"
       transform="matrix(0.456245,-0.889854,0.889854,0.456245,10.0304,23.3802)"
       d="M 4.52342,0 C 12.4627,5.89828 8.1415,15.7613 4.15335,18.4884 -0.702539,14.5564 -2.16408,6.61738 4.52342,0 z"
       inkscape:connector-curvature="0"
       style="fill:#f39c12;fill-rule:evenodd;stroke:#003bc3;stroke-width:0;stroke-linecap:square;stroke-linejoin:bevel" />
    <path
       id="shape21"
       transform="matrix(0.555658,-0.831411,0.831411,0.555658,19.3614,27.9089)"
       d="M 0,1.00323 C 11.7133,-2.97211 15.7351,5.92394 16.4885,9.285 10.7662,11.9476 2.67721,10.0833 0,1.00323 z"
       inkscape:connector-curvature="0"
       style="fill:#1abc9c;fill-rule:evenodd;stroke:#003bc3;stroke-width:0;stroke-linecap:square;stroke-linejoin:bevel" />
    <path
       id="shape3"
       transform="translate(20.1722,21.0987)"
       d="M 4.14684,0 C 5.08167,0.737228 7.76133,3.94617 8.32405,7.53418 6.01927,8.3927 2.85694,8.30725 0,7.38228 0.582335,5.31199 1.49073,2.43433 4.14684,0 z"
       inkscape:connector-curvature="0"
       style="fill:#c4cbcf;fill-rule:evenodd;stroke:#bdc3c7;stroke-width:0;stroke-linecap:square;stroke-linejoin:bevel" />
  </g>
</svg>
