<?xml version="1.0" encoding="UTF-8" standalone="no"?>
<!-- Created using Karbon, part of Calligra: http://www.calligra.org/karbon -->

<svg
   xmlns:dc="http://purl.org/dc/elements/1.1/"
   xmlns:cc="http://creativecommons.org/ns#"
   xmlns:rdf="http://www.w3.org/1999/02/22-rdf-syntax-ns#"
   xmlns:svg="http://www.w3.org/2000/svg"
   xmlns="http://www.w3.org/2000/svg"
   xmlns:sodipodi="http://sodipodi.sourceforge.net/DTD/sodipodi-0.dtd"
   xmlns:inkscape="http://www.inkscape.org/namespaces/inkscape"
   width="38.4pt"
   height="38.4pt"
   id="svg2"
   version="1.1"
   inkscape:version="0.48.4 r9939"
   sodipodi:docname="preferences-desktop-icons.svg">
  <metadata
     id="metadata14">
    <rdf:RDF>
      <cc:Work
         rdf:about="">
        <dc:format>image/svg+xml</dc:format>
        <dc:type
           rdf:resource="http://purl.org/dc/dcmitype/StillImage" />
      </cc:Work>
    </rdf:RDF>
  </metadata>
  <sodipodi:namedview
     pagecolor="#ffffff"
     bordercolor="#666666"
     borderopacity="1"
     objecttolerance="10"
     gridtolerance="10"
     guidetolerance="10"
     inkscape:pageopacity="0"
     inkscape:pageshadow="2"
     inkscape:window-width="640"
     inkscape:window-height="480"
     id="namedview12"
     showgrid="false"
     inkscape:zoom="4.9166667"
     inkscape:cx="24"
     inkscape:cy="24"
     inkscape:window-x="1087"
     inkscape:window-y="182"
     inkscape:window-maximized="0"
     inkscape:current-layer="svg2" />
  <defs
     id="defs4" />
  <g
     id="layer1">
    <path
       id="shape1"
       transform="translate(26.9513,6.09044)"
       stroke-miterlimit="2.01260185242"
       d="M 15.9427,7.78315 C 15.8384,3.3998 12.2143,-0.0767987 7.83044,0.00129011 3.44655,0.079379 -0.0514868,3.68285 5.73636e-4,8.06712 0.0526341,12.4514 3.63526,15.9708 8.01974,15.9447 12.4041,15.9187 15.9449,12.357 15.9449,7.97247"
       inkscape:connector-curvature="0"
       style="fill:#e74c3c;fill-rule:evenodd;stroke:#003bc3;stroke-width:0;stroke-linecap:square;stroke-linejoin:miter;stroke-miterlimit:2.01260185" />
    <path
       id="shape2"
       transform="translate(6.06439,6.13016)"
       stroke-miterlimit="2.00000000000"
       d="M 15.9427,7.78315 C 15.8384,3.3998 12.2143,-0.0767987 7.83044,0.00129011 3.44655,0.079379 -0.0514868,3.68285 5.73636e-4,8.06712 0.0526341,12.4514 3.63526,15.9708 8.01974,15.9447 12.4041,15.9187 15.9449,12.357 15.9449,7.97247"
       inkscape:connector-curvature="0"
       style="fill:#3498db;fill-rule:evenodd;stroke:#003bc3;stroke-width:0;stroke-linecap:square;stroke-linejoin:miter;stroke-miterlimit:2" />
    <path
       id="shape3"
       transform="translate(5.93619,25.7074)"
       stroke-miterlimit="2.00000000000"
       d="M 15.9427,7.78317 C 15.8385,3.3998 12.2144,-0.0767989 7.83044,0.00129012 3.44656,0.0793792 -0.0514869,3.68285 5.73636e-4,8.06713 0.0526344,12.4514 3.63527,15.9709 8.01977,15.9448 12.4043,15.9188 15.9449,12.357 15.9449,7.97248"
       inkscape:connector-curvature="0"
       style="fill:#2ecc71;fill-rule:evenodd;stroke:#003bc3;stroke-width:0;stroke-linecap:square;stroke-linejoin:miter;stroke-miterlimit:2" />
    <path
       id="shape4"
       transform="translate(26.8886,25.7074)"
       stroke-miterlimit="2.00000000000"
       d="M 15.9427,7.78317 C 15.8385,3.3998 12.2144,-0.0767989 7.83044,0.00129012 3.44656,0.0793792 -0.0514869,3.68285 5.73636e-4,8.06713 0.0526344,12.4514 3.63527,15.9709 8.01977,15.9448 12.4043,15.9188 15.9449,12.357 15.9449,7.97248"
       inkscape:connector-curvature="0"
       style="fill:#f1c40f;fill-rule:evenodd;stroke:#003bc3;stroke-width:0;stroke-linecap:square;stroke-linejoin:miter;stroke-miterlimit:2" />
  </g>
</svg>
