<?xml version="1.0" encoding="UTF-8" standalone="no"?>
<svg
   xmlns:dc="http://purl.org/dc/elements/1.1/"
   xmlns:cc="http://creativecommons.org/ns#"
   xmlns:rdf="http://www.w3.org/1999/02/22-rdf-syntax-ns#"
   xmlns:svg="http://www.w3.org/2000/svg"
   xmlns="http://www.w3.org/2000/svg"
   xmlns:sodipodi="http://sodipodi.sourceforge.net/DTD/sodipodi-0.dtd"
   xmlns:inkscape="http://www.inkscape.org/namespaces/inkscape"
   id="svg2"
   viewBox="0 0 239.77 243.89"
   version="1.0"
   inkscape:version="0.48.4 r9939"
   width="48"
   height="48"
   sodipodi:docname="preferences-desktop-default-applications.svg">
  <defs
     id="defs49" />
  <sodipodi:namedview
     pagecolor="#ffffff"
     bordercolor="#666666"
     borderopacity="1"
     objecttolerance="10"
     gridtolerance="10"
     guidetolerance="10"
     inkscape:pageopacity="0"
     inkscape:pageshadow="2"
     inkscape:window-width="640"
     inkscape:window-height="480"
     id="namedview245"
     showgrid="false"
     inkscape:zoom="2.7369257"
     inkscape:cx="43.035015"
     inkscape:cy="34.25537"
     inkscape:window-x="1104"
     inkscape:window-y="185"
     inkscape:window-maximized="0"
     inkscape:current-layer="svg2" />
  <g
     id="layer1"
     transform="matrix(0.93009372,0,0,0.93009372,-291.00822,-341.80772)">
    <g
       id="g18040">
      <path
         id="path4190"
         d="m 330.73,596.28 25.762,20.808 V 431.798 L 330.73,410.99 v 185.29"
         inkscape:connector-curvature="0"
         style="fill:#34495e" />
      <path
         id="path3925"
         d="m 356.48,431.78 145.66,-29.523 v 185.29 L 356.48,617.07 z"
         inkscape:connector-curvature="0"
         style="fill:#34495e;fill-rule:evenodd" />
      <g
         id="g3760"
         transform="matrix(1.1189,0.16156,0,1.1189,-63.473,-142)">
        <path
           id="rect2061"
           d="m 414.69,656.85 h 105.33 c 0.14252,0 0.25727,0.10841 0.25727,0.24307 10e-6,24.838 2e-5,49.676 4e-5,74.514 0,0.13466 -0.11475,0.24307 -0.25727,0.24307 -35.109,-10e-6 -70.219,-10e-6 -105.33,-10e-6 -0.14253,0 -0.25727,-0.10841 -0.25727,-0.24307 -1e-5,-24.838 -1e-5,-49.676 -1e-5,-74.514 0,-0.13466 0.11474,-0.24307 0.25727,-0.24307 z"
           transform="matrix(0.9448,-0.32766,0,1,0,0)"
           inkscape:connector-curvature="0"
           style="fill:#3498db" />
        <path
           id="path10695"
           d="m 195.61,296.51 c -1e-4,47.496 -22.61,86 -50.5,86 -27.89,-10e-6 -50.5,-38.504 -50.5,-86 6.9e-5,-47.496 22.61,-86 50.501,-86 27.891,1e-5 50.5,38.504 50.5,86 z"
           transform="matrix(0.125,-0.04335,0,0.125,392.17,514.45)"
           inkscape:connector-curvature="0"
           style="fill:#2ecc71" />
        <path
           id="rect10658"
           d="m 414.69,722.97 h 105.33 c 0.14252,0 0.25727,0.10841 0.25727,0.24307 10e-6,2.7963 10e-6,5.5926 10e-6,8.3889 0,0.13466 -0.11475,0.24307 -0.25727,0.24307 -35.109,-1e-5 -70.219,-1e-5 -105.33,-1e-5 -0.14253,0 -0.25727,-0.10841 -0.25727,-0.24307 v -8.3888 c 0,-0.13466 0.11474,-0.24307 0.25727,-0.24307 z"
           transform="matrix(0.9448,-0.32766,0,1,0,0)"
           inkscape:connector-curvature="0"
           style="fill:#2ecc71" />
        <path
           id="rect3389"
           d="m 428.72,526.99 c -0.13466,0.0467 -0.24219,0.19152 -0.24219,0.32618 v 9.5938 c 0,0.13466 0.10753,0.2049 0.24219,0.1582 l 1.3281,-0.46059 -5.043,4.4989 v 31.309 c 12.922,-4.4813 25.844,-8.9626 38.766,-13.444 v -31.309 c -6.4609,-1.2828 -12.922,-2.5656 -19.383,-3.8484 -3.3581,2.9953 -6.7162,5.9906 -10.074,8.9859 v -7.5078 c 0,-0.13466 -0.11143,-0.20354 -0.24609,-0.15684 -1.7826,0.61819 -3.5651,1.2364 -5.3477,1.8546 z"
           inkscape:connector-curvature="0"
           style="fill:#f39c12" />
        <path
           id="path10703"
           d="m 195.61,296.51 c -1e-4,47.496 -22.61,86 -50.5,86 -27.89,-10e-6 -50.5,-38.504 -50.5,-86 6.9e-5,-47.496 22.61,-86 50.501,-86 27.891,1e-5 50.5,38.504 50.5,86 z"
           transform="matrix(0.090346,-0.031332,0,0.085029,402.34,531.11)"
           inkscape:connector-curvature="0"
           style="fill:#2ecc71" />
        <path
           id="path8804"
           d="m 444.12,520.57 c -8.8945,9.474 -17.789,18.948 -26.684,28.422 -0.10897,0.1169 -0.1338,0.27727 -0.0547,0.35881 0.70442,0.72706 1.4088,1.4541 2.1133,2.1812 0.0791,0.0815 0.23088,0.0537 0.33985,-0.0632 8.095,-8.685 16.19,-17.37 24.285,-26.055 8.0938,3.0707 16.188,6.1414 24.281,9.2121 0.10897,0.0413 0.26073,-0.0361 0.33985,-0.17254 0.70572,-1.2161 1.4114,-2.4322 2.1172,-3.6483 0.0791,-0.1364 0.0543,-0.27955 -0.0547,-0.32087 -8.8945,-3.3047 -17.789,-6.6094 -26.684,-9.9141 l 3e-5,3e-5 z"
           inkscape:connector-curvature="0"
           style="fill:#d35400" />
        <path
           id="path11596"
           d="m 158.61,155.01 c -1.4e-4,20.711 -29.55,37.5 -66.001,37.5 -36.451,-2e-5 -66.001,-16.789 -66,-37.5 1.61e-4,-20.711 29.55,-37.5 66.001,-37.5 36.451,3e-5 66,16.789 66,37.5 z"
           transform="matrix(0.063813,-0.02213,0,0.065091,427.61,515.54)"
           inkscape:connector-curvature="0"
           style="fill:#ecf0f1" />
        <path
           id="path7859"
           d="m 430.2,551.89 c 0.82425,1.8327 1.6485,3.6655 2.4728,5.4982 l -5.9307,1.8636 v -6.491 c 1.1527,-0.29027 2.3053,-0.58054 3.458,-0.87082 z"
           inkscape:connector-curvature="0"
           style="fill:#ecf0f1;fill-rule:evenodd" />
        <path
           id="rect6070"
           d="m 426.58,547.72 v 12.438 l 14.324,-4.9676 v -12.438 L 426.58,547.72 z m 1.7162,1.1418 10.6,-3.6762 v 9.1784 l -10.6,3.6762 v -9.1784 z"
           inkscape:connector-curvature="0"
           style="fill:#34495e" />
        <path
           id="path10626"
           d="m 435.91,570.41 c 0,0 -17.375,0.40064 -17.625,6.1123 -0.25,5.71166 12.375,1.8334 17.625,-6.1123 z"
           inkscape:connector-curvature="0"
           style="fill:#2ecc71;fill-rule:evenodd" />
        <path
           id="path10630"
           d="m 446.16,566.86 c 0,0 -17.375,0.40064 -17.625,6.1123 -0.25,5.71166 12.375,1.8334 17.625,-6.1123 z"
           inkscape:connector-curvature="0"
           style="fill:#2ecc71;fill-rule:evenodd" />
        <path
           id="path10691"
           d="m 158.61,155.01 c -1.4e-4,20.711 -29.55,37.5 -66.001,37.5 -36.451,-2e-5 -66.001,-16.789 -66,-37.5 1.61e-4,-20.711 29.55,-37.5 66.001,-37.5 36.451,3e-5 66,16.789 66,37.5 z"
           transform="matrix(0.10442,-0.036214,0,0.12005,403.22,507.96)"
           inkscape:connector-curvature="0"
           style="fill:#ecf0f1" />
        <path
           id="path10679"
           d="m 158.61,155.01 c -1.4e-4,20.711 -29.55,37.5 -66.001,37.5 -36.451,-2e-5 -66.001,-16.789 -66,-37.5 1.61e-4,-20.711 29.55,-37.5 66.001,-37.5 36.451,3e-5 66,16.789 66,37.5 z"
           transform="matrix(0.10526,-0.036506,0,0.12153,404.42,511.59)"
           inkscape:connector-curvature="0"
           style="fill:#ecf0f1" />
        <path
           id="path10687"
           d="m 158.61,155.01 c -1.4e-4,20.711 -29.55,37.5 -66.001,37.5 -36.451,-2e-5 -66.001,-16.789 -66,-37.5 1.61e-4,-20.711 29.55,-37.5 66.001,-37.5 36.451,3e-5 66,16.789 66,37.5 z"
           transform="matrix(0.085054,-0.029497,0,0.086758,403.41,520.87)"
           inkscape:connector-curvature="0"
           style="fill:#ecf0f1" />
        <path
           id="path10675"
           d="m 158.61,155.01 c -1.4e-4,20.711 -29.55,37.5 -66.001,37.5 -36.451,-2e-5 -66.001,-16.789 -66,-37.5 1.61e-4,-20.711 29.55,-37.5 66.001,-37.5 36.451,3e-5 66,16.789 66,37.5 z"
           transform="matrix(0.090107,-0.031249,0,0.10671,398.38,512.32)"
           inkscape:connector-curvature="0"
           style="fill:#ecf0f1" />
        <path
           id="path10662"
           d="m 158.61,155.01 c -1.4e-4,20.711 -29.55,37.5 -66.001,37.5 -36.451,-2e-5 -66.001,-16.789 -66,-37.5 1.61e-4,-20.711 29.55,-37.5 66.001,-37.5 36.451,3e-5 66,16.789 66,37.5 z"
           transform="matrix(0.11116,-0.03855,0,0.11116,391.92,516.48)"
           inkscape:connector-curvature="0"
           style="fill:#ecf0f1" />
        <path
           id="path10683"
           d="m 158.61,155.01 c -1.4e-4,20.711 -29.55,37.5 -66.001,37.5 -36.451,-2e-5 -66.001,-16.789 -66,-37.5 1.61e-4,-20.711 29.55,-37.5 66.001,-37.5 36.451,3e-5 66,16.789 66,37.5 z"
           transform="matrix(0.089265,-0.030957,0,0.10306,395.62,521.93)"
           inkscape:connector-curvature="0"
           style="fill:#ecf0f1" />
        <path
           id="path10699"
           d="m 195.61,296.51 c -1e-4,47.496 -22.61,86 -50.5,86 -27.89,-10e-6 -50.5,-38.504 -50.5,-86 6.9e-5,-47.496 22.61,-86 50.501,-86 27.891,1e-5 50.5,38.504 50.5,86 z"
           transform="matrix(0.092822,-0.032191,0,0.09375,391.98,529.37)"
           inkscape:connector-curvature="0"
           style="fill:#2ecc71" />
        <path
           id="rect11646"
           d="m 395.47,581.94 c -1.7239,0.61095 -3.1608,1.4035 -3.9375,2.4319 v 3.5234 c 2.5812,2.6481 12.503,-1.1743 17.004,-7.9868 0,0 -7.8434,0.18041 -13.066,2.0314 z"
           inkscape:connector-curvature="0"
           style="fill:#2ecc71" />
        <path
           id="path10707"
           d="m 404.28,554.63 2.875,6.378 -0.625,17.592 c -1.75,2.0236 -3.5,4.0471 -5.25,6.0707 2.375,-1.5736 4.75,-3.1473 7.125,-4.721 l 3.5,4.9112 c -0.125,-2.2483 -0.25,-4.4966 -0.375,-6.745 l 7.25,-0.51429 c -2.0833,-0.6525 -4.1667,-1.305 -6.25,-1.9575 -0.41667,-4.9805 -0.83333,-9.961 -1.25,-14.942 1.3333,-2.4207 2.6667,-4.8415 4,-7.2622 -1.5417,1.7846 -3.0833,3.5693 -4.625,5.354 -0.16667,-5.0255 -0.33333,-10.051 -0.5,-15.077 -0.625,5.1334 -1.25,10.267 -1.875,15.4 -1.3333,-1.4959 -2.6667,-2.9919 -4,-4.4878 z"
           inkscape:connector-curvature="0"
           style="fill:#d35400" />
        <path
           id="path11606"
           d="m 158.61,155.01 c -1.4e-4,20.711 -29.55,37.5 -66.001,37.5 -36.451,-2e-5 -66.001,-16.789 -66,-37.5 1.61e-4,-20.711 29.55,-37.5 66.001,-37.5 36.451,3e-5 66,16.789 66,37.5 z"
           transform="matrix(0.09159,-0.031763,0,0.093424,430.86,506.81)"
           inkscape:connector-curvature="0"
           style="fill:#ecf0f1" />
        <path
           id="path11610"
           d="m 158.61,155.01 c -1.4e-4,20.711 -29.55,37.5 -66.001,37.5 -36.451,-2e-5 -66.001,-16.789 -66,-37.5 1.61e-4,-20.711 29.55,-37.5 66.001,-37.5 36.451,3e-5 66,16.789 66,37.5 z"
           transform="matrix(0.14987,-0.051977,0,0.096758,434.16,502.53)"
           inkscape:connector-curvature="0"
           style="fill:#ecf0f1" />
      </g>
      <path
         id="path4184"
         d="m 330.64,410.99 25.762,20.808 145.66,-29.523 L 476.3,381.467 330.64,410.99"
         inkscape:connector-curvature="0"
         style="fill:#34495e" />
      <g
         id="g18020">
        <path
           id="path5872"
           d="m 552.43,551.38 c 0,34.662 -28.099,62.762 -62.762,62.762 -34.662,0 -62.762,-28.099 -62.762,-62.762 0,-34.662 28.099,-62.762 62.762,-62.762 34.662,0 62.762,28.099 62.762,62.762 z m 3.8354,0 c 0,36.781 -29.817,66.597 -66.597,66.597 -36.781,0 -66.597,-29.817 -66.597,-66.597 0,-36.781 29.817,-66.597 66.597,-66.597 36.781,0 66.597,29.817 66.597,66.597 z"
           inkscape:connector-curvature="0"
           style="fill:#ecf0f1;fill-rule:evenodd;stroke:#2c3e50;stroke-width:5px" />
        <path
           id="path5901"
           d="m 553.31,551.38 c 0,35.147 -28.492,63.64 -63.64,63.64 -35.147,0 -63.64,-28.492 -63.64,-63.64 0,-35.147 28.492,-63.64 63.64,-63.64 35.147,0 63.64,28.492 63.64,63.64 z m 121.12,-10e-6 c 0,102.04 -82.72,184.76 -184.76,184.76 -102.04,0 -184.76,-82.72 -184.76,-184.76 0,-102.04 82.72,-184.76 184.76,-184.76 102.04,0 184.76,82.72 184.76,184.76 z"
           transform="matrix(0.34444,0,0,0.34444,321.01,361.46)"
           inkscape:connector-curvature="0"
           style="fill:#bdc3c7;fill-rule:evenodd" />
        <g
           id="g18006"
           style="opacity:0.54259997">
          <path
             id="path16597"
             d="m 430.31,529.03 c -1.0697,2.8552 -1.9434,5.7841 -2.5963,8.7838 l 40.736,8.9493 c 0.22939,-1.0782 0.54681,-2.1372 0.93225,-3.1615 l -39.071,-14.572 z"
             inkscape:connector-curvature="0"
             style="fill:#e74c3c" />
          <path
             id="path16615"
             d="m 433.92,521.04 c -1.4679,2.713 -2.7286,5.5204 -3.7924,8.4249 l 39.188,14.282 c 0.38767,-1.0528 0.83963,-2.0764 1.3813,-3.0554 l -36.777,-19.651 z"
             inkscape:connector-curvature="0"
             style="fill:#e67e22" />
          <path
             id="path16617"
             d="m 444.31,506.9 c -2.1908,2.2552 -4.2298,4.68 -6.0565,7.2198 l 34.107,24.055 c 0.70359,-0.94115 1.4772,-1.8406 2.3278,-2.662 l -30.38,-28.62 z"
             inkscape:connector-curvature="0"
             style="fill:#27ae60" />
          <path
             id="path16619"
             d="m 458.6,495.89 c -2.7845,1.5708 -5.4232,3.3481 -7.9007,5.2875 l 26.497,32.241 c 0.98455,-0.69887 2.0496,-1.3143 3.1602,-1.8497 l -21.696,-35.695 c -0.0177,0.01 -0.0426,0.006 -0.0604,0.0162 z"
             inkscape:connector-curvature="0"
             style="fill:#8e44ad" />
          <path
             id="path17318"
             d="m 549.01,573.36 c 1.0697,-2.8552 1.9434,-5.7841 2.5963,-8.7838 l -40.736,-8.9493 c -0.22939,1.0782 -0.54681,2.1372 -0.93225,3.1615 l 39.071,14.572 z"
             inkscape:connector-curvature="0"
             style="fill:#e74c3c" />
          <path
             id="path17322"
             d="m 528.72,601.12 c 2.5109,-1.9745 4.8514,-4.1038 7.0177,-6.4097 l -30.832,-28.135 c -0.84878,0.85081 -1.7451,1.6431 -2.7349,2.3504 l 26.55,32.194 z"
             inkscape:connector-curvature="0"
             style="fill:#2980b9" />
          <path
             id="path17324"
             d="m 545.39,581.35 c 1.4679,-2.713 2.7286,-5.5204 3.7924,-8.4249 l -39.188,-14.282 c -0.38767,1.0528 -0.83963,2.0764 -1.3813,3.0554 l 36.777,19.651 z"
             inkscape:connector-curvature="0"
             style="fill:#e67e22" />
          <path
             id="path17326"
             d="m 535.01,595.48 c 2.1908,-2.2552 4.2298,-4.68 6.0565,-7.2198 l -34.107,-24.055 c -0.70359,0.94115 -1.4772,1.8406 -2.3278,2.662 l 30.378,28.613 z"
             inkscape:connector-curvature="0"
             style="fill:#27ae60" />
          <path
             id="path17328"
             d="m 520.72,606.5 c 2.7845,-1.5708 5.4232,-3.3481 7.9007,-5.2875 l -26.497,-32.241 c -0.98455,0.69887 -2.0496,1.3143 -3.1602,1.8497 l 21.696,35.695 c 0.0177,-0.01 0.0426,-0.006 0.0604,-0.0162 z"
             inkscape:connector-curvature="0"
             style="fill:#8e44ad" />
        </g>
        <path
           id="path5899"
           style="color:#000000;fill:#ecf0f1;fill-rule:evenodd;stroke:#2c3e50;stroke-width:16px"
           d="m 553.31,551.38 c 0,35.147 -28.492,63.64 -63.64,63.64 -35.147,0 -63.64,-28.492 -63.64,-63.64 0,-35.147 28.492,-63.64 63.64,-63.64 35.147,0 63.64,28.492 63.64,63.64 z m 82.496,3e-5 c 0,80.708 -65.427,146.14 -146.14,146.14 -80.708,0 -146.14,-65.427 -146.14,-146.14 0,-80.708 65.427,-146.14 146.14,-146.14 80.708,0 146.14,65.427 146.14,146.14 z"
           transform="matrix(0.15,0,0,0.15,416.22,468.67)"
           inkscape:connector-curvature="0" />
      </g>
    </g>
  </g>
  <metadata
     id="metadata243">
    <rdf:RDF>
      <cc:Work>
        <dc:format>image/svg+xml</dc:format>
        <dc:type
           rdf:resource="http://purl.org/dc/dcmitype/StillImage" />
        <cc:license
           rdf:resource="http://creativecommons.org/licenses/publicdomain/" />
        <dc:publisher>
          <cc:Agent
             rdf:about="http://openclipart.org/">
            <dc:title>Openclipart</dc:title>
          </cc:Agent>
        </dc:publisher>
        <dc:title>Add/Remove Programs icon</dc:title>
        <dc:date>2010-12-31T21:05:27</dc:date>
        <dc:description>Add/Remove Programs icon with CD.</dc:description>
        <dc:source>http://openclipart.org/detail/102823/addremove-programs-icon-by-jhnri4</dc:source>
        <dc:creator>
          <cc:Agent>
            <dc:title>jhnri4</dc:title>
          </cc:Agent>
        </dc:creator>
        <dc:subject>
          <rdf:Bag>
            <rdf:li>add</rdf:li>
            <rdf:li>box</rdf:li>
            <rdf:li>cd</rdf:li>
            <rdf:li>clip art</rdf:li>
            <rdf:li>clipart</rdf:li>
            <rdf:li>compact disc</rdf:li>
            <rdf:li>disc</rdf:li>
            <rdf:li>icon</rdf:li>
            <rdf:li>media</rdf:li>
            <rdf:li>png</rdf:li>
            <rdf:li>programs</rdf:li>
            <rdf:li>remove</rdf:li>
            <rdf:li>software</rdf:li>
            <rdf:li>svg</rdf:li>
          </rdf:Bag>
        </dc:subject>
      </cc:Work>
    </rdf:RDF>
  </metadata>
</svg>
