<?xml version="1.0" encoding="UTF-8" standalone="no"?>
<!-- Created with Inkscape (http://www.inkscape.org/) -->

<svg
   xmlns:dc="http://purl.org/dc/elements/1.1/"
   xmlns:cc="http://creativecommons.org/ns#"
   xmlns:rdf="http://www.w3.org/1999/02/22-rdf-syntax-ns#"
   xmlns:svg="http://www.w3.org/2000/svg"
   xmlns="http://www.w3.org/2000/svg"
   xmlns:xlink="http://www.w3.org/1999/xlink"
   xmlns:sodipodi="http://sodipodi.sourceforge.net/DTD/sodipodi-0.dtd"
   xmlns:inkscape="http://www.inkscape.org/namespaces/inkscape"
   width="48"
   height="48"
   id="svg2"
   version="1.1"
   inkscape:version="0.48.4 r9939"
   sodipodi:docname="virt-manager.svg">
  <defs
     id="defs4">
    <linearGradient
       inkscape:collect="always"
       id="linearGradient7855">
      <stop
         style="stop-color:#46a8fb;stop-opacity:1"
         offset="0"
         id="stop7857" />
      <stop
         style="stop-color:#54f3fd;stop-opacity:1"
         offset="1"
         id="stop7859" />
    </linearGradient>
    <linearGradient
       gradientTransform="translate(-2.8891602e-6,8.7017188e-5)"
       inkscape:collect="always"
       xlink:href="#linearGradient7855"
       id="linearGradient7861"
       x1="30.296669"
       y1="1049.4602"
       x2="30.296669"
       y2="1007.3235"
       gradientUnits="userSpaceOnUse" />
  </defs>
  <sodipodi:namedview
     id="base"
     pagecolor="#ffffff"
     bordercolor="#666666"
     borderopacity="1.0"
     inkscape:pageopacity="0.0"
     inkscape:pageshadow="2"
     inkscape:zoom="6"
     inkscape:cx="5.6829072"
     inkscape:cy="24.267084"
     inkscape:document-units="px"
     inkscape:current-layer="layer1"
     showgrid="false"
     inkscape:window-width="1347"
     inkscape:window-height="892"
     inkscape:window-x="3327"
     inkscape:window-y="1132"
     inkscape:window-maximized="0"
     showguides="true"
     inkscape:guide-bbox="true" />
  <metadata
     id="metadata7">
    <rdf:RDF>
      <cc:Work
         rdf:about="">
        <dc:format>image/svg+xml</dc:format>
        <dc:type
           rdf:resource="http://purl.org/dc/dcmitype/StillImage" />
        <dc:title />
      </cc:Work>
    </rdf:RDF>
  </metadata>
  <g
     inkscape:label="Capa 1"
     inkscape:groupmode="layer"
     id="layer1"
     transform="translate(0,-1004.3622)">
    <path
       style="fill:#8e44ad;fill-opacity:1;stroke:#7f8c8d;stroke-opacity:1"
       d="m 12.473906,1009.0289 0,2.7187 -0.843746,0 0,3.2812 -0.140624,0 c -0.632482,0 -1.124992,0.4926 -1.124992,1.1251 l 0,0.141 -3.374978,0 0,0.8437 -2.7187327,0 0,1.5 2.7187327,0 0,1.0782 3.374978,0 0,7.078 -3.374978,0 0,0.8437 -2.7187327,0 0,1.5 2.7187327,0 0,1.1251 3.374978,0 0,7.0781 -3.374978,0 0,0.8437 -2.7187327,0 0,1.5 2.7187327,0 0,1.078 3.374978,0 0,0.141 c 0,0.6324 0.49251,1.125 1.124992,1.125 l 0.140624,0 0,3.2813 0.843746,0 0,2.7187 1.49999,0 0,-2.7187 1.078118,0 0,-3.2813 7.124954,0 0,3.2813 0.843744,0 0,2.7187 1.499991,0 0,-2.7187 1.031243,0 0,-3.2813 7.124955,0 0,3.2813 0.843744,0 0,2.7187 1.49999,0 0,-2.7187 1.078119,0 0,-3.2813 0.140624,0 c 0.632482,0 1.124993,-0.4926 1.124993,-1.125 l 0,-0.141 3.374978,0 0,-1.078 2.718732,0 0,-1.5 -2.718732,0 0,-0.8437 -3.374978,0 0,-7.0781 3.374978,0 0,-1.1251 2.718732,0 0,-1.5 -2.718732,0 0,-0.8437 -3.374978,0 0,-7.078 3.374978,0 0,-1.0782 2.718732,0 0,-1.5 -2.718732,0 0,-0.8437 -3.374978,0 0,-0.141 c 0,-0.6325 -0.492511,-1.1251 -1.124993,-1.1251 l -0.140624,0 0,-3.2812 -1.078119,0 0,-2.7187 -1.49999,0 0,2.7187 -0.843744,0 0,3.2812 -7.124955,0 0,-3.2812 -1.031243,0 0,-2.7187 -1.499991,0 0,2.7187 -0.843744,0 0,3.2812 -7.124954,0 0,-3.2812 -1.078118,0 0,-2.7187 -1.49999,0 z"
       id="rect4054"
       inkscape:connector-curvature="0" />
  </g>
</svg>
