<?xml version="1.0" encoding="UTF-8" standalone="no"?>
<!-- Created with Inkscape (http://www.inkscape.org/) -->

<svg
   xmlns:dc="http://purl.org/dc/elements/1.1/"
   xmlns:cc="http://creativecommons.org/ns#"
   xmlns:rdf="http://www.w3.org/1999/02/22-rdf-syntax-ns#"
   xmlns:svg="http://www.w3.org/2000/svg"
   xmlns="http://www.w3.org/2000/svg"
   xmlns:sodipodi="http://sodipodi.sourceforge.net/DTD/sodipodi-0.dtd"
   xmlns:inkscape="http://www.inkscape.org/namespaces/inkscape"
   width="48"
   height="48"
   id="svg2"
   version="1.1"
   inkscape:version="0.48.4 r9939"
   viewBox="0 0 13.546666 13.546668"
   sodipodi:docname="xbmc.svg">
  <defs
     id="defs4" />
  <sodipodi:namedview
     id="base"
     pagecolor="#ffffff"
     bordercolor="#666666"
     borderopacity="1.0"
     inkscape:pageopacity="0"
     inkscape:pageshadow="2"
     inkscape:zoom="8.9002327"
     inkscape:cx="20.762723"
     inkscape:cy="34.648838"
     inkscape:document-units="px"
     inkscape:current-layer="layer1"
     showgrid="false"
     inkscape:showpageshadow="false"
     borderlayer="true"
     units="px"
     fit-margin-top="0"
     fit-margin-left="0"
     fit-margin-right="0"
     fit-margin-bottom="0"
     showguides="true"
     inkscape:window-width="862"
     inkscape:window-height="827"
     inkscape:window-x="978"
     inkscape:window-y="67"
     inkscape:window-maximized="0">
    <sodipodi:guide
       position="-6.6748425e-06,47.999999"
       orientation="47.999977,0"
       id="guide4120" />
    <sodipodi:guide
       position="-6.6748425e-06,2.2810037e-05"
       orientation="0,48.000004"
       id="guide4122" />
    <sodipodi:guide
       position="47.999997,2.2810037e-05"
       orientation="-47.999977,0"
       id="guide4124" />
    <sodipodi:guide
       position="47.999997,47.999999"
       orientation="0,-48.000004"
       id="guide4126" />
    <sodipodi:guide
       position="3.9999733,44.000154"
       orientation="39.999962,0"
       id="guide4138" />
    <sodipodi:guide
       position="3.9999733,4.0001921"
       orientation="0,40.000003"
       id="guide4140" />
    <sodipodi:guide
       position="43.999976,4.0001921"
       orientation="-39.999962,0"
       id="guide4142" />
    <sodipodi:guide
       position="43.999976,44.000154"
       orientation="0,-40.000003"
       id="guide4144" />
    <sodipodi:guide
       position="6.9999922,47.999999"
       orientation="39.999962,0"
       id="guide4148" />
    <sodipodi:guide
       position="6.9999922,8.0000369"
       orientation="0,34.000006"
       id="guide4150" />
    <sodipodi:guide
       position="40.999998,8.0000369"
       orientation="-39.999962,0"
       id="guide4152" />
    <sodipodi:guide
       position="40.999998,47.999999"
       orientation="0,-34.000006"
       id="guide4154" />
    <sodipodi:guide
       position="14.999993,32.999986"
       orientation="17.999951,0"
       id="guide4158" />
    <sodipodi:guide
       position="14.999993,15.000036"
       orientation="0,17.999998"
       id="guide4160" />
    <sodipodi:guide
       position="32.999991,15.000036"
       orientation="-17.999951,0"
       id="guide4162" />
    <sodipodi:guide
       position="32.999991,32.999986"
       orientation="0,-17.999998"
       id="guide4164" />
    <sodipodi:guide
       position="1.9999969,44.000046"
       orientation="39.999962,0"
       id="guide3279" />
    <sodipodi:guide
       position="1.9999969,4.0000839"
       orientation="0,44.000003"
       id="guide3281" />
    <sodipodi:guide
       position="46,4.0000839"
       orientation="-39.999962,0"
       id="guide3283" />
    <sodipodi:guide
       position="46,44.000046"
       orientation="0,-44.000003"
       id="guide3285" />
  </sodipodi:namedview>
  <metadata
     id="metadata7">
    <rdf:RDF>
      <cc:Work
         rdf:about="">
        <dc:format>image/svg+xml</dc:format>
        <dc:type
           rdf:resource="http://purl.org/dc/dcmitype/StillImage" />
        <dc:title></dc:title>
      </cc:Work>
    </rdf:RDF>
  </metadata>
  <g
     inkscape:label="Capa 1"
     inkscape:groupmode="layer"
     id="layer1"
     transform="translate(38.119153,-397.84494)">
    <g
       transform="matrix(0.06625321,0,0,-0.06625321,-38.225423,408.31831)"
       id="g4">
      <path
         inkscape:connector-curvature="0"
         d="m 48.83,7.465 c 12.99,-1.652 42.06,1.226 69.47,5.295 26.6,3.94 51.9,9.08 60.8,12.48 5,1.94 10,10.2 13.8,21.47 3.8,11.64 6.5,26.81 6.3,41.7 -0.1,9.95 -39.4,15.09 -82.5,17.39 -46.23,2.5 -96.48,1.6 -101.72,-0.7 C 7.316,101.6 11.44,75.19 19.8,51.09 27.5,28.88 38.81,8.742 48.83,7.465"
         id="path18"
         style="fill:#34495e;fill-opacity:1;fill-rule:evenodd;stroke:none" />
      <path
         inkscape:connector-curvature="0"
         d="m 52.52,10.54 c 12.06,-1.536 39.05,1.14 64.48,4.92 24.7,3.66 48.2,8.43 56.4,11.59 4.7,1.8 9.4,9.47 12.9,19.94 3.6,10.81 6,24.89 5.9,38.73 -0.2,9.23 -36.6,14.04 -76.6,16.18 -42.99,2.3 -89.65,1.4 -94.51,-0.7 -7.12,-3.21 -3.3,-27.77 4.46,-50.14 7.16,-20.63 17.67,-39.33 26.97,-40.52"
         id="path20"
         style="fill:#2c3e50;fill-opacity:1;fill-rule:evenodd;stroke:none" />
      <path
         inkscape:connector-curvature="0"
         d="m 181.3402,25.968634 c 2.12556,2.054277 4.1499,6.357448 6.17425,12.390536 C 146.21788,36.975274 83.554396,36.975236 28.3,37.191475 c 0.151826,-0.691967 0.323895,-1.36231 0.485842,-2.054187"
         id="path22"
         style="fill:#f39c12;fill-opacity:1;fill-rule:evenodd;stroke:none" />
      <path
         inkscape:connector-curvature="0"
         d="m 77.4,91.328 -1.176,-9.774145 -7.096,0 c -4.312,0 -8.304,-1.842903 -11.976,-5.519063 -0.968,-0.964872 -1.832,-1.968337 -2.6,-3.039345 -0.432,1.071008 -0.968,2.074473 -1.624,3.039345 -2.512,3.67616 -5.944,5.519063 -10.256,5.519063 l -9.168,0 c -0.328,-2.064824 0,-3.82089 0.968,-5.277845 0.976,-1.456956 2.312,-2.199906 4.032,-2.199906 l 3,0 c 2.568,0 4.576,-1.109602 6.024,-3.348104 1.448,-2.2385 1.936,-4.920843 1.448,-8.018079 -0.488,-3.106886 -1.8,-5.750633 -3.952,-7.960187 -2.152,-2.199906 -4.536,-3.319157 -7.096,-3.319157 l -3,0 c -1.72,0 -3.288,-0.714005 -4.728,-2.17096 -1.44,-1.456956 -2.328,-3.203373 -2.648,-5.277846 l 9.2,0 c 4.312,0 8.28,1.813958 11.952,5.461172 0.96,0.955222 1.832,1.977985 2.592,3.048993 0.432,-1.071008 0.992,-2.093771 1.656,-3.048993 2.512,-3.647214 5.912,-5.461172 10.224,-5.461172 l 9.2,0 c 0.328,2.074473 0,3.82089 -0.976,5.277846 -0.976,1.456955 -2.336,2.17096 -4.048,2.17096 l -2.976,0 c -2.576,0 -4.592,1.119251 -6.048,3.319157 -1.464,2.209554 -1.952,4.853301 -1.456,7.960187 0.488,3.097236 1.816,5.779579 3.976,8.018079 2.16,2.238502 4.536,3.348104 7.104,3.348104 l 3,0 c 1.672,0 3.208,0.723653 4.624,2.113068 L 73.952,62.79676 c -0.648,-5.287494 0.376,-9.764497 3.096,-13.469602 2.656,-3.762997 6.232,-5.61555 10.552,-5.61555 4.4,0 8.4,1.852553 12,5.61555 3.6,3.705105 5.76,8.182108 6.4,13.469602 0.64,5.297142 -0.4,9.774145 -3.04,13.47925 -2.72,3.676159 -6.32,5.548009 -10.72,5.548009 l -9.36,0 0.16,1.476253 c 0.32,2.180609 -0.08,4.091054 -1.28,5.673443 C 80.72,90.556103 79.224,91.328 77.4,91.328 z m 4.52,-17.097517 9.44,0 c 2.56,0 4.64,-1.080656 6.24,-3.319157 1.44,-2.228852 2,-4.978735 1.68,-8.114566 -0.4,-3.135832 -1.6,-5.818174 -3.68,-8.075972 -2.08,-2.277096 -4.4,-3.434942 -7.04,-3.434942 -2.64,0 -4.72,1.157846 -6.24,3.434942 -1.52,2.257798 -2.08,4.94014 -1.76,8.075972 l 1.36,11.433723 z"
         id="path46"
         style="fill:#1abc9c;fill-opacity:1;fill-rule:nonzero;stroke:none" />
      <path
         inkscape:connector-curvature="0"
         d="m 123.68,83.448 c -4.4,0 -8.4,-1.918165 -11.92,-5.744557 -3.6,-3.886022 -5.76,-8.48763 -6.4,-13.943966 l -2.32,-19.569258 c 1.84,0 3.52,0.765278 4.96,2.395221 1.52,1.600128 2.4,3.53817 2.64,5.834005 L 112,63.759477 c 0.4,3.259888 1.6,6.052656 3.68,8.418061 2.08,2.305774 4.48,3.448721 7.04,3.448721 2.64,0 4.72,-1.142947 6.24,-3.448721 1.52,-2.365405 2.08,-5.158173 1.68,-8.418061 l -1.28,-11.340032 c -0.32,-2.25608 0.16,-4.144429 1.28,-5.774373 1.12,-1.620005 2.56,-2.454853 4.4,-2.454853 l 2.32,19.569258 c 0.32,3.259888 1.6,6.052656 3.68,8.418061 2.08,2.305774 4.4,3.448721 7.04,3.448721 2.56,0 4.64,-1.142947 6.16,-3.448721 1.52,-2.365405 2.16,-5.158173 1.76,-8.418061 l -1.36,-11.340032 c -0.24,-2.25608 0.16,-4.144429 1.28,-5.774373 1.12,-1.620005 2.56,-2.454853 4.4,-2.454853 l 1.12,9.163461 c 0.48,-1.202579 1.04,-2.345528 1.84,-3.418904 2.72,-3.826392 6.24,-5.744557 10.56,-5.744557 l 9.36,0 c 0.24,2.156693 -0.16,4.005288 -1.2,5.535844 -1.04,1.510679 -2.48,2.266019 -4.16,2.266019 l -3.04,0 c -2.64,0 -4.72,1.172764 -6.24,3.478537 -1.6,2.295835 -2.16,5.058788 -1.84,8.288858 0.4,3.259888 1.68,6.052656 3.76,8.418061 2.08,2.305774 4.48,3.448721 7.04,3.448721 l 3.04,0 c 1.76,0 3.36,0.805034 4.8,2.325651 1.36,1.520618 2.16,3.319519 2.4,5.49609 l -9.28,0 c -4.4,0 -8.32,-1.918165 -11.92,-5.744557 -1.76,-1.908225 -3.2,-3.995348 -4.24,-6.271305 -0.48,2.285896 -1.44,4.382957 -2.72,6.271305 -2.72,3.826392 -6.24,5.744557 -10.64,5.744557 -2.4,0 -4.8,-0.705646 -7.2,-2.077184 -2.4,-1.371538 -4.56,-3.210193 -6.32,-5.625293 -1.28,2.4151 -2.96,4.313387 -4.96,5.684925 -2.08,1.331783 -4.32,2.017552 -6.8,2.017552 z"
         id="path48"
         style="fill:#bdc3c7;fill-opacity:1;fill-rule:nonzero;stroke:none" />
    </g>
  </g>
</svg>
