<?xml version="1.0" encoding="UTF-8" standalone="no"?>
<!-- Created with Inkscape (http://www.inkscape.org/) -->

<svg
   xmlns:dc="http://purl.org/dc/elements/1.1/"
   xmlns:cc="http://creativecommons.org/ns#"
   xmlns:rdf="http://www.w3.org/1999/02/22-rdf-syntax-ns#"
   xmlns:svg="http://www.w3.org/2000/svg"
   xmlns="http://www.w3.org/2000/svg"
   xmlns:xlink="http://www.w3.org/1999/xlink"
   xmlns:sodipodi="http://sodipodi.sourceforge.net/DTD/sodipodi-0.dtd"
   xmlns:inkscape="http://www.inkscape.org/namespaces/inkscape"
   width="32"
   height="32"
   id="svg5453"
   version="1.1"
   inkscape:version="0.48+devel r"
   sodipodi:docname="preferences-gtk-config.svg">
  <defs
     id="defs5455">
    <linearGradient
       id="linearGradient4293"
       inkscape:collect="always">
      <stop
         id="stop4295"
         offset="0"
         style="stop-color:#000000;stop-opacity:1;" />
      <stop
         id="stop4297"
         offset="1"
         style="stop-color:#000000;stop-opacity:0;" />
    </linearGradient>
    <linearGradient
       id="linearGradient4303-6"
       inkscape:collect="always">
      <stop
         id="stop4305-7"
         offset="0"
         style="stop-color:#c6cdd1;stop-opacity:1" />
      <stop
         id="stop4307-0"
         offset="1"
         style="stop-color:#e0e5e7;stop-opacity:1" />
    </linearGradient>
    <linearGradient
       id="linearGradient3052">
      <stop
         offset="0"
         style="stop-color:#555753"
         id="stop3054" />
      <stop
         offset="1"
         style="stop-color:#2e3436"
         id="stop3056" />
    </linearGradient>
    <radialGradient
       r="17.995"
       gradientTransform="matrix(0.58724559,-3.9747237e-7,0,0.25688859,387.29706,527.70784)"
       cx="25.641"
       cy="3.6836"
       gradientUnits="userSpaceOnUse"
       xlink:href="#linearGradient3052"
       id="radialGradient3082" />
    <linearGradient
       inkscape:collect="always"
       xlink:href="#linearGradient4293"
       id="linearGradient4427"
       x1="8"
       y1="10"
       x2="23"
       y2="25"
       gradientUnits="userSpaceOnUse" />
    <linearGradient
       inkscape:collect="always"
       xlink:href="#linearGradient4303-6"
       id="linearGradient4643-8"
       gradientUnits="userSpaceOnUse"
       gradientTransform="matrix(0.66666726,0,0,0.63518419,128.19015,198.5187)"
       x1="409.57144"
       y1="543.79797"
       x2="409.57144"
       y2="502.65509" />
    <linearGradient
       inkscape:collect="always"
       xlink:href="#linearGradient4293"
       id="linearGradient4242"
       gradientUnits="userSpaceOnUse"
       x1="8"
       y1="10"
       x2="23"
       y2="25" />
    <linearGradient
       inkscape:collect="always"
       xlink:href="#linearGradient4293"
       id="linearGradient4183"
       x1="391.57144"
       y1="525.79797"
       x2="406.57147"
       y2="540.79797"
       gradientUnits="userSpaceOnUse" />
  </defs>
  <sodipodi:namedview
     id="base"
     pagecolor="#ffffff"
     bordercolor="#666666"
     borderopacity="1.0"
     inkscape:pageopacity="0"
     inkscape:pageshadow="2"
     inkscape:zoom="11.313708"
     inkscape:cx="-2.9879952"
     inkscape:cy="13.25939"
     inkscape:document-units="px"
     inkscape:current-layer="layer1"
     showgrid="true"
     fit-margin-top="0"
     fit-margin-left="0"
     fit-margin-right="0"
     fit-margin-bottom="0"
     inkscape:window-width="1366"
     inkscape:window-height="669"
     inkscape:window-x="-4"
     inkscape:window-y="25"
     inkscape:window-maximized="1"
     inkscape:showpageshadow="false"
     borderlayer="true"
     showguides="true">
    <inkscape:grid
       type="xygrid"
       id="grid4063" />
    <sodipodi:guide
       position="4.2167969e-05,32.000026"
       orientation="32,0"
       id="guide4625" />
    <sodipodi:guide
       position="4.2167969e-05,2.6367188e-05"
       orientation="0,31.999969"
       id="guide4627" />
    <sodipodi:guide
       position="32.000012,2.6367188e-05"
       orientation="-32,0"
       id="guide4629" />
    <sodipodi:guide
       position="32.000012,32.000026"
       orientation="0,-31.999969"
       id="guide4631" />
    <sodipodi:guide
       position="2.0000422,30.000026"
       orientation="28,0"
       id="guide4633" />
    <sodipodi:guide
       position="2.0000422,2.0000264"
       orientation="0,27.999969"
       id="guide4635" />
    <sodipodi:guide
       position="30,17"
       orientation="-28,0"
       id="guide4637" />
    <sodipodi:guide
       position="30.000012,30.000026"
       orientation="0,-27.999969"
       id="guide4639" />
  </sodipodi:namedview>
  <metadata
     id="metadata5458">
    <rdf:RDF>
      <cc:Work
         rdf:about="">
        <dc:format>image/svg+xml</dc:format>
        <dc:type
           rdf:resource="http://purl.org/dc/dcmitype/StillImage" />
        <dc:title />
      </cc:Work>
    </rdf:RDF>
  </metadata>
  <g
     inkscape:label="Capa 1"
     inkscape:groupmode="layer"
     id="layer1"
     transform="translate(-384.57143,-515.798)">
    <rect
       ry="0"
       y="517.79797"
       x="384.57144"
       height="28"
       width="32"
       id="rect4641-5"
       style="opacity:1;fill:url(#linearGradient4643-8);fill-opacity:1;stroke:none" />
    <path
       style="fill:url(#linearGradient4183);fill-rule:evenodd;stroke:none;stroke-width:1px;stroke-linecap:butt;stroke-linejoin:miter;stroke-opacity:1;fill-opacity:1;opacity:0.2"
       d="m 385.57143,543.798 30,-20 1.00001,1 -10e-6,20.99997 -29,3e-5 z"
       id="path4167"
       inkscape:connector-curvature="0" />
    <rect
       style="opacity:1;fill:#566069;fill-opacity:1;stroke:none"
       id="rect4647-8"
       width="32.000011"
       height="4"
       x="384.57141"
       y="517.79797" />
    <rect
       style="opacity:1;fill:#3daee9;fill-opacity:1;stroke:none"
       id="rect4649-8"
       width="31.999968"
       height="1"
       x="384.57141"
       y="521.79797" />
    <rect
       style="opacity:1;fill:#ffffff;fill-opacity:1;stroke:none"
       id="rect4653-5"
       width="30"
       height="20.000027"
       x="385.57141"
       y="523.79797" />
    <rect
       style="opacity:1;fill:#eff0f1;fill-opacity:1;stroke:none"
       id="rect4661-1"
       width="2"
       height="2"
       x="413.57141"
       y="518.79797"
       rx="1"
       ry="1" />
    <path
       style="fill:url(#linearGradient4427);fill-rule:evenodd;stroke:none;stroke-width:1px;stroke-linecap:butt;stroke-linejoin:miter;stroke-opacity:1;fill-opacity:1;opacity:0.2"
       d="m 20.609375,12.246094 c -0.361078,1.059311 -0.924481,2.034213 -1.628906,2.949218 l -2.517578,-2.519531 -1.25,1.833985 2.324218,2.287109 c -0.036,0.03389 -0.07681,0.06592 -0.113281,0.09961 l -0.207031,-0.109375 -3.337891,-3.33789 -0.558594,1.027343 0.335938,0.335938 -0.3125,0.546875 2.613281,2.613281 C 15.462117,17.680578 14.429688,17.0625 14.429688,17.0625 l -0.283204,-0.05078 -2.048828,-2.048828 -0.621094,0.722656 0.222657,0.386719 -0.207031,0.333984 3.029812,3.341797 C 14.227302,19.91611 12.838817,20.087346 12.53125,20.25 l 0.9375,2.3125 L 18.90625,28 30,28 30,21.636719 Z"
       transform="translate(384.57143,515.798)"
       id="path4375"
       inkscape:connector-curvature="0"
       sodipodi:nodetypes="ccccccccccccccccccccccccc" />
    <path
       style="opacity:0.2;fill:url(#linearGradient4242);fill-opacity:1;fill-rule:evenodd;stroke:none;stroke-width:1px;stroke-linecap:butt;stroke-linejoin:miter;stroke-opacity:1"
       d="M 20.609375 12.246094 C 20.248297 13.305405 19.684894 14.280307 18.980469 15.195312 L 16.462891 12.675781 L 15.212891 14.509766 L 17.537109 16.796875 C 17.501109 16.830765 17.460299 16.862794 17.423828 16.896484 L 17.216797 16.787109 L 13.878906 13.449219 L 13.320312 14.476562 L 13.65625 14.8125 L 13.34375 15.359375 L 15.957031 17.972656 C 15.462117 17.680577 14.429687 17.0625 14.429688 17.0625 L 14.146484 17.011719 L 12.097656 14.962891 L 11.476562 15.685547 L 11.699219 16.072266 L 11.492188 16.40625 L 14.521484 19.748047 C 14.226786 19.916109 12.838817 20.087346 12.53125 20.25 L 13.46875 22.5625 L 18.90625 28 L 21.427734 28 L 20 29 L 21 30 L 32 30 L 32 24 L 30 22 L 20.609375 12.246094 z "
       transform="translate(384.57143,515.798)"
       id="path4198" />
    <path
       style="fill:url(#radialGradient3082);stroke:none"
       d="m 404.36614,527.79799 c -2.43768,0 -2.89497,3.56157 -1.52345,3.56157 1.37097,0 3.96143,-3.56157 1.52345,-3.56157 z m -3.75479,0.54795 c -0.0384,-1.3e-4 -0.0801,0.003 -0.12336,0.008 -1.38141,0.16777 -0.89522,2.41575 -0.15984,2.45767 0.71207,0.0409 1.49111,-2.46126 0.28272,-2.46517 z m -2.39531,0.82992 c -0.0845,-0.005 -0.17807,0.0103 -0.28223,0.0513 -1.11033,0.4384 -0.16848,2.24811 0.45311,2.12646 0.56418,-0.11024 0.64506,-2.12684 -0.17088,-2.17782 z m -1.81232,1.47954 c -0.0965,-0.003 -0.20063,0.0294 -0.31199,0.10914 -0.88879,0.6378 0.29904,2.17862 0.82199,1.93973 0.45744,-0.20927 0.1656,-2.02532 -0.51012,-2.04887 z m 5.24936,1.47096 c -1.92572,-0.0317 -4.46609,0.90786 -4.89944,2.79534 -0.46895,2.04242 1.93179,4.87629 4.43645,4.87629 1.23213,0 2.65326,-1.08273 2.91937,-2.45393 0.20304,-1.04548 -2.3897,-0.6265 -2.29668,0.0652 0.11184,0.8293 -0.62533,1.23923 -1.34719,0.70472 -2.29779,-1.70189 3.80471,-2.55114 3.40219,-4.8763 -0.12528,-0.7238 -1.0593,-1.09238 -2.2147,-1.1114 z"
       id="path4490"
       inkscape:connector-curvature="0" />
  </g>
</svg>
